<?xml version="1.0" encoding="UTF-8"?>
<svg id="Layer_1" data-name="Layer 1" xmlns="http://www.w3.org/2000/svg" version="1.1" viewBox="0 0 25 25">
  <defs>
    <style>
      .cls-1 {
        fill: #fff;
        fill-rule: evenodd;
        stroke-width: 0px;
      }
    </style>
  </defs>
  <path class="cls-1" d="M12.5,2.7c-2.2,0-4.3.9-5.8,2.4-1.5,1.5-2.4,3.6-2.4,5.8,0,2.1.8,4.2,2.4,5.8l5.5,5.5c.2.2.5.2.7,0l5.5-5.5c1.5-1.5,2.4-3.6,2.4-5.8,0-2.2-.9-4.3-2.4-5.8-1.5-1.5-3.6-2.4-5.8-2.4ZM5.5,3.9c1.9-1.9,4.4-2.9,7-2.9,2.5,0,5.1,1,7,2.9,1.9,1.9,2.9,4.4,2.9,7,0,2.6-1,5.2-2.9,7l-5.5,5.5c-.9.9-2.3.9-3.2,0,0,0,0,0,0,0l-5.5-5.5c-1.9-1.9-2.9-4.4-2.9-7,0-2.5,1-5.1,2.9-7Z"/>
  <g>
    <path class="cls-1" d="M8.9,11.1c0-.5.4-.9.9-.9h5.5c.5,0,.9.4.9.9s-.4.9-.9.9h-5.5c-.5,0-.9-.4-.9-.9Z"/>
    <path class="cls-1" d="M12.5,7.5c.5,0,.9.4.9.9v5.5c0,.5-.4.9-.9.9s-.9-.4-.9-.9v-5.5c0-.5.4-.9.9-.9Z"/>
  </g>
</svg>