<svg xmlns="http://www.w3.org/2000/svg" version="1.1" xmlns:xlink="http://www.w3.org/1999/xlink" width="512" height="512" x="0" y="0" viewBox="0 0 32 32" style="enable-background:new 0 0 512 512" xml:space="preserve" class=""><g><path d="M20.79 3.87H6.194A4.2 4.2 0 0 0 2 8.064v12.768a4.2 4.2 0 0 0 3.96 4.188v1.08c0 .957.537 1.808 1.4 2.224a2.454 2.454 0 0 0 2.61-.29l1.402-1.108a8.915 8.915 0 0 1 5.477-1.9h8.511a4.2 4.2 0 0 0 4.195-4.194v-8.178a1 1 0 1 0-2 0v8.178c0 1.21-.985 2.194-2.195 2.194H16.85c-2.417 0-4.8.827-6.714 2.33l-1.407 1.113a.461.461 0 0 1-.5.054.459.459 0 0 1-.267-.422v-2.075a1 1 0 0 0-1-1h-.767A2.197 2.197 0 0 1 4 20.832V8.064c0-1.21.984-2.194 2.194-2.194H20.79a1 1 0 1 0 0-2z" fill="#0088a5" opacity="1" data-original="#000000" class=""></path><path d="M9.88 18.023h11.795a1 1 0 1 0 0-2H9.88a1 1 0 1 0 0 2zM21.675 10.872h-5.898a1 1 0 1 0 0 2h5.898a1 1 0 1 0 0-2zM9.88 12.872h2.36a1 1 0 1 0 0-2H9.88a1 1 0 1 0 0 2zM29 5.838h-1.411V4.427a1 1 0 1 0-2 0v1.41h-1.41a1 1 0 1 0 0 2h1.41V9.25a1 1 0 1 0 2 0V7.838H29a1 1 0 1 0 0-2z" fill="#0088a5" opacity="1" data-original="#000000" class=""></path></g></svg>