<svg width="40" height="27" viewBox="0 0 40 27" fill="none" xmlns="http://www.w3.org/2000/svg">
<g clip-path="url(#clip0_202_1816)">
<path d="M30.2102 17.1816C27.4297 17.1816 25.168 19.3837 25.168 22.0909C25.168 24.798 27.4297 27.0001 30.2102 27.0001C32.9906 27.0001 35.2523 24.798 35.2523 22.0909C35.2523 19.3837 32.9906 17.1816 30.2102 17.1816ZM30.2102 24.5455C28.8195 24.5455 27.6891 23.4448 27.6891 22.0909C27.6891 20.7369 28.8195 19.6363 30.2102 19.6363C31.6008 19.6363 32.7312 20.7369 32.7312 22.0909C32.7312 23.4448 31.6008 24.5455 30.2102 24.5455Z" fill="#757984"/>
<path d="M12.9826 17.1816C10.2021 17.1816 7.94043 19.3837 7.94043 22.0909C7.94043 24.798 10.2021 27.0001 12.9826 27.0001C15.7631 27.0001 18.0248 24.798 18.0248 22.0909C18.0248 19.3837 15.7631 17.1816 12.9826 17.1816ZM12.9826 24.5455C11.592 24.5455 10.4615 23.4448 10.4615 22.0909C10.4615 20.7369 11.592 19.6363 12.9826 19.6363C14.3732 19.6363 15.5037 20.7369 15.5037 22.0909C15.5037 23.4448 14.3732 24.5455 12.9826 24.5455Z" fill="#757984"/>
<path d="M33.6055 3.13032C33.3914 2.71577 32.9555 2.4541 32.4789 2.4541H25.8398V4.90872H31.7008L35.1328 11.5553L37.3859 10.4523L33.6047 3.12956L33.6055 3.13032Z" fill="#757984"/>
<path d="M26.4281 20.9043H16.8906V23.3589H26.4281V20.9043Z" fill="#757984"/>
<path d="M9.20195 20.9043H4.83242C4.13633 20.9043 3.57227 21.4535 3.57227 22.1312C3.57227 22.809 4.13633 23.3581 4.83242 23.3581H9.20195C9.89805 23.3581 10.4621 22.809 10.4621 22.1312C10.4621 21.4535 9.89805 20.9043 9.20117 20.9043H9.20195Z" fill="#757984"/>
<path d="M39.7355 13.4019L37.2559 10.2931C37.0176 9.99341 36.6496 9.81846 36.2606 9.81846H27.1012V1.22693C27.1012 0.549189 26.5371 0 25.841 0H4.83242C4.13633 0 3.57227 0.549189 3.57227 1.22693C3.57227 1.90467 4.13633 2.45385 4.83242 2.45385H24.5801V11.0446C24.5801 11.7224 25.1441 12.2716 25.8402 12.2716H35.6434L37.4793 14.574V20.9034H33.9918C33.2957 20.9034 32.7316 21.4526 32.7316 22.1303C32.7316 22.8081 33.2957 23.3573 33.9918 23.3573H38.7395C39.4356 23.3573 39.9996 22.8081 39.9996 22.1303V14.1534C39.9996 13.8811 39.9066 13.6156 39.7348 13.4004L39.7355 13.4019Z" fill="#757984"/>
<path d="M9.11816 14.6865H3.31973C2.62363 14.6865 2.05957 15.2357 2.05957 15.9135C2.05957 16.5912 2.62363 17.1404 3.31973 17.1404H9.11816C9.81426 17.1404 10.3783 16.5912 10.3783 15.9135C10.3783 15.2357 9.81426 14.6865 9.11816 14.6865Z" fill="#757984"/>
<path d="M12.0172 9.8584H1.26016C0.564062 9.8584 0 10.4076 0 11.0853C0 11.7631 0.564062 12.3123 1.26016 12.3123H12.0164C12.7125 12.3123 13.2766 11.7631 13.2766 11.0853C13.2766 10.4076 12.7125 9.8584 12.0164 9.8584H12.0172Z" fill="#757984"/>
<path d="M14.076 5.03125H3.31973C2.62363 5.03125 2.05957 5.58044 2.05957 6.25818C2.05957 6.93591 2.62363 7.4851 3.31973 7.4851H14.076C14.7721 7.4851 15.3361 6.93591 15.3361 6.25818C15.3361 5.58044 14.7721 5.03125 14.076 5.03125Z" fill="#757984"/>
<g clip-path="url(#clip1_202_1816)">
<path d="M20.4307 5.40039C16.622 5.40039 13.5342 8.42154 13.5342 12.1504C13.5342 15.8792 16.622 18.9004 20.4307 18.9004C24.2395 18.9004 27.3273 15.8774 27.3273 12.1504C27.3273 8.42339 24.2395 5.40039 20.4307 5.40039Z" fill="#2AD352"/>
<path d="M13.5342 12.1504C13.5326 13.2661 13.8149 14.3647 14.3556 15.3469C15.0444 15.5448 15.7586 15.6451 16.4765 15.6446C20.6225 15.6446 23.9835 12.355 23.9835 8.2971C23.9842 7.58332 23.8785 6.87327 23.67 6.18931C22.673 5.66954 21.5603 5.39856 20.4307 5.4004C16.622 5.4004 13.5342 8.42155 13.5342 12.1504Z" fill="#74DA7F"/>
<path d="M24.3637 11.0315L20.2185 15.2922C20.1056 15.4082 19.9699 15.5007 19.8195 15.5641C19.6691 15.6275 19.5073 15.6606 19.3435 15.6613H19.3382C19.1753 15.6614 19.0142 15.6294 18.8642 15.5673C18.7143 15.5052 18.5786 15.4143 18.4653 15.2998L16.2657 13.0824C16.152 12.9707 16.0622 12.8381 16.0013 12.6921C15.9405 12.5462 15.9098 12.3899 15.9112 12.2323C15.9125 12.0747 15.9459 11.9189 16.0092 11.774C16.0726 11.6291 16.1647 11.498 16.2803 11.3882C16.3958 11.2785 16.5325 11.1923 16.6824 11.1346C16.8323 11.077 16.9923 11.049 17.1533 11.0524C17.3143 11.0558 17.473 11.0904 17.6202 11.1543C17.7674 11.2183 17.9002 11.3101 18.0108 11.4247L19.3295 12.7541L22.6024 9.39017C22.7121 9.2751 22.8439 9.18246 22.9904 9.11759C23.1368 9.05272 23.295 9.01691 23.4557 9.01224C23.6163 9.00757 23.7764 9.03413 23.9265 9.09038C24.0766 9.14663 24.2139 9.23145 24.3303 9.33994C24.4467 9.44844 24.54 9.57845 24.6048 9.72245C24.6695 9.86646 24.7045 10.0216 24.7076 10.1789C24.7107 10.3362 24.6819 10.4926 24.6229 10.6389C24.5639 10.7853 24.4758 10.9187 24.3637 11.0315Z" fill="white"/>
</g>
</g>
<defs>
<clipPath id="clip0_202_1816">
<rect width="40" height="27" fill="white"/>
</clipPath>
<clipPath id="clip1_202_1816">
<rect width="13.7931" height="13.5" fill="white" transform="translate(13.5342 5.40039)"/>
</clipPath>
</defs>
</svg>
