<?xml version="1.0" encoding="UTF-8"?>
<svg id="Layer_1" data-name="Layer 1" xmlns="http://www.w3.org/2000/svg" version="1.1" viewBox="0 0 511 511">
  <defs>
    <style>
      .cls-1 {
        fill: #0088a5;
        stroke-width: 0px;
      }
    </style>
  </defs>
  <path class="cls-1" d="M510,255.5c0,50.4-15,99.5-43.3,141.8-3.8,5.8-10.2,8.9-16.6,8.9s-7.7-1.1-11.1-3.4c-9.2-6.1-11.6-18.5-5.5-27.7,23.9-35.8,36.6-77.1,36.6-119.6s-2.3-36.4-6.8-53.9c-2.7-10.7,3.7-21.6,14.4-24.3,10.7-2.7,21.6,3.7,24.3,14.4,5.3,20.8,8.1,42.2,8.1,63.9ZM366,440c-33.5,20.3-72.1,31-111.5,31-118.9,0-215.6-96.7-215.6-215.6S135.6,39.9,254.5,39.9s86.3,13.2,122.4,38.1c9.1,6.3,21.5,4,27.8-5.1,6.3-9.1,4-21.5-5.1-27.8C356.8,15.6,306.7,0,254.5,0S122.1,26.6,73.8,74.8-1,187.3-1,255.5s26.6,132.4,74.8,180.7,112.4,74.8,180.7,74.8,92.4-12.7,132.2-36.8c9.4-5.7,12.4-18,6.7-27.4-5.7-9.4-18-12.4-27.4-6.7ZM256.4,313.4c-3.2.1-6.1-1-8.4-3.2l-104.5-99.1c-8-7.6-20.6-7.3-28.2.7-7.6,8-7.3,20.6.7,28.2l104.5,99.1c9.7,9.2,22.1,14.2,35.4,14.2s1.4,0,2.1,0c14-.6,26.9-6.6,36.2-17.1.2-.3.5-.5.7-.8L505.6,73.4c6.9-8.6,5.5-21.2-3-28.1-8.6-6.9-21.2-5.5-28.1,3l-210.2,261.5c-2.1,2.2-4.8,3.4-7.8,3.5Z"/>
</svg>