<svg width="15" height="12" viewBox="0 0 15 12" fill="none" xmlns="http://www.w3.org/2000/svg">
<path d="M0.12206 5.37869L4.4037 0.149539C4.56696 -0.0498463 4.82879 -0.0498463 4.99204 0.149539C5.1553 0.348924 5.1553 0.668692 4.99204 0.868077L1.41887 5.23198H14.5842C14.8152 5.23198 15 5.4577 15 5.73984C15 6.02199 14.8152 6.24771 14.5842 6.24771H1.41887L4.99204 10.6116C5.1553 10.811 5.1553 11.1308 4.99204 11.3301C4.91196 11.428 4.80414 11.4806 4.69941 11.4806C4.59468 11.4806 4.48687 11.4317 4.40678 11.3301L0.12514 6.10099C-0.0411968 5.89785 -0.0411968 5.57432 0.12206 5.37869Z" fill="#FFFBFB"/>
</svg>
