<svg xmlns="http://www.w3.org/2000/svg" version="1.1" xmlns:xlink="http://www.w3.org/1999/xlink" width="512" height="512" x="0" y="0" viewBox="0 0 512 512" style="enable-background:new 0 0 512 512" xml:space="preserve" class=""><g><path d="M498 447H16c-9.284 3-16 9.716-16 18v32c0 8.284 6.716 15 15 15h482c8.284 0 15-6.716 15-15v-32c0-8.284-6.716-15-14-18zM502.749 101.146l-241-100a15.002 15.002 0 0 0-11.498 0l-241 100A14.998 14.998 0 0 0 0 115v30c0 8.284 6.716 15 15 15h482c8.284 0 15-6.716 15-15v-30c0-6.063-3.65-11.531-9.251-13.854zM346 115H166c-8.284 0-15-6.716-15-15s6.716-15 15-15h180c8.284 0 15 6.716 15 15s-6.716 15-15 15zM28.5 390v30h115v-30c0-8.284-6.716-15-15-15h-85c-8.284 0-15 6.716-15 15zM48.5 190h75v155h-75zM388.5 190h75v155h-75zM368.5 390v30h115v-30c0-8.284-6.716-15-15-15h-85c-8.284 0-15 6.716-15 15zM256 350c-8.271 0-15-6.729-15-15 0-8.284-6.716-15-15-15s-15 6.716-15 15c0 19.555 12.541 36.228 30 42.42V385c0 8.284 6.716 15 15 15s15-6.716 15-15v-7.58c17.459-6.192 30-22.865 30-42.42 0-24.813-20.187-45-45-45-8.271 0-15-6.729-15-15s6.729-15 15-15 15 6.729 15 15c0 8.284 6.716 15 15 15s15-6.716 15-15c0-19.555-12.541-36.228-30-42.42V225c0-8.284-6.716-15-15-15s-15 6.716-15 15v7.58c-17.459 6.192-30 22.865-30 42.42 0 24.813 20.187 45 45 45 8.271 0 15 6.729 15 15s-6.729 15-15 15z" fill="#0088a5" opacity="1" data-original="#000000" class=""></path></g></svg>