<svg xmlns="http://www.w3.org/2000/svg" id="Layer_1" data-name="Layer 1" viewBox="0 0 64 64" width="300" height="300" version="1.1" xmlns:xlink="http://www.w3.org/1999/xlink" xmlns:svgjs="http://svgjs.dev/svgjs"><g transform="matrix(1,0,0,1,0,0)"><circle cx="19.553" cy="13.129" r="1.657" fill="#0088a5ff" data-original-color="#000000ff" stroke="none"/><path d="M11.7,18.9H60V7.978H11.7ZM52.145,9.472a3.657,3.657,0,1,1-3.658,3.657A3.66,3.66,0,0,1,52.145,9.472Zm-25.07,2.657H44.623a1,1,0,0,1,0,2H27.075a1,1,0,0,1,0-2ZM19.553,9.472A3.657,3.657,0,1,1,15.9,13.129,3.661,3.661,0,0,1,19.553,9.472Z" fill="#0088a5ff" data-original-color="#000000ff" stroke="none"/><path d="M52.145,14.786a1.657,1.657,0,1,0-1.658-1.657A1.659,1.659,0,0,0,52.145,14.786Z" fill="#0088a5ff" data-original-color="#000000ff" stroke="none"/><path d="M21.617,39.668a5.279,5.279,0,0,1,1,2.834A5.289,5.289,0,0,1,28.1,44.284,5.285,5.285,0,0,1,33.585,42.5a5.285,5.285,0,0,1,3.389-4.664,5.286,5.286,0,0,1,0-5.765,5.282,5.282,0,0,1-3.389-4.664A5.282,5.282,0,0,1,28.1,25.628a5.286,5.286,0,0,1-5.483,1.781,5.286,5.286,0,0,1-3.389,4.664,5.286,5.286,0,0,1,0,5.765A5.292,5.292,0,0,1,21.617,39.668ZM28.1,28.994a5.962,5.962,0,1,1-5.963,5.962A5.968,5.968,0,0,1,28.1,28.994Z" fill="#0088a5ff" data-original-color="#000000ff" stroke="none"/><path d="M11.7,49.478H53.82a1,1,0,0,1,1,1v2.954a2.572,2.572,0,0,0,.761,1.829A2.506,2.506,0,0,0,57.75,56,2.606,2.606,0,0,0,60,53.432V20.9H11.7ZM55.968,38h-3a1,1,0,0,1,0-2h3a1,1,0,0,1,0,2ZM48.709,24.484h7.259a1,1,0,0,1,0,2H48.709a1,1,0,0,1,0-2ZM45.226,29.9H55.968a1,1,0,0,1,0,2H45.226a1,1,0,0,1,0-2Zm-.6,6.1h4.864a1,1,0,0,1,0,2H44.623a1,1,0,1,1,0-2ZM16.658,32.246a1,1,0,0,1,.592-1.825A3.2,3.2,0,0,0,20,29.068a3.239,3.239,0,0,0,.437-3.032,1,1,0,0,1,1.552-1.128,3.284,3.284,0,0,0,5.155-1.675,1,1,0,0,1,1.919,0,3.285,3.285,0,0,0,5.155,1.674,1,1,0,0,1,1.552,1.128,3.285,3.285,0,0,0,3.186,4.385.971.971,0,0,1,.978.691,1,1,0,0,1-.386,1.134,3.285,3.285,0,0,0,0,5.42,1,1,0,0,1,.386,1.134.954.954,0,0,1-.978.69,3.286,3.286,0,0,0-3.186,4.385A1,1,0,0,1,34.217,45a3.285,3.285,0,0,0-5.155,1.675,1,1,0,0,1-1.919,0A3.285,3.285,0,0,0,21.988,45a1,1,0,0,1-1.552-1.127A3.285,3.285,0,0,0,17.25,39.49a.972.972,0,0,1-.979-.69,1,1,0,0,1,.387-1.134,3.285,3.285,0,0,0,0-5.42Z" fill="#0088a5ff" data-original-color="#000000ff" stroke="none"/><path d="M28.1,38.918a3.962,3.962,0,1,0-3.963-3.962A3.966,3.966,0,0,0,28.1,38.918Z" fill="#0088a5ff" data-original-color="#000000ff" stroke="none"/><path d="M7.157,56.022H53.629a4.545,4.545,0,0,1-.809-2.59V51.478H4v1.4A3.156,3.156,0,0,0,7.157,56.022Z" fill="#0088a5ff" data-original-color="#000000ff" stroke="none"/></g></svg>