<svg xmlns="http://www.w3.org/2000/svg" version="1.1" xmlns:xlink="http://www.w3.org/1999/xlink" width="512" height="512" x="0" y="0" viewBox="0 0 512.045 512.045" style="enable-background:new 0 0 512 512" xml:space="preserve" class=""><g><path d="M28.589 335.493h172.385a8.775 8.775 0 0 0 7.883-4.846c6.947-13.912 26.483-52.966 26.483-52.966a8.826 8.826 0 0 0-7.883-12.809H55.071a8.826 8.826 0 0 0-7.892 4.882L20.697 322.72a8.827 8.827 0 0 0 7.892 12.773z" fill="#0088a5" opacity="1" data-original="#000000"></path><path d="M61.816 512.045h185.379V293.439l-24.973 49.999a17.549 17.549 0 0 1-15.793 9.71H52.988v150.069a8.827 8.827 0 0 0 8.828 8.828zM459.057 503.218V353.149H305.616a17.541 17.541 0 0 1-15.793-9.763L264.85 293.44v218.606h185.379a8.829 8.829 0 0 0 8.828-8.828z" fill="#0088a5" opacity="1" data-original="#000000"></path><path d="M456.974 264.873H284.589a8.827 8.827 0 0 0-7.892 12.774l26.483 52.966a8.828 8.828 0 0 0 7.892 4.882h172.385a8.827 8.827 0 0 0 7.892-12.774l-26.483-52.966a8.829 8.829 0 0 0-7.892-4.882zM184.704 201.535a15.705 15.705 0 0 0 22.413 17.329l41.772-22.846a14.788 14.788 0 0 1 14.265 0l41.772 22.828a15.704 15.704 0 0 0 22.413-17.329l-7.865-47.669a16.906 16.906 0 0 1 4.537-14.601l33.156-33.607a16.603 16.603 0 0 0-8.545-27.983l-46.221-6.991a15.58 15.58 0 0 1-11.67-8.828l-20.842-43.935a15.166 15.166 0 0 0-27.736 0l-20.842 43.935a15.581 15.581 0 0 1-11.67 8.828l-46.221 6.983a16.604 16.604 0 0 0-8.545 27.983l33.174 33.615a16.903 16.903 0 0 1 4.537 14.601zM54.303 179.995a8.44 8.44 0 0 1 2.269 7.292l-3.937 23.834a7.858 7.858 0 0 0 11.211 8.66l20.921-11.405a7.414 7.414 0 0 1 7.133 0l20.886 11.414a7.856 7.856 0 0 0 11.211-8.659l-3.937-23.834a8.438 8.438 0 0 1 2.269-7.292l16.578-16.772a8.3 8.3 0 0 0-4.272-13.992l-23.111-3.531a7.786 7.786 0 0 1-5.835-4.414L95.272 119.35a7.582 7.582 0 0 0-13.876 0l-10.452 21.937a7.788 7.788 0 0 1-5.835 4.414l-23.111 3.531a8.297 8.297 0 0 0-4.272 13.992zM416.808 119.323l-10.417 21.963a7.788 7.788 0 0 1-5.835 4.414l-23.111 3.531a8.297 8.297 0 0 0-4.272 13.992l16.578 16.772a8.44 8.44 0 0 1 2.269 7.292l-3.937 23.834a7.858 7.858 0 0 0 11.211 8.66l20.921-11.405a7.414 7.414 0 0 1 7.133 0l20.886 11.414a7.856 7.856 0 0 0 11.211-8.659l-3.937-23.834a8.438 8.438 0 0 1 2.269-7.292l16.578-16.772a8.3 8.3 0 0 0-4.272-13.992l-23.111-3.531a7.786 7.786 0 0 1-5.835-4.414l-10.417-21.945a7.582 7.582 0 0 0-13.912-.028zM194.229 35.355a8.826 8.826 0 0 0 7.945-12.773l-8.828-17.655a8.832 8.832 0 0 0-15.802 7.892l8.828 17.655a8.828 8.828 0 0 0 7.857 4.881zM165.16 50.424a8.828 8.828 0 0 0 0-12.482l-8.828-8.828a8.828 8.828 0 0 0-12.483 12.483l8.828 8.828a8.83 8.83 0 0 0 12.483-.001zM317.816 35.355a8.828 8.828 0 0 0 7.945-4.882l8.828-17.655a8.871 8.871 0 0 0-15.89-7.892l-8.828 17.655a8.826 8.826 0 0 0 .401 8.608 8.824 8.824 0 0 0 7.544 4.166zM359.367 50.424l8.828-8.828a8.827 8.827 0 0 0-3.898-14.89 8.827 8.827 0 0 0-8.585 2.407l-8.828 8.828a8.827 8.827 0 0 0 3.898 14.89 8.826 8.826 0 0 0 8.585-2.407z" fill="#0088a5" opacity="1" data-original="#000000"></path></g></svg>