<svg width="15" height="15" viewBox="0 0 15 15" fill="none" xmlns="http://www.w3.org/2000/svg">
<path d="M15 2.03233V4.13767H0V2.03233C0.00548037 1.62571 0.177758 1.23779 0.479044 0.953658C0.78033 0.669526 1.18603 0.51238 1.60714 0.516688H2.67857V1.55125C2.67857 1.96283 2.84789 2.35755 3.14929 2.64858C3.45069 2.9396 3.85947 3.1031 4.28571 3.1031C4.71196 3.1031 5.12074 2.9396 5.42214 2.64858C5.72353 2.35755 5.89286 1.96283 5.89286 1.55125V0.516688H9.10714V1.55125C9.10714 1.96283 9.27647 2.35755 9.57786 2.64858C9.87926 2.9396 10.288 3.1031 10.7143 3.1031C11.1405 3.1031 11.5493 2.9396 11.8507 2.64858C12.1521 2.35755 12.3214 1.96283 12.3214 1.55125V0.516688H13.3929C13.814 0.51238 14.2197 0.669526 14.521 0.953658C14.8222 1.23779 14.9945 1.62571 15 2.03233Z" fill="url(#paint0_linear_410_2049)"/>
<path d="M0 5.1709V13.4836C0.00548037 13.8902 0.177758 14.2782 0.479044 14.5623C0.78033 14.8464 1.18603 15.0036 1.60714 14.9993H13.3929C13.814 15.0036 14.2197 14.8464 14.521 14.5623C14.8222 14.2782 14.9945 13.8902 15 13.4836V5.1709H0ZM4.82143 12.4129C4.82102 12.5499 4.76445 12.6813 4.66407 12.7782C4.56369 12.8751 4.42767 12.9297 4.28571 12.9301H3.21429C3.07233 12.9297 2.93631 12.8751 2.83593 12.7782C2.73555 12.6813 2.67898 12.5499 2.67857 12.4129V11.3783C2.67898 11.2412 2.73555 11.1099 2.83593 11.013C2.93631 10.916 3.07233 10.8614 3.21429 10.861H4.28571C4.42767 10.8614 4.56369 10.916 4.66407 11.013C4.76445 11.1099 4.82102 11.2412 4.82143 11.3783V12.4129ZM4.82143 8.79188C4.82102 8.92895 4.76445 9.06029 4.66407 9.15721C4.56369 9.25414 4.42767 9.30876 4.28571 9.30916H3.21429C3.07233 9.30876 2.93631 9.25414 2.83593 9.15721C2.73555 9.06029 2.67898 8.92895 2.67857 8.79188V7.75731C2.67898 7.62024 2.73555 7.4889 2.83593 7.39198C2.93631 7.29505 3.07233 7.24042 3.21429 7.24003H4.28571C4.42767 7.24042 4.56369 7.29505 4.66407 7.39198C4.76445 7.4889 4.82102 7.62024 4.82143 7.75731V8.79188ZM8.57143 12.4129C8.57102 12.5499 8.51445 12.6813 8.41407 12.7782C8.31369 12.8751 8.17767 12.9297 8.03571 12.9301H6.96429C6.82233 12.9297 6.68631 12.8751 6.58593 12.7782C6.48555 12.6813 6.42898 12.5499 6.42857 12.4129V11.3783C6.42898 11.2412 6.48555 11.1099 6.58593 11.013C6.68631 10.916 6.82233 10.8614 6.96429 10.861H8.03571C8.17767 10.8614 8.31369 10.916 8.41407 11.013C8.51445 11.1099 8.57102 11.2412 8.57143 11.3783V12.4129ZM8.57143 8.79188C8.57102 8.92895 8.51445 9.06029 8.41407 9.15721C8.31369 9.25414 8.17767 9.30876 8.03571 9.30916H6.96429C6.82233 9.30876 6.68631 9.25414 6.58593 9.15721C6.48555 9.06029 6.42898 8.92895 6.42857 8.79188V7.75731C6.42898 7.62024 6.48555 7.4889 6.58593 7.39198C6.68631 7.29505 6.82233 7.24042 6.96429 7.24003H8.03571C8.17767 7.24042 8.31369 7.29505 8.41407 7.39198C8.51445 7.4889 8.57102 7.62024 8.57143 7.75731V8.79188ZM12.3214 8.79188C12.321 8.92895 12.2644 9.06029 12.1641 9.15721C12.0637 9.25414 11.9277 9.30876 11.7857 9.30916H10.7143C10.5723 9.30876 10.4363 9.25414 10.3359 9.15721C10.2356 9.06029 10.179 8.92895 10.1786 8.79188V7.75731C10.179 7.62024 10.2356 7.4889 10.3359 7.39198C10.4363 7.29505 10.5723 7.24042 10.7143 7.24003H11.7857C11.9277 7.24042 12.0637 7.29505 12.1641 7.39198C12.2644 7.4889 12.321 7.62024 12.3214 7.75731V8.79188Z" fill="url(#paint1_linear_410_2049)"/>
<path d="M4.82143 0.517283V1.55185C4.82143 1.68904 4.76499 1.82061 4.66452 1.91762C4.56406 2.01463 4.42779 2.06913 4.28571 2.06913C4.14363 2.06913 4.00737 2.01463 3.90691 1.91762C3.80644 1.82061 3.75 1.68904 3.75 1.55185V0.517283C3.75 0.380091 3.80644 0.248518 3.90691 0.151509C4.00737 0.0544992 4.14363 0 4.28571 0C4.42779 0 4.56406 0.0544992 4.66452 0.151509C4.76499 0.248518 4.82143 0.380091 4.82143 0.517283Z" fill="url(#paint2_linear_410_2049)"/>
<path d="M11.2511 0.517283V1.55185C11.2511 1.68904 11.1947 1.82061 11.0942 1.91762C10.9937 2.01463 10.8575 2.06913 10.7154 2.06913C10.5733 2.06913 10.4371 2.01463 10.3366 1.91762C10.2361 1.82061 10.1797 1.68904 10.1797 1.55185V0.517283C10.1797 0.380091 10.2361 0.248518 10.3366 0.151509C10.4371 0.0544992 10.5733 0 10.7154 0C10.8575 0 10.9937 0.0544992 11.0942 0.151509C11.1947 0.248518 11.2511 0.380091 11.2511 0.517283Z" fill="url(#paint3_linear_410_2049)"/>
<defs>
<linearGradient id="paint0_linear_410_2049" x1="3.52837" y1="1.60292" x2="3.65754" y2="4.81175" gradientUnits="userSpaceOnUse">
<stop stop-color="#249ADF" stop-opacity="0.701961"/>
<stop offset="1" stop-color="#14C7A3" stop-opacity="0.701961"/>
</linearGradient>
<linearGradient id="paint1_linear_410_2049" x1="3.52837" y1="8.11944" x2="4.47029" y2="16.7402" gradientUnits="userSpaceOnUse">
<stop stop-color="#249ADF" stop-opacity="0.701961"/>
<stop offset="1" stop-color="#14C7A3" stop-opacity="0.701961"/>
</linearGradient>
<linearGradient id="paint2_linear_410_2049" x1="4.00203" y1="0.620739" x2="4.53788" y2="2.28472" gradientUnits="userSpaceOnUse">
<stop stop-color="#249ADF" stop-opacity="0.701961"/>
<stop offset="1" stop-color="#14C7A3" stop-opacity="0.701961"/>
</linearGradient>
<linearGradient id="paint3_linear_410_2049" x1="10.4317" y1="0.620739" x2="10.9676" y2="2.28472" gradientUnits="userSpaceOnUse">
<stop stop-color="#249ADF" stop-opacity="0.701961"/>
<stop offset="1" stop-color="#14C7A3" stop-opacity="0.701961"/>
</linearGradient>
</defs>
</svg>
