<?xml version="1.0" encoding="UTF-8"?>
<svg id="Layer_1" data-name="Layer 1" xmlns="http://www.w3.org/2000/svg" version="1.1" viewBox="0 0 24 24">
  <defs>
    <style>
      .cls-1 {
        fill: #00adcc;
        stroke-width: 0px;
      }
    </style>
  </defs>
  <path class="cls-1" d="M21.6,11l-.9-1h.4c.6,0,1.2-.5,1.2-1.2v-.4c0-.6-.5-1.2-1.2-1.2h-.3c-.3,0-.5.2-.5.5s.2.5.5.5h.3c0,0,.2,0,.2.2v.4c0,0,0,.2-.2.2h-.7l-.8-2.4c-.5-1.6-1.9-2.6-3.6-2.6H7.9c-1.7,0-3.1,1.1-3.6,2.6l-.8,2.4h-.7c0,0-.2,0-.2-.2v-.4c0,0,0-.2.2-.2h.3c.3,0,.5-.2.5-.5s-.2-.5-.5-.5h-.3c-.6,0-1.2.5-1.2,1.2v.4c0,.6.5,1.2,1.2,1.2h.4l-.9,1c-.5.6-.8,1.4-.8,2.2v2.9c0,.6.3,1.1.9,1.4v1.1c0,.8.7,1.5,1.5,1.5h1.7c.8,0,1.5-.7,1.5-1.5v-.9h9.7v.9c0,.8.7,1.5,1.5,1.5h1.7c.8,0,1.5-.7,1.5-1.5v-1.1c.5-.3.9-.8.9-1.4v-2.9c0-.8-.3-1.6-.8-2.2ZM3.2,11.6l1-1.1c0,0,0-.1,0-.2l.2-.6s0,0,0,0l.9-2.8c.4-1.2,1.4-1.9,2.6-1.9h8.1c1.2,0,2.3.8,2.6,1.9l.9,2.8s0,0,0,0l.2.6c0,0,0,.1.1.2l1,1.1c.4.4.6,1,.6,1.6v1.4h-2.3c-.3,0-.6-.3-.6-.6v-.6c0-.3.3-.6.6-.6h1.2c.3,0,.5-.2.5-.5s-.2-.5-.5-.5h-1.2c-.9,0-1.6.7-1.6,1.6v.6c0,.9.7,1.6,1.6,1.6h2.3v.4c0,.3-.3.6-.6.6h-5.1v-1.7c0-.3-.2-.5-.5-.5h-6.3c-.3,0-.5.2-.5.5v1.7H3.2c-.3,0-.6-.3-.6-.6v-.4h2.3c.9,0,1.6-.7,1.6-1.6v-.6c0-.9-.7-1.6-1.6-1.6h-1.2c-.3,0-.5.2-.5.5s.2.5.5.5h1.2c.3,0,.6.3.6.6v.6c0,.3-.3.6-.6.6h-2.3v-1.4c0-.6.2-1.1.6-1.6h0ZM6.2,18.6c0,.3-.2.5-.5.5h-1.7c-.3,0-.5-.2-.5-.5v-.9h2.7v.9ZM9.4,16.7v-1.2h5.3v1.2h-5.3ZM20.5,18.6c0,.3-.2.5-.5.5h-1.7c-.3,0-.5-.2-.5-.5v-.9h2.7v.9Z"/>
  <path class="cls-1" d="M6,10h12c.3,0,.5-.2.5-.5s-.2-.5-.5-.5H6c-.3,0-.5.2-.5.5s.2.5.5.5Z"/>
  <path class="cls-1" d="M16.1,11.8H7.9c-.3,0-.5.2-.5.5s.2.5.5.5h8.2c.3,0,.5-.2.5-.5s-.2-.5-.5-.5Z"/>
</svg>