<svg width="19" height="19" viewBox="0 0 19 19" fill="none" xmlns="http://www.w3.org/2000/svg">
<g clip-path="url(#clip0_1_1035)">
<path d="M13.7382 7.04543C14.0128 7.32008 14.0128 7.7653 13.7382 8.03983L9.02121 12.7569C8.74655 13.0315 8.30147 13.0315 8.02681 12.7569L5.78134 10.5113C5.50668 10.2368 5.50668 9.7916 5.78134 9.51707C6.05586 9.24242 6.50108 9.24242 6.7756 9.51707L8.52394 11.2654L12.7438 7.04543C13.0184 6.7709 13.4637 6.7709 13.7382 7.04543ZM18.7598 9.90118C18.7598 14.8759 14.7338 18.9012 9.75977 18.9012C4.78502 18.9012 0.759766 14.8752 0.759766 9.90118C0.759766 4.92644 4.78571 0.901184 9.75977 0.901184C14.7345 0.901184 18.7598 4.92712 18.7598 9.90118ZM17.3535 9.90118C17.3535 5.70372 13.9567 2.30743 9.75977 2.30743C5.5623 2.30743 2.16602 5.70427 2.16602 9.90118C2.16602 14.0986 5.56285 17.4949 9.75977 17.4949C13.9572 17.4949 17.3535 14.0981 17.3535 9.90118Z" fill="#004282"/>
</g>
<defs>
<clipPath id="clip0_1_1035">
<rect width="18" height="18" fill="white" transform="translate(0.759766 0.901184)"/>
</clipPath>
</defs>
</svg>
