<svg xmlns="http://www.w3.org/2000/svg" id="Layer_1" data-name="Layer 1" viewBox="0 0 1000 1000" width="300" height="300" version="1.1" xmlns:xlink="http://www.w3.org/1999/xlink" xmlns:svgjs="http://svgjs.dev/svgjs"><g transform="matrix(1,0,0,1,0,0)"><path d="M580.65,214.33l-5.88-15.85-.09-.25L562,164a16.63,16.63,0,0,0-15.54-10.81h-23a36.62,36.62,0,0,1-36.58-36.58A16.58,16.58,0,0,0,470.28,100H389.63a16.58,16.58,0,0,0-16.57,16.57,36.62,36.62,0,0,1-36.58,36.58h-23A16.63,16.63,0,0,0,297.94,164l-12.71,34.27-.09.25-5.88,15.85a16.57,16.57,0,0,0,15.54,22.34H565.11a16.57,16.57,0,0,0,15.54-22.34Zm-172.73-82.6H452a10,10,0,0,1,0,20H407.92a10,10,0,0,1,0-20ZM518.5,204.94H341.41a10,10,0,0,1,0-20H518.5a10,10,0,0,1,0,20Z" fill="#0088a5ff" data-original-color="#000000ff" stroke="none"/><path d="M697,555.55c-71.73,0-130.09,58.36-130.09,130.09S625.28,815.73,697,815.73s130.1-58.36,130.1-130.09S768.75,555.55,697,555.55Zm74.81,105.24-78,78a20,20,0,0,1-28.28,0l-43.34-43.34a20,20,0,0,1,28.27-28.3l29.21,29.21,63.83-63.83a20,20,0,0,1,28.27,0A20,20,0,0,1,771.82,660.79Z" fill="#0088a5ff" data-original-color="#000000ff" stroke="none"/><path d="M371.05,568.34H603.48A149.2,149.2,0,0,1,687,535.89V238a33.15,33.15,0,0,0-33.11-33.12H598.48l.92,2.47a36.58,36.58,0,0,1-34.29,49.29H294.8a36.58,36.58,0,0,1-34.3-49.29l.92-2.47H206A33.16,33.16,0,0,0,172.89,238V866.87A33.16,33.16,0,0,0,206,900H653.9A33.15,33.15,0,0,0,687,866.87V835.39A149.23,149.23,0,0,1,603.49,803H371.05a10,10,0,1,1,0-20H582.83a149.31,149.31,0,0,1-35.57-87.31H371.05a10,10,0,0,1,0-20H547.26a149.3,149.3,0,0,1,35.56-87.3H371.05a10,10,0,0,1,0-20Zm-53.43,207.3-48.75,48.75a10,10,0,0,1-14.14,0l-25.1-25.1a10,10,0,1,1,14.14-14.15l18,18,41.67-41.67a10,10,0,1,1,14.15,14.14Zm0-107.3-48.75,48.74a10,10,0,0,1-14.14,0L229.63,692a10,10,0,0,1,14.14-14.14l18,18,41.67-41.67a10,10,0,1,1,14.15,14.14Zm0-107.3-48.75,48.74a10,10,0,0,1-14.14,0l-25.1-25.1a10,10,0,0,1,14.14-14.15l18,18,41.67-41.67A10,10,0,1,1,317.62,561Zm0-107.31-48.75,48.74a10,10,0,0,1-14.14,0l-25.1-25.1a10,10,0,1,1,14.14-14.14l18,18,41.67-41.67a10,10,0,1,1,14.15,14.14Zm0-107.3-48.75,48.74a10,10,0,0,1-14.14,0l-25.1-25.1a10,10,0,1,1,14.14-14.15l18,18,41.67-41.67a10,10,0,0,1,14.15,14.15Zm53.43,7.3H623.21a10,10,0,0,1,0,20H371.05a10,10,0,1,1,0-20Zm-10,117.3a10,10,0,0,1,10-10H623.21a10,10,0,0,1,0,20H371.05A10,10,0,0,1,361.05,471Z" fill="#0088a5ff" data-original-color="#000000ff" stroke="none"/></g></svg>