<svg fill="none" height="25" viewBox="0 0 24 25" width="24" xmlns="http://www.w3.org/2000/svg" xmlns:xlink="http://www.w3.org/1999/xlink"><linearGradient id="paint0_linear_2_4242" gradientUnits="userSpaceOnUse" x1="12" x2="12" y1="2.5" y2="22.5"><stop offset="0" stop-color="#63d27f"/><stop offset="1" stop-color="#409254"/></linearGradient><path clip-rule="evenodd" d="m22 12.5c0 5.5228-4.4772 10-10 10-5.52285 0-10-4.4772-10-10 0-5.52285 4.47715-10 10-10 5.5228 0 10 4.47715 10 10zm-5.9697-3.03033c.2929.29289.2929.76773 0 1.06063l-5 5c-.2929.2929-.7677.2929-1.06063 0l-2-2c-.29289-.2929-.29289-.7677 0-1.0606s.76777-.2929 1.06066 0l1.46967 1.4696 2.2348-2.2348 2.2349-2.23483c.2929-.29289.7677-.29289 1.0606 0z" fill="url(#paint0_linear_2_4242)" fill-rule="evenodd"/></svg>