<?xml version="1.0" encoding="UTF-8"?>
<svg id="Layer_1" data-name="Layer 1" xmlns="http://www.w3.org/2000/svg" version="1.1" viewBox="0 0 35 35">
  <defs>
    <style>
      .cls-1 {
        fill: #004282;
        stroke-width: 0px;
      }
    </style>
  </defs>
  <g id="Cancel">
    <path class="cls-1" d="M29,3.9h-2.8v-.2c0-.5-.4-1-1-1s-1,.4-1,1v.2h-5.7v-.2c0-.5-.4-1-1-1s-1,.4-1,1v.2h-5.7v-.2c0-.5-.4-1-1-1s-1,.4-1,1v.2h-2.8c-2.7,0-4.9,2.2-4.9,4.9v18.5c0,2.7,2.2,4.9,4.9,4.9h22.9c2.7,0,4.9-2.2,4.9-4.9V8.8c0-2.7-2.2-4.9-4.9-4.9ZM31.9,27.3c0,1.6-1.3,2.9-2.9,2.9H6c-1.6,0-2.9-1.3-2.9-2.9V8.8c0-1.6,1.3-2.9,2.9-2.9h2.8v.2c0,.5.4,1,1,1s1-.4,1-1v-.2h5.7v.2c0,.5.4,1,1,1s1-.4,1-1v-.2h5.7v.2c0,.5.4,1,1,1s1-.4,1-1v-.2h2.8c1.6,0,2.9,1.3,2.9,2.9v18.5h0Z"/>
    <path class="cls-1" d="M17.5,11.6c-1.9,0-3.6.7-5,2.1s-2.1,3.1-2.1,5,.7,3.6,2.1,5,3.1,2.1,5,2.1,3.6-.7,5-2.1c1.3-1.3,2.1-3.1,2.1-5s-.7-3.6-2.1-5c-1.3-1.3-3.1-2.1-5-2.1ZM21.1,22.2c-1,1-2.2,1.5-3.6,1.5s-2.6-.5-3.6-1.5c-1-1-1.5-2.2-1.5-3.6s.5-2.6,1.5-3.6c1-1,2.2-1.5,3.6-1.5s2.6.5,3.6,1.5c1,1,1.5,2.2,1.5,3.6s-.5,2.6-1.5,3.6Z"/>
    <path class="cls-1" d="M19.7,16.5c-.4-.4-1-.4-1.4,0l-.8.8-.8-.8c-.4-.4-1-.4-1.4,0s-.4,1,0,1.4l.8.8-.8.8c-.4.4-.4,1,0,1.4.2.2.4.3.7.3s.5,0,.7-.3l.8-.8.8.8c.2.2.4.3.7.3s.5,0,.7-.3c.4-.4.4-1,0-1.4l-.8-.8.8-.8c.4-.4.4-1,0-1.4Z"/>
  </g>
</svg>