<svg width="15" height="15" viewBox="0 0 15 15" fill="none" xmlns="http://www.w3.org/2000/svg">
<path d="M7.49989 7.10526C9.69278 7.10526 11.4705 5.5147 11.4705 3.55263C11.4705 1.59057 9.69278 0 7.49989 0C5.30699 0 3.5293 1.59057 3.5293 3.55263C3.5293 5.5147 5.30699 7.10526 7.49989 7.10526Z" fill="url(#paint0_linear_410_2043)"/>
<path fill-rule="evenodd" clip-rule="evenodd" d="M15 13.8166V14.606C15 14.8239 14.8024 15.0008 14.5588 15.0008H0.441176C0.197647 15.0008 0 14.8239 0 14.606V13.8166C0 12.2463 0.697061 10.74 1.93809 9.62959C3.17912 8.51919 4.86265 7.89551 6.61765 7.89551H8.38235C10.1374 7.89551 11.8209 8.51919 13.0619 9.62959C14.3029 10.74 15 12.2463 15 13.8166Z" fill="url(#paint1_linear_410_2043)"/>
<defs>
<linearGradient id="paint0_linear_410_2043" x1="5.39726" y1="2.13158" x2="6.31771" y2="8.30081" gradientUnits="userSpaceOnUse">
<stop stop-color="#249ADF" stop-opacity="0.701961"/>
<stop offset="1" stop-color="#14C7A3" stop-opacity="0.701961"/>
</linearGradient>
<linearGradient id="paint1_linear_410_2043" x1="3.52837" y1="10.0271" x2="4.02343" y2="16.2946" gradientUnits="userSpaceOnUse">
<stop stop-color="#249ADF" stop-opacity="0.701961"/>
<stop offset="1" stop-color="#14C7A3" stop-opacity="0.701961"/>
</linearGradient>
</defs>
</svg>
