<?xml version="1.0" encoding="UTF-8"?>
<svg id="Layer_1" data-name="Layer 1" xmlns="http://www.w3.org/2000/svg" version="1.1" viewBox="0 0 512 512">
  <defs>
    <style>
      .cls-1 {
        fill: #0887a9;
      }

      .cls-1, .cls-2 {
        stroke-width: 0px;
      }

      .cls-2 {
        fill: #757984;
      }
    </style>
  </defs>
  <path class="cls-2" d="M420.5,282.5l-20.7-61.3c-1.5-4.4-6.2-6.7-10.6-5.2-4.4,1.5-6.7,6.2-5.2,10.6l18.1,53.4-311.5,105.4L19,173.8l256.2-86.7,72.5,32.2,19.8,58.4c1.5,4.4,6.2,6.7,10.6,5.2,4.4-1.5,6.7-6.2,5.2-10.6l-20.9-61.9c-.8-2.2-2.4-4-4.5-5l-78.8-35c-1.9-.9-4.1-1-6.1-.3L5.7,160.7c-4.4,1.5-6.7,6.2-5.2,10.6l76.9,227.3c1.2,3.5,4.4,5.7,7.9,5.7s1.8-.1,2.7-.4l327.3-110.7c2.1-.7,3.8-2.2,4.8-4.2,1-2,1.1-4.3.4-6.4Z"/>
  <path class="cls-1" d="M158.7,208.8c-5.2-15.4-19.6-25.7-35.8-25.7s-8.2.7-12.1,2c-9.6,3.2-17.3,10-21.8,19.1-4.5,9.1-5.2,19.3-1.9,28.9,5.2,15.4,19.6,25.7,35.8,25.7s8.2-.7,12.1-2c9.6-3.2,17.3-10,21.8-19.1,4.5-9.1,5.2-19.3,1.9-28.9ZM141.8,230.3c-2.5,5.1-6.8,8.8-12.1,10.6-2.2.7-4.5,1.1-6.8,1.1-9,0-17.1-5.8-20-14.3-1.8-5.3-1.4-11.1,1.1-16.1,2.5-5.1,6.8-8.8,12.1-10.6,2.2-.7,4.5-1.1,6.8-1.1,9,0,17.1,5.8,20,14.3,1.8,5.3,1.4,11.1-1.1,16.1Z"/>
  <path class="cls-1" d="M341.6,211.1c-1.5-4.4-6.2-6.7-10.6-5.2l-90.5,30.6c-4.4,1.5-6.7,6.2-5.2,10.6,1.2,3.5,4.4,5.7,7.9,5.7s1.8-.1,2.7-.4l90.5-30.6c4.4-1.5,6.7-6.2,5.2-10.6Z"/>
  <path class="cls-1" d="M354.6,249.6c-1.5-4.4-6.2-6.7-10.6-5.2l-217.3,73.5c-4.4,1.5-6.7,6.2-5.2,10.6,1.2,3.5,4.4,5.7,7.9,5.7s1.8-.1,2.7-.4l217.3-73.5c4.4-1.5,6.7-6.2,5.2-10.6Z"/>
  <path class="cls-2" d="M511.9,390l-8.1-64.8c-.6-4.6-4.8-7.8-9.3-7.3-4.6.6-7.8,4.8-7.3,9.3l7.1,56.5-325.6,40.7-1.1-8.9c-.6-4.6-4.8-7.8-9.3-7.3-4.6.6-7.8,4.8-7.3,9.3l2.1,17.2c.3,2.2,1.4,4.2,3.2,5.6,1.5,1.1,3.3,1.8,5.1,1.8s.7,0,1,0l342.2-42.8c4.6-.6,7.8-4.8,7.3-9.3Z"/>
  <path class="cls-2" d="M497.5,274.2l-8.1-64.5c-.3-2.3-1.5-4.4-3.4-5.8l-70.2-50.3c-3.8-2.7-9-1.8-11.7,1.9s-1.8,9,1.9,11.7l67.3,48.1,7.6,60.9c.5,4.2,4.1,7.3,8.3,7.3s.7,0,1,0c4.6-.6,7.8-4.8,7.3-9.3Z"/>
</svg>