<svg fill="none" height="300" viewBox="0 0 24 24" width="300" xmlns="http://www.w3.org/2000/svg" version="1.1" xmlns:xlink="http://www.w3.org/1999/xlink" xmlns:svgjs="http://svgjs.dev/svgjs"><g transform="matrix(1,0,0,1,0,0)"><path clip-rule="evenodd" d="m4 1c-1.65685 0-3 1.34315-3 3v16c0 1.6569 1.34315 3 3 3h16c1.6569 0 3-1.3431 3-3v-16c0-1.65685-1.3431-3-3-3zm11 7c0 2.2091-1.7909 4-4 4-2.20914 0-4-1.7909-4-4 0-2.20914 1.79086-4 4-4 2.2091 0 4 1.79086 4 4zm-3.7353 5.0049c-.0878-.0033-.1761-.0049-.2647-.0049-3.86599 0-7 3.134-7 7h7v-6c0-.3623.0963-.702.2647-.9951zm8.7353 1.0906c0 .605-1.6349 1.0955-3.6517 1.0955s-3.6517-.4905-3.6517-1.0955 1.6349-1.0955 3.6517-1.0955 3.6517.4905 3.6517 1.0955zm-7.3034 1.8258c2.191 1.0955 5.1124 1.0955 7.3034 0v1.4607c-1.8258 1.0955-5.1124 1.0955-7.3034 0zm7.3034 2.9214c-2.191 1.0955-5.1124 1.0955-7.3034 0v1.4606c2.191 1.0955 5.4776 1.0955 7.3034 0z" fill="#0088a5" fill-rule="evenodd" fill-opacity="1" data-original-color="#000000ff" stroke="none" stroke-opacity="1"/></g></svg>