<?xml version="1.0" encoding="UTF-8"?>
<svg id="Layer_1" data-name="Layer 1" xmlns="http://www.w3.org/2000/svg" version="1.1" viewBox="0 0 512 512">
  <defs>
    <style>
      .cls-1 {
        fill: #004282;
        stroke-width: 0px;
      }

      .cls-2 {
        fill: #fff;
        font-family: Montserrat-Bold, Montserrat;
        font-size: 119.5px;
        font-weight: 700;
      }
    </style>
  </defs>
  <g id="Layer_36" data-name="Layer 36">
    <path class="cls-1" d="M449,251h-23V41c0-4.4-3.6-8-8-8H94c-4.4,0-8,3.6-8,8v210.1h-23c-4.5,0-8,3.5-8,8v153.9c0,4.5,3.5,8,8,8h23v50.1c0,4.4,3.6,8,8,8h324c4.4,0,8-3.6,8-8v-50.1h23c4.5,0,8-3.5,8-8v-153.9c0-4.5-3.5-8-8-8h0ZM410,463H102v-42.1h308v42.1ZM410,251H102V49h308v202.1Z"/>
    <path class="cls-1" d="M190.6,318.8c0,2.1-.6,3.9-1.6,5.5s-2.6,2.7-4.5,3.4c-1.4.6-4.8,1.3-13,1.3h-7.5v-20.4h6.4c6.1,0,10.2.2,12.1.6,2.4.4,4.3,1.4,5.8,3.2,1.5,1.6,2.2,3.8,2.2,6.4h0Z"/>
    <path class="cls-1" d="M276.8,335.1c0,6.4-.6,11.5-1.7,15.1-1,3.5-2.4,6-4,7.4-1.6,1.4-3.6,2.5-6.2,3.1-1.9.5-5.3.7-9.9.7h-11v-52.9h5.8c6.9,0,11.5.2,13.8.8,2.9.6,5.2,1.8,7,3.5,1.8,1.8,3.4,4.2,4.4,7.4,1.1,3.3,1.7,8.3,1.7,14.7h0Z"/>
    <path class="cls-1" d="M374,107h-236c-4.4,0-8-3.6-8-8s3.6-8,8-8h236c4.4,0,8,3.6,8,8s-3.6,8-8,8Z"/>
    <path class="cls-1" d="M374,163h-236c-4.4,0-8-3.6-8-8s3.6-8,8-8h236c4.4,0,8,3.6,8,8s-3.6,8-8,8Z"/>
    <path class="cls-1" d="M374,219h-236c-4.4,0-8-3.6-8-8s3.6-8,8-8h236c4.4,0,8,3.6,8,8s-3.6,8-8,8Z"/>
  </g>
  <text class="cls-2" transform="translate(127 376.6)"><tspan x="0" y="0">CSV</tspan></text>
</svg>