<?xml version="1.0" encoding="UTF-8"?>
<svg id="Capa_1" data-name="Capa 1" xmlns="http://www.w3.org/2000/svg" version="1.1" xmlns:svgjs="http://svgjs.dev/svgjs" viewBox="0 0 300 300">
  <defs>
    <style>
      .cls-1 {
        stroke: #00adcc;
      }

      .cls-1, .cls-2 {
        fill: none;
        stroke-linecap: round;
        stroke-linejoin: round;
        stroke-width: 8.8px;
      }

      .cls-2 {
        stroke: #757984;
      }
    </style>
  </defs>
  <path class="cls-2" d="M177.8,16.1h37.6c19.4,0,35.2,15.7,35.2,35.2v85.2"/>
  <path class="cls-2" d="M249.4,269c-3.8,15.3-17.6,26.6-34.1,26.6H39.6c-19.4,0-35.2-15.7-35.2-35.2V51.3c0-19.4,15.7-35.2,35.2-35.2h36.4"/>
  <line class="cls-1" x1="80.6" y1="219.4" x2="130" y2="219.4"/>
  <line class="cls-1" x1="63" y1="242.9" x2="141.7" y2="242.9"/>
  <g>
    <path class="cls-1" d="M203.3,175.3h0Z"/>
    <line class="cls-1" x1="203.3" y1="192.8" x2="203.3" y2="219.6"/>
  </g>
  <path class="cls-2" d="M187,272.2H39.6c-6.5,0-11.7-5.3-11.7-11.7V51.3c0-6.5,5.3-11.7,11.7-11.7h36.8"/>
  <path class="cls-2" d="M176.9,39.6h38.4c6.5,0,11.7,5.3,11.7,11.7v72.9"/>
  <path class="cls-1" d="M79,99.8c-9.7,9.2-15.6,20.4-15.6,30.5s.4,4.9,1,7.3"/>
  <path class="cls-1" d="M190.2,121.7c-2.6-9-9.2-18.1-18.3-25.5-2.1-1.7-4-3.5-5.7-5.5-6.2-7.1-14.3-12.5-23.5-15.3-4.5-1.4-9.2-.5-13.1,2-.6.4-1.3.6-2,.6s-1.4-.2-2-.6c-3.9-2.5-8.7-3.4-13.1-2-6.9,2.1-13.1,5.6-18.4,10.2"/>
  <path class="cls-1" d="M80.7,158.9c-2.1,1.4-4.6,2.3-7.3,2.3-7.2,0-13-5.8-13-13s5.8-13,13-13,3.5.4,5.1,1"/>
  <path class="cls-1" d="M169.7,128.6c-1.2-2.1-2.2-4.5-2.7-7.1,0,0,0,0,0-.1-.7-3.3-3.4-5.8-6.7-6.3-3.9-.5-8,.3-11.6,2.7-5.7,3.7-13.1,6-21.3,6s-15.6-2.3-21.3-6c-3.9-2.5-8.3-3.3-12.4-2.5-3.2.6-5.6,3-6.3,6.2,0,0,0,0,0,0-1,4.7-3.3,8.8-6.3,11.6-1.8,1.7-2.8,4-2.9,6.5,0,.8,0,1.5,0,2.3-.2,27.2,21.9,49.5,48.9,49.7"/>
  <path class="cls-1" d="M268.6,237.9l21.9,21.9c6.9,6.9,6.9,18,0,24.9h0c-6.9,6.9-18,6.9-24.9,0l-21.8-21.8"/>
  <path class="cls-2" d="M156.1,4.4h-58.6c-12.9,0-23.4,10.5-23.4,23.4h0c0,12.9,10.5,23.4,23.4,23.4h58.6c12.9,0,23.4-10.5,23.4-23.4h0c0-12.9-10.5-23.4-23.4-23.4Z"/>
  <path class="cls-1" d="M203.3,121.2h0c-42.1,0-76.2,34.1-76.2,76.2s34.1,76.2,76.2,76.2h0c42.1,0,76.2-34.1,76.2-76.2,0-42.1-34.1-76.2-76.2-76.2Z"/>
  <path class="cls-1" d="M249,187.2c-3.4-15.1-14.1-27.5-28.2-33.2-5.4-2.2-11.4-3.4-17.6-3.4-25.8,0-46.9,21-46.9,46.9s21,46.9,46.9,46.9,12.1-1.2,17.6-3.4c0,0,0,0,0,0h0c14.1-5.7,24.7-18,28.2-33.1"/>
</svg>