<svg width="24" height="33" viewBox="0 0 24 33" fill="none" xmlns="http://www.w3.org/2000/svg">
<path d="M4.16638 13.1428L1.35464 10.1736C0.944833 9.74085 0.944781 9.06324 1.35452 8.63042C1.79727 8.16273 2.54195 8.16278 2.98463 8.63055L5.7109 11.5113H22.3599C22.5301 11.5113 22.698 11.5533 22.8502 11.634C23.0023 11.7147 23.1345 11.8319 23.2361 11.9762C23.3378 12.1204 23.4061 12.2878 23.4357 12.4649C23.4652 12.6421 23.4551 12.824 23.4063 12.9963L20.7847 22.2271C20.7173 22.4649 20.5791 22.6733 20.3906 22.8215C20.202 22.9697 19.9733 23.0498 19.7383 23.0498H6.35099V25.3575H17.2125C17.8498 25.3575 18.3664 25.8741 18.3664 26.5113C18.3664 27.1486 17.8498 27.6651 17.2125 27.6651H5.25869C4.96899 27.6651 4.69115 27.5436 4.48631 27.3272C4.28146 27.1108 4.16638 26.8173 4.16638 26.5113V13.1428ZM6.35099 13.819V20.7421H18.9256L20.8918 13.819H6.35099ZM5.80484 32.2805C5.37029 32.2805 4.95354 32.0982 4.64627 31.7736C4.339 31.449 4.16638 31.0088 4.16638 30.5498C4.16638 30.0907 4.339 29.6505 4.64627 29.3259C4.95354 29.0013 5.37029 28.819 5.80484 28.819C6.23939 28.819 6.65614 29.0013 6.96341 29.3259C7.27068 29.6505 7.4433 30.0907 7.4433 30.5498C7.4433 31.0088 7.27068 31.449 6.96341 31.7736C6.65614 32.0982 6.23939 32.2805 5.80484 32.2805ZM18.9125 32.2805C18.478 32.2805 18.0612 32.0982 17.754 31.7736C17.4467 31.449 17.2741 31.0088 17.2741 30.5498C17.2741 30.0907 17.4467 29.6505 17.754 29.3259C18.0612 29.0013 18.478 28.819 18.9125 28.819C19.3471 28.819 19.7638 29.0013 20.0711 29.3259C20.3784 29.6505 20.551 30.0907 20.551 30.5498C20.551 31.0088 20.3784 31.449 20.0711 31.7736C19.7638 32.0982 19.3471 32.2805 18.9125 32.2805Z" fill="#04103B"/>
<path d="M11.4143 4.85822L14.1201 2.00001L16.8258 4.85822" stroke="#04103B" stroke-width="2" stroke-linecap="round" stroke-linejoin="round"/>
<path d="M14.1119 2.00874V9.73485" stroke="#04103B" stroke-width="2" stroke-linecap="round" stroke-linejoin="round"/>
</svg>
