<svg width="26" height="27" viewBox="0 0 26 27" fill="none" xmlns="http://www.w3.org/2000/svg">
<path d="M1.62402 25.2308C1.62402 22.7827 2.54468 20.4348 4.18346 18.7037C5.82224 16.9726 8.0449 16.0001 10.3625 16.0001C12.6801 16.0001 14.9027 16.9726 16.5415 18.7037C18.1803 20.4348 19.1009 22.7827 19.1009 25.2308H1.62402ZM10.3625 14.8462C6.74148 14.8462 3.80864 11.7481 3.80864 7.92314C3.80864 4.09814 6.74148 1.00006 10.3625 1.00006C13.9835 1.00006 16.9163 4.09814 16.9163 7.92314C16.9163 11.7481 13.9835 14.8462 10.3625 14.8462Z" stroke="#04103B" stroke-width="2" stroke-linecap="round" stroke-linejoin="round"/>
<path d="M18.0085 2.15393C20.7243 2.15393 22.9239 4.95695 22.9239 8.41767C22.9239 11.8784 20.7243 14.5715 18.0085 14.5715C19.7467 14.5715 21.4137 15.4514 22.6428 17.0177C23.8719 18.5839 24.5624 20.7082 24.5624 22.9232H21.7536" stroke="#04103B" stroke-width="2" stroke-linecap="round" stroke-linejoin="round"/>
</svg>
