<svg xmlns="http://www.w3.org/2000/svg" version="1.1" xmlns:xlink="http://www.w3.org/1999/xlink" width="512" height="512" x="0" y="0" viewBox="0 0 512 512" style="enable-background:new 0 0 512 512" xml:space="preserve" class=""><g><path fill-rule="evenodd" d="m213.1 233.558 19.756 11.406-69.734 40.261v31.708l20.223 11.675V296.9l69.734-40.261 19.756 11.406a9.766 9.766 0 0 1 5 8.66v68.976a9.767 9.767 0 0 1-5 8.66l-38.226 22.07c-1.629-9.482-10.569-20.412-20.38-21.785-18.694-3.409-37.474-10.2-52.234-15.534-7.376-2.667-15.82-6.234-23.629-7v-55.386a9.767 9.767 0 0 1 5-8.66l59.734-34.488a9.764 9.764 0 0 1 10 0zM110.3 106.834h83.946a8 8 0 1 1 0 16H110.3l3.78 2.951a7.971 7.971 0 0 1-9.813 12.563l-21.948-17.14a7.976 7.976 0 0 1-.119-12.655l22.067-17.233a7.97 7.97 0 1 1 9.813 12.562zm277.705 193.409a7.971 7.971 0 0 1 9.813-12.563l22.067 17.233a7.976 7.976 0 0 1-.119 12.655l-21.948 17.14a7.971 7.971 0 0 1-9.813-12.563l3.78-2.951h-83.946a8 8 0 0 1 0-16h83.946zm73.07-143.668-51.831 91.581a9.279 9.279 0 0 0 3.495 12.608l17.63 9.978a9.279 9.279 0 0 0 12.608-3.5l51.831-91.582a9.278 9.278 0 0 0-3.5-12.607l-17.63-9.978a9.278 9.278 0 0 0-12.608 3.495zM472.96 170.3a6.295 6.295 0 1 1-7.138 5.318 6.295 6.295 0 0 1 7.138-5.318zm-34.494-6.263-35.256-20.41c-20.431-11.829-26.024-10.47-47.775-2.606-15.2 5.494-34.513 12.477-54.521 16.159-5.412 1.942-9.114 7.337-7.563 13.128 1.764 6.584 6.883 8.27 13.183 7.5 9.315-1.934 18.667-4.605 28.315-7.361 4.607-1.315 9.285-2.651 14.437-4.032a7.99 7.99 0 0 1 4.125 15.438c-4.642 1.243-9.45 2.617-14.187 3.97-15.011 4.286-39.773 12.013-56.46 9.211a49.752 49.752 0 0 1-16.951-6.192L199.6 150.281c-7.919-4.612-29.206-15.342-36.308-3.9-3 4.833-2.495 13.763 2.582 16.889l119.591 73.638c10.859 5.535 17.672 7.743 29.992 4.441l87.158-23.329a7.944 7.944 0 0 1 5.107.336l30.741-54.316zM312.089 26.992a87.842 87.842 0 0 1 87.842 87.842 88.829 88.829 0 0 1-.452 8.965 65.772 65.772 0 0 0-9.987-3.457q-1.24-.314-2.487-.567.159-2.45.16-4.941a75.076 75.076 0 1 0-131.313 49.737l-24.022-13.992a87.877 87.877 0 0 1 80.259-123.587zm27.123 64.371a27.815 27.815 0 0 0-19.123-16.5v-2.475a8 8 0 1 0-16 0v2.585c-11.362 3.038-19.845 12.186-19.249 24.458.712 14.7 13.151 20.922 26.029 23.036 5.2.854 13.907 2.6 14.683 9.006.053.434.08.695.082.79a4.922 4.922 0 0 1-.5 2.316c-5.556 1.742-11.3 3.388-17.112 4.79-4.515-1.008-8.529-3.682-9.7-8.4a7.981 7.981 0 0 0-15.5 3.812 26.015 26.015 0 0 0 5.738 11.024 27.359 27.359 0 0 0-11.06 16.925 59.078 59.078 0 1 1 93.667-47.9q0 2.286-.172 4.529c-6.811 1.1-14.49 4.305-21 6.658-2.747.993-5.633 2.036-8.632 3.1-2.047-14.712-14.872-20.258-27.933-22.4-4.432-.728-12.381-2.376-12.655-8.036-.237-4.887 4.06-7.667 8.347-8.53 6.276-1.264 12.754 1.244 15.338 7.4a8 8 0 0 0 14.75-6.188zM50.925 369.648l51.83 91.582a9.277 9.277 0 0 1-3.495 12.607l-17.629 9.978a9.279 9.279 0 0 1-12.608-3.494l-51.831-91.582a9.279 9.279 0 0 1 3.5-12.608l17.63-9.977a9.279 9.279 0 0 1 12.608 3.494zm-11.886 13.728a6.294 6.294 0 1 0 7.139 5.318 6.295 6.295 0 0 0-7.139-5.318zm34.494-6.263 30.741 54.316a7.938 7.938 0 0 1 5.107-.336l87.158 23.328c12.322 3.3 19.131 1.1 29.992-4.44l119.591-73.639c5.073-3.123 5.578-12.065 2.6-16.9-7.094-11.429-28.421-.692-36.323 3.91l-66.21 38.564a49.737 49.737 0 0 1-16.951 6.192c-16.686 2.8-41.458-4.928-56.467-9.214-4.735-1.352-9.541-2.725-14.179-3.968a7.989 7.989 0 0 1 4.125-15.437c5.151 1.38 9.825 2.715 14.429 4.03 9.651 2.756 19 5.427 28.322 7.363 6.3.766 11.42-.919 13.184-7.5 1.553-5.8-2.134-11.184-7.563-13.128-20.009-3.683-39.325-10.666-54.524-16.161-21.371-7.726-26.668-9.611-47.773 2.608z" fill="#0088a5" opacity="1" data-original="#000000" class=""></path></g></svg>