<?xml version="1.0" encoding="UTF-8"?>
<svg id="Layer_1" data-name="Layer 1" xmlns="http://www.w3.org/2000/svg" version="1.1" viewBox="0 0 512 512">
  <defs>
    <style>
      .cls-1 {
        fill: #00adcc;
        fill-rule: evenodd;
      }

      .cls-1, .cls-2 {
        stroke-width: 0px;
      }

      .cls-2 {
        fill: #757984;
      }
    </style>
  </defs>
  <path class="cls-2" d="M499.4,286.7l-72.1-39.9,67.5-39c2.2-1.3,3.5-3.6,3.5-6.1,0-2.5-1.4-4.8-3.6-6.1l-32.6-18.1c-2.2-1.2-4.8-1.2-6.9,0l-16.3,9.4c0-.4.1-.7.2-1.1,4.1-23.8-3.6-48.2-20.6-65.2-14-14-32.6-21.7-52.5-21.7s-38.5,7.7-52.5,21.7c-13.5,13.5-21.1,31.6-21.6,50.4l-32.6-18c-2.1-1.2-4.7-1.2-6.8,0l-42.9,23.8c-.3.2-.7.4-1,.7l-1.6-.9c11.1-17.5,20.2-35.3,22.8-50.1,4.1-23.8-3.6-48.2-20.6-65.2-14-14-32.6-21.6-52.5-21.6s-38.5,7.7-52.5,21.6c-11.8,11.9-19.2,27.3-21.1,43.7l-18.4-10.6c-2.2-1.3-4.8-1.2-7,0l-32,18.5c-2.2,1.3-3.5,3.6-3.5,6.1s1.3,4.8,3.5,6.1l76,43.9c10.2,17.2,22.9,34.7,33.5,49.3h0S12.6,286.7,12.6,286.7c-2.2,1.2-3.6,3.6-3.6,6.1s1.4,4.9,3.6,6.1l45.5,25.3-41.1,23.7c-2.2,1.3-3.5,3.6-3.5,6.1,0,2.5,1.4,4.8,3.6,6.1l32.6,18.1c1.1.6,2.2.9,3.4.9s2.4-.3,3.5-.9l48.4-27.9,147.6,82.1c1.1.6,2.2.9,3.4.9s2.3-.3,3.4-.9l62.5-34.8,127.4,73.5c1.1.6,2.3.9,3.5.9s2.3-.3,3.4-.9l32.6-18.1c2.2-1.2,3.6-3.5,3.6-6.1s-1.3-4.9-3.5-6.1l-120.1-69.3,130.7-72.7c2.2-1.2,3.6-3.6,3.6-6.1s-1.4-4.9-3.6-6.1ZM458.8,191.6l18.3,10.2-61.8,35.7c6.5-10.3,12.5-20.7,16.9-30.5l26.6-15.3ZM323.5,130.7c11.3-11.3,26.5-17.6,42.6-17.6s31.3,6.2,42.6,17.6c13.8,13.8,20,33.5,16.7,52.9-4.1,23.9-31.2,61.2-49.2,85.9-3.7,5.1-7.1,9.8-10.1,14-1.6-2.2-3.3-4.6-5.1-7.1,0-.1-.2-.2-.2-.3-1.5-2.1-3.2-4.4-4.8-6.7-17.9-24.7-45-62-49.1-85.8-3.3-19.4,2.9-39.1,16.7-52.9h0ZM43.4,119.1l18-10.4,21.7,12.5c.2,1.8.4,3.6.7,5.5,1,6,3.2,12.5,6.1,19.3l-46.5-26.8h0ZM97.6,124.3c-3.3-19.3,2.9-39.1,16.7-52.9,11.3-11.3,26.4-17.5,42.6-17.5s31.3,6.2,42.6,17.5c13.8,13.8,20,33.6,16.7,52.9-3.6,21.1-25.3,52.9-42.7,77,0,0,0,.1-.1.2-2.2,3-4.3,5.9-6.3,8.6-3.7,5.1-7.2,9.9-10.1,14.1-1.7-2.4-3.5-4.9-5.4-7.6,0,0,0,0,0,0-1.5-2.1-3.1-4.2-4.7-6.5-17.9-24.7-45.1-62-49.1-85.8h0ZM30.4,292.8l113.3-63c2.9,4.1,5.4,7.7,7.3,10.7,1.3,2,3.5,3.3,5.9,3.3s4.6-1.2,5.9-3.3c3.5-5.6,9.1-13.2,15.5-22.1.9-1.2,1.8-2.4,2.6-3.6l33.4,19.3-142.2,82.1-41.9-23.3h0ZM53.1,364.1l-18.3-10.2,40.8-23.6c.2,0,.4-.2.5-.3l155.8-90c2.2-1.2,3.5-3.6,3.5-6.1s-1.3-4.8-3.5-6.1l-42.7-24.7c3.4-4.8,6.9-9.8,10.3-14.8l78.9,45.6-176.9,102.2c-.1,0-.2.1-.4.2l-48.1,27.8h0ZM256,418.3l-136.9-76.1,176.8-102.1c2.2-1.2,3.5-3.6,3.5-6.1s-1.3-4.8-3.5-6.1l-73.2-42.2,33.2-18.4,35.2,19.5c.7.4,1.4.6,2.1.7,3.8,19,18.1,42.7,33,64.4l-117.9,68.1c-2.2,1.3-3.5,3.6-3.5,6.1s1.3,4.8,3.5,6.1l99.3,57.3-51.8,28.8h0ZM452.8,457.1l-127-73.3c-.2-.2-.5-.3-.7-.4l-99.1-57.2,108.5-62.6c3.5,4.9,6.9,9.6,10.2,14.1.1.2.3.4.4.5l-72.6,41.9c-2.2,1.3-3.5,3.6-3.5,6.1s1.3,4.8,3.5,6.1l198.8,114.7-18.3,10.2h0ZM354.6,363.5l-64.7-37.3,63.3-36.6c2.7,3.9,5.1,7.3,6.9,10.1,1.3,2,3.5,3.3,5.9,3.3h0c2.4,0,4.6-1.2,5.9-3.3,3.5-5.6,9.1-13.2,15.5-22,3.1-4.3,6.4-8.8,9.8-13.5l15.9-9.2,68.4,37.9-127,70.6Z"/>
  <path id="path31555" class="cls-1" d="M125.5,81c-2.4,0-4.4,2-4.4,4.4v62.1c0,2.4,2,4.4,4.4,4.4h31c2.4,0,4.4-2,4.4-4.4v-26.6h4.4v8.9c0,7.3,6,13.3,13.3,13.3s13.3-6,13.3-13.3v-26.6c0-2.4-2-4.4-4.4-4.4s-4.4,2-4.4,4.4v26.6c0,2.5-1.9,4.4-4.4,4.4s-4.4-1.9-4.4-4.4v-13.3c0-2.4-2-4.4-4.4-4.4h-8.9v-26.6c0-2.4-2-4.4-4.4-4.4h-31ZM129.9,89.9h22.2v13.3h-22.2v-13.3ZM129.9,112.1h22.2v31h-22.2v-31Z"/>
  <path id="path31555-2" data-name="path31555" class="cls-1" d="M335,141c-2.4,0-4.4,2-4.4,4.4v62.1c0,2.4,2,4.4,4.4,4.4h31c2.4,0,4.4-2,4.4-4.4v-26.6h4.4v8.9c0,7.3,6,13.3,13.3,13.3s13.3-6,13.3-13.3v-26.6c0-2.4-2-4.4-4.4-4.4s-4.4,2-4.4,4.4v26.6c0,2.5-1.9,4.4-4.4,4.4s-4.4-1.9-4.4-4.4v-13.3c0-2.4-2-4.4-4.4-4.4h-8.9v-26.6c0-2.4-2-4.4-4.4-4.4h-31ZM339.5,149.9h22.2v13.3h-22.2v-13.3ZM339.5,172.1h22.2v31h-22.2v-31Z"/>
</svg>