<?xml version="1.0" encoding="UTF-8" standalone="no"?>
<!-- Created with Inkscape (http://www.inkscape.org/) -->

<svg
   version="1.1"
   id="svg2298"
   xml:space="preserve"
   width="682.66669"
   height="682.66669"
   viewBox="0 0 682.66669 682.66669"
   xmlns="http://www.w3.org/2000/svg"
   xmlns:svg="http://www.w3.org/2000/svg"><defs
     id="defs2302"><clipPath
       clipPathUnits="userSpaceOnUse"
       id="clipPath2312"><path
         d="M 0,512 H 512 V 0 H 0 Z"
         id="path2310" /></clipPath></defs><g
     id="g2304"
     transform="matrix(1.3333333,0,0,-1.3333333,0,682.66667)"><g
       id="g2306"><g
         id="g2308"
         clip-path="url(#clipPath2312)"><g
           id="g2314"
           transform="translate(0,256)"><path
             d="M 0,0 C 0,141.385 114.615,256 256,256 397.385,256 512,141.385 512,0 512,-141.385 397.385,-256 256,-256 114.615,-256 0,-141.385 0,0"
             style="fill:#99e6fc;fill-opacity:1;fill-rule:nonzero;stroke:none"
             id="path2316" /></g><g
           id="g2318"
           transform="translate(512,256)"><path
             d="M 0,0 C 0,6.132 -0.216,12.214 -0.64,18.238 L -105.074,122.673 -448.697,7 l 77.775,-77.775 -25.132,-108.989 65.084,-65.083 C -307.259,-252.099 -282.085,-256 -256,-256 -114.615,-256 0,-141.385 0,0"
             style="fill:#60b8fe;fill-opacity:1;fill-rule:nonzero;stroke:none"
             id="path2320" /></g><g
           id="g2322"
           transform="translate(115.9458,449.7637)"><path
             d="M 0,0 V -373.527 H 143.279 L 235.628,-143.729 143.279,0 Z"
             style="fill:#ffffff;fill-opacity:1;fill-rule:nonzero;stroke:none"
             id="path2324" /></g><g
           id="g2326"
           transform="translate(406.9258,378.6719)"><path
             d="m 0,0 -44.058,19.982 -27.033,51.11 h -76.61 V -302.436 H 0 Z"
             style="fill:#e8e8e8;fill-opacity:1;fill-rule:nonzero;stroke:none"
             id="path2328" /></g><path
           d="M 277.791,263 H 63.303 v 124.676 h 214.488 z"
           style="fill:#e23d71;fill-opacity:1;fill-rule:nonzero;stroke:none"
           id="path2330" /><path
           d="M 299.5,387.676 H 259.224 V 263 H 299.5 Z"
           style="fill:#aa1d57;fill-opacity:1;fill-rule:nonzero;stroke:none"
           id="path2332" /><g
           id="g2334"
           transform="translate(243.6118,345.4941)"><path
             d="m 0,0 v 15 h -37.089 v -69.5 h 15 v 27.766 h 20.334 v 15 H -22.089 V 0 Z"
             style="fill:#ffffff;fill-opacity:1;fill-rule:nonzero;stroke:none"
             id="path2336" /></g><g
           id="g2338"
           transform="translate(172.1421,306.1104)"><path
             d="m 0,0 c -1.778,-0.031 -4.776,-0.057 -7.65,-0.076 l -0.209,38.238 h 7.548 c 13.005,0 14.016,-14.649 14.016,-19.14 C 13.705,6.047 6.821,0.119 0,0 m -0.311,53.162 h -22.603 v -0.097 h -0.027 l 0.041,-7.548 c 0.004,-1.755 0.039,-20.646 0.039,-26.436 0,-7.406 0.069,-26.725 0.069,-26.725 l 0.027,-7.502 7.502,0.03 c 0.456,0.002 11.221,0.043 15.525,0.118 16.481,0.288 28.443,14.596 28.443,34.02 0,20.42 -11.661,34.14 -29.016,34.14"
             style="fill:#ffffff;fill-opacity:1;fill-rule:nonzero;stroke:none"
             id="path2340" /></g><g
           id="g2342"
           transform="translate(120.2695,329.0977)"><path
             d="m 0,0 c -1.812,0 -4.841,-0.013 -7.722,-0.027 -0.014,2.988 -0.027,6.155 -0.027,8.02 0,1.587 -0.008,4.861 -0.016,7.993 H 0 c 4.498,0 8.297,-3.661 8.297,-7.993 C 8.297,3.66 4.498,0 0,0 m 0,30.986 h -22.787 v -69.902 h 15 v 23.889 C -4.89,-15.013 -1.824,-15 0,-15 12.846,-15 23.297,-4.686 23.297,7.993 23.297,20.672 12.846,30.986 0,30.986"
             style="fill:#ffffff;fill-opacity:1;fill-rule:nonzero;stroke:none"
             id="path2344" /></g><g
           id="g2346"
           transform="translate(406.9258,378.6719)"><path
             d="M 0,0 -71.091,71.092 V 0 Z"
             style="fill:#999999;fill-opacity:1;fill-rule:nonzero;stroke:none"
             id="path2348" /></g><g
           id="g2350"
           transform="translate(279.3628,138.0303)"><path
             d="m 0,0 c 0,44.286 35.901,80.188 80.188,80.188 44.287,0 80.188,-35.902 80.188,-80.188 0,-44.287 -35.901,-80.188 -80.188,-80.188 C 35.901,-80.188 0,-44.287 0,0"
             style="fill:#f27944;fill-opacity:1;fill-rule:nonzero;stroke:none"
             id="path2352" /></g><g
           id="g2354"
           transform="translate(359.5508,218.2187)"><path
             d="m 0,0 v -160.377 c 44.287,0 80.188,35.901 80.188,80.189 C 80.188,-35.902 44.287,0 0,0"
             style="fill:#d35429;fill-opacity:1;fill-rule:nonzero;stroke:none"
             id="path2356" /></g><g
           id="g2358"
           transform="translate(378.4673,141.9707)"><path
             d="M 0,0 V 40.177 H -37.833 V 0 h -19.084 l 38,-53.141 38,53.141 z"
             style="fill:#ffffff;fill-opacity:1;fill-rule:nonzero;stroke:none"
             id="path2360" /></g><g
           id="g2362"
           transform="translate(397.5508,141.9707)"><path
             d="M 0,0 H -19.083 V 40.177 H -38 v -93.318 z"
             style="fill:#e2e2e2;fill-opacity:1;fill-rule:nonzero;stroke:none"
             id="path2364" /></g></g></g></g></svg>
