<?xml version="1.0" encoding="UTF-8"?>
<svg id="Capa_1" data-name="Capa 1" xmlns="http://www.w3.org/2000/svg" version="1.1" viewBox="0 0 512 512">
  <defs>
    <style>
      .cls-1 {
        fill: #00adcc;
        stroke-width: 0px;
      }
    </style>
  </defs>
  <path class="cls-1" d="M281.6,273c0-4.7-3.8-8.5-8.5-8.5h-34.1c-4.7,0-8.5,3.8-8.5,8.5s3.8,8.5,8.5,8.5h34.1c4.7,0,8.5-3.8,8.5-8.5Z"/>
  <path class="cls-1" d="M221.9,187.7h-17.1c-4.7,0-8.5,3.8-8.5,8.5s3.8,8.5,8.5,8.5c0,4.7,3.8,8.5,8.5,8.5s8.5-3.8,8.5-8.5c4.7,0,8.5-3.8,8.5-8.5,0-4.7-3.8-8.5-8.5-8.5h0Z"/>
  <path class="cls-1" d="M307.2,187.7h-17.1c-4.7,0-8.5,3.8-8.5,8.5s3.8,8.5,8.5,8.5c0,4.7,3.8,8.5,8.5,8.5s8.5-3.8,8.5-8.5c4.7,0,8.5-3.8,8.5-8.5,0-4.7-3.8-8.5-8.5-8.5h0Z"/>
  <path class="cls-1" d="M247.5,247.4h17.1c4.7,0,8.5-3.8,8.5-8.5s-3.8-8.5-8.5-8.5h-17.1c-4.7,0-8.5,3.8-8.5,8.5s3.8,8.5,8.5,8.5h0Z"/>
  <path class="cls-1" d="M230.4,179.2c4.7,0,8.5-3.8,8.5-8.5s-3.8-8.5-8.5-8.5h-34.1c-4.7,0-8.5,3.8-8.5,8.5s3.8,8.5,8.5,8.5h34.1Z"/>
  <path class="cls-1" d="M281.6,179.2h34.1c4.7,0,8.5-3.8,8.5-8.5s-3.8-8.5-8.5-8.5h-34.1c-4.7,0-8.5,3.8-8.5,8.5s3.8,8.5,8.5,8.5Z"/>
  <path class="cls-1" d="M93.9,512h324.3c18.9,0,34.1-15.3,34.1-34.1v-25.6c0-10.8-6.8-20.5-17.1-24.1v-29.1c0-8.4-3.1-16.5-8.8-22.7-1.7-20.5-16.4-37.5-36.4-42.3l-41.7-10.4c-7.6-6.3-15.8-11.7-24.4-16.4l20-17.4c9.3-8.1,14.6-19.9,14.6-32.2v-10.9c23-4.6,38-27.1,33.3-50.1-2.9-14.2-12.8-26-26.3-31.2,7.6-17,11.1-35.5,10-54.1,0-43.3-42.1-64.6-62.5-72.3,1.2-.9,2.5-1.7,3.9-2.3,6.4-2.9,9.3-10.5,6.4-16.9-1.3-2.9-3.7-5.3-6.7-6.5-90.1-38.6-134.8,19.2-143.3,32-17,8.3-29.7,23.3-35.1,41.4-8.5,29.3,3.3,61.4,11,77.9-22.4,7.1-34.8,31-27.7,53.5,4.7,14.7,17,25.8,32.2,28.8v10.9c0,12.3,5.3,24.1,14.6,32.2l20,17.5c-8.7,4.6-16.8,10.1-24.4,16.4l-41.7,10.4c-20,4.8-34.7,21.8-36.4,42.3-5.7,6.2-8.9,14.3-8.8,22.7v29.1c-10.2,3.6-17.1,13.3-17.1,24.1v25.6c0,18.9,15.3,34.1,34.1,34.1h0ZM230.4,373.5c-11.6-1.7-22.8-5.5-33.1-11.3,8.9-7.2,19-12.7,29.9-16.3.7-.2,1.4,0,2,.4.7.5,1.2,1.4,1.2,2.3v25ZM184.7,374.3c13.8,8.8,29.4,14.4,45.7,16.3v10.4c-9.3,7-15.4,17.5-16.8,29l-43,24.9v-2.7c0-7.2-3.1-14.1-8.4-18.9.5-21.7,8.4-42.6,22.5-59.1h0ZM170.7,486.4v-13.1c2.1-.4,4.2-1.1,6.1-2.2l49.4-28.6c2.6-1.5,4.3-4.3,4.3-7.4,0-9.1,4.9-17.6,12.8-22.1,2.6-1.5,4.3-4.3,4.3-7.4v-57.2c0-6.4-3.1-12.3-8.2-16.1-5-3.7-11.4-4.7-17.3-2.8-42.7,14-72.9,52.2-76.6,97h-17.1c.6-9.5,2.3-19,5.1-28.2,20.2-67.7,91.6-106.2,159.3-86,41.3,12.4,73.7,44.7,86,86,2.8,9.1,4.4,18.6,5,28.1h-17.1c-3.3-44.6-33.3-82.8-75.8-96.8-6.1-2.1-12.8-1.1-18.1,2.7-5.2,3.7-8.2,9.7-8.2,16v57.1c0,3.1,1.6,5.9,4.3,7.4,7.9,4.6,12.8,13,12.8,22.1,0,3,1.6,5.9,4.3,7.4l49.5,28.6c1.9,1,3.9,1.7,6,2.1v13.1c0,2.9.6,5.8,1.6,8.5h-8.1c-1.7-3.8-4.5-6.9-8-9l-49.5-28.6c-2.7-1.5-6-1.5-8.6,0-7.8,4.5-17.4,4.5-25.3,0-2.7-1.6-5.9-1.6-8.6,0l-49.7,28.6c-3.5,2.1-6.2,5.2-7.9,9h-8.1c1-2.7,1.5-5.6,1.6-8.5h0ZM281.6,390.7c16.3-2,32-7.6,45.8-16.4,14.1,16.5,22,37.4,22.4,59.2-5.4,4.8-8.4,11.7-8.5,18.9v2.7l-43-24.8c-1.4-11.5-7.5-22-16.8-29v-10.4ZM281.6,373.5v-24.9c0-.8.4-1.6,1.1-2.1.8-.6,1.8-.7,2.7-.4,10.7,3.5,20.6,8.9,29.3,16-10.2,5.8-21.5,9.7-33.2,11.4h0ZM308.2,494.9h-104.5l35.6-20.5c10.7,4.5,22.7,4.5,33.4,0l35.5,20.5ZM435.2,452.3v25.6c0,9.4-7.6,17.1-17.1,17.1h-51.2c-4.7,0-8.5-3.8-8.5-8.5v-34.1c0-4.7,3.8-8.5,8.5-8.5h25.6c4.7,0,8.5-3.8,8.5-8.5,0-14.1-2-28-6.1-41.5-.3-1-.7-1.9-1-2.8,1.6-3,4.2-5.2,7.4-6.2,3.8-1.3,7.9-.6,11.1,1.9,3.7,3.1,5.8,7.7,5.6,12.5v36.2c0,4.7,3.8,8.5,8.5,8.5s8.5,3.8,8.5,8.5ZM406.6,367.2c-3.5-.2-7.1.2-10.5,1.3-3.2,1.1-6.3,2.8-8.9,4.9-4.5-9.4-10-18.3-16.4-26.6l15,3.7c9,2.2,16.7,8.3,20.8,16.6ZM154.5,91.1c4.4-14.3,14.8-26,28.5-31.9,1.5-.8,2.8-2,3.7-3.5,1.4-2.6,34.7-60.2,115.4-30.1-2.6,2-5,4.4-7,7.1-2.5,3.3-3.3,7.5-2.1,11.5,1.2,4,4.3,7.2,8.3,8.5,13.4,4.4,57.2,21.4,57.2,58.4.3,12.6-1.2,25.1-4.5,37.2-3.5-8.2-9.6-15-17.3-19.5-1.5-.8-3.2-1.1-4.9-.9-45.7,5.7-58.5-.4-79.8-10.4-11.7-5.7-23.7-10.7-36-14.8-12.6-5.2-26.9-3.7-38.1,3.9-10.2,8.4-17.3,20.1-20.1,33.1-5.8-15.5-7-32.4-3.3-48.6h0ZM179.4,276.9c-5.6-4.9-8.8-11.9-8.8-19.3v-18.6c0-4.7-3.8-8.5-8.5-8.5-14.1.1-25.5-11.2-25.7-25.2,0-10.9,6.8-20.7,17.1-24.3v15.4c0,4.7,3.8,8.5,8.5,8.5s8.5-3.8,8.5-8.5v-25.6c0-10.5,3.1-39.9,17.2-50.1,6.8-4.3,15.4-4.9,22.8-1.6,11.6,4,23,8.7,34.1,14.1,21.9,10.4,37.9,17.9,86,12.3,7.3,6.3,11.2,15.6,10.6,25.3v25.6c0,4.7,3.8,8.5,8.5,8.5s8.5-3.8,8.5-8.5v-15.4c13.3,4.6,20.3,19.1,15.7,32.4-3.6,10.3-13.3,17.2-24.3,17.1-4.7,0-8.5,3.8-8.5,8.5v18.6c0,7.4-3.2,14.5-8.8,19.3l-25.9,22.6c-32.6-12.5-68.7-12.5-101.3,0l-25.9-22.7ZM126.2,350.5l15-3.7c-6.4,8.2-11.9,17.1-16.4,26.6-2.7-2.1-5.7-3.8-8.9-4.9-3.4-1.1-6.9-1.5-10.5-1.3,4.1-8.3,11.7-14.4,20.8-16.6ZM76.8,452.3c0-4.7,3.8-8.5,8.5-8.5s8.5-3.8,8.5-8.5v-36.2c-.2-4.8,1.9-9.4,5.6-12.5,3.2-2.4,7.3-3.1,11.1-1.9,3.2,1.1,5.8,3.3,7.4,6.2-.3.9-.7,1.8-.9,2.8-4.1,13.5-6.1,27.5-6.1,41.6,0,4.7,3.8,8.5,8.5,8.5h25.6c4.7,0,8.5,3.8,8.5,8.5v34.1c0,4.7-3.8,8.5-8.5,8.5h-51.2c-9.4,0-17.1-7.6-17.1-17.1v-25.6h0Z"/>
  <circle class="cls-1" cx="256" cy="435.2" r="8.5"/>
</svg>