<?xml version="1.0" encoding="UTF-8"?>
<svg id="Layer_2" data-name="Layer 2" xmlns="http://www.w3.org/2000/svg" version="1.1" viewBox="0 0 512 512">
  <defs>
    <style>
      .cls-1 {
        fill: #0887a9;
      }

      .cls-1, .cls-2, .cls-3 {
        stroke-width: 0px;
      }

      .cls-2 {
        fill: #84d2e2;
      }

      .cls-3 {
        fill: #757984;
      }
    </style>
  </defs>
  <g id="Layer_1-2" data-name="Layer 1-2">
    <polygon class="cls-2" points="464.3 120.3 352.4 120.3 352.4 8.3 405.3 53.7 464.3 120.3"/>
    <g id="E-BOOK">
      <g id="Base">
        <g>
          <path class="cls-3" d="M103.6,110.4h121.4c5.6,0,10.2,4.5,10.2,10.2h0c0,5.6-4.5,10.2-10.2,10.2h-121.4c-5.6,0-10.2-4.5-10.2-10.2h0c0-5.6,4.5-10.2,10.2-10.2Z"/>
          <path class="cls-3" d="M103.6,149.1h213.3c5.6,0,10.2,4.5,10.2,10.2h0c0,5.6-4.5,10.2-10.2,10.2H103.6c-5.6,0-10.2-4.5-10.2-10.2h0c0-5.6,4.5-10.2,10.2-10.2Z"/>
          <path class="cls-3" d="M103.6,187.8h213.3c5.6,0,10.2,4.5,10.2,10.2h0c0,5.6-4.5,10.2-10.2,10.2H103.6c-5.6,0-10.2-4.5-10.2-10.2h0c0-5.6,4.5-10.2,10.2-10.2Z"/>
          <path class="cls-3" d="M508.4,240.2l-37.1-37.1v-89.3c0-3.2-1.3-6.3-3.6-8.6L366.2,3.6C363.9,1.3,360.8,0,357.6,0H78.6C57.7,0,40.6,16.9,40.6,37.6v165.5L3.6,240.2C1.4,242.4,0,245.4,0,248.8v182.9c0,6.7,5.5,12.2,12.2,12.2h28.4v30.6c0,20.7,17,37.6,38,37.6h354.8c20.9,0,38-16.9,38-37.6v-30.6h28.4c6.7,0,12.2-5.5,12.2-12.2v-182.9c0-3.4-1.4-6.4-3.6-8.6h0ZM471.4,220.3l16.3,16.3h-16.3v-16.3ZM357.6,12.2l101.6,101.6h-101.6V12.2ZM52.8,37.6c0-14,11.5-25.4,25.8-25.4h266.8v101.6c0,6.7,5.5,12.2,12.2,12.2h101.6v110.6H52.8V37.6ZM40.6,220.3v16.3h-16.3l16.3-16.3ZM459.2,474.4c0,14-11.5,25.4-25.8,25.4H78.6c-14.2,0-25.8-11.4-25.8-25.4v-30.6h406.3v30.6ZM499.8,431.6H12.2v-182.9h487.6v182.9Z"/>
        </g>
      </g>
      <g id="E-BOOK-2">
        <path class="cls-1" d="M109.9,345.9h-28.6v18.1h33.8v14h-52.1v-75.6h52.2v14.1h-34v15.9h28.6v13.5h0Z"/>
        <path class="cls-1" d="M155.8,352.2h-31.2v-13.5h31.2v13.5Z"/>
        <path class="cls-1" d="M170.3,378v-75.6h27.1c9.7,0,17.1,1.8,22.2,5.3s7.6,8.7,7.6,15.5-.9,7.3-2.7,10c-1.8,2.8-4.4,4.8-7.9,6.1,3.9,1,7,3,9.1,5.8s3.2,6.3,3.2,10.4c0,7.4-2.3,13-7,16.7-4.7,3.7-11.6,5.6-20.8,5.7h-30.7ZM188.5,333.9h9.5c4,0,6.8-.8,8.5-2.2s2.5-3.5,2.5-6.3-.9-5.5-2.8-6.9-4.8-2.1-8.9-2.1h-8.9v17.5h0ZM188.5,345.9v18.1h11.9c3.3,0,5.8-.8,7.6-2.3s2.7-3.6,2.7-6.4c0-6.3-3.1-9.5-9.4-9.5h-12.8Z"/>
        <path class="cls-1" d="M302.8,341.8c0,7.4-1.4,13.9-4.1,19.6-2.7,5.7-6.6,10-11.7,13.1s-10.8,4.6-17.2,4.6-12.1-1.5-17.1-4.4-8.9-7.2-11.7-12.7c-2.8-5.5-4.2-11.8-4.4-18.9v-4.3c0-7.4,1.4-13.9,4.1-19.6s6.6-10,11.7-13.1,10.8-4.6,17.3-4.6,12.1,1.5,17.1,4.6,8.9,7.4,11.7,13,4.2,12.1,4.2,19.3v3.5h0ZM284.3,338.6c0-7.5-1.3-13.2-3.8-17.1-2.5-3.9-6.1-5.8-10.8-5.8-9.1,0-14,6.8-14.5,20.6v5.6c0,7.4,1.2,13.1,3.6,17.1,2.5,4,6.1,6,11,6s8.1-2,10.6-5.9,3.8-9.5,3.8-16.9v-3.5Z"/>
        <path class="cls-1" d="M376.2,341.8c0,7.4-1.4,13.9-4.1,19.6-2.7,5.7-6.6,10-11.7,13.1s-10.8,4.6-17.2,4.6-12.1-1.5-17.1-4.4-8.9-7.2-11.7-12.7c-2.8-5.5-4.2-11.8-4.4-18.9v-4.3c0-7.4,1.4-13.9,4.1-19.6s6.6-10,11.7-13.1,10.8-4.6,17.3-4.6,12.1,1.5,17.1,4.6,8.9,7.4,11.7,13,4.2,12.1,4.2,19.3v3.5h0ZM357.7,338.6c0-7.5-1.3-13.2-3.8-17.1-2.5-3.9-6.1-5.8-10.8-5.8-9.1,0-14,6.8-14.5,20.6v5.6c0,7.4,1.2,13.1,3.6,17.1s6.1,6,11,6,8.1-2,10.6-5.9,3.8-9.5,3.8-16.9v-3.5Z"/>
        <path class="cls-1" d="M411.3,349.9l-7.5,8.2v19.9h-18.2v-75.6h18.2v33.3l6.3-9.6,16.3-23.7h22.5l-25.5,33.4,25.5,42.1h-21.6l-16.1-28.1h0Z"/>
      </g>
    </g>
  </g>
</svg>