<?xml version="1.0" encoding="UTF-8"?>
<svg id="Layer_1" data-name="Layer 1" xmlns="http://www.w3.org/2000/svg" version="1.1" viewBox="0 0 512 512">
  <defs>
    <style>
      .cls-1 {
        fill: #0088a5;
        fill-rule: evenodd;
        stroke: #0088a5;
        stroke-miterlimit: 10;
        stroke-width: 2px;
      }
    </style>
  </defs>
  <path class="cls-1" d="M460.5,264.8c-41.3,74.2-119.7,120.3-204.4,120.3s-163.2-46.1-204.5-120.3c-3.2-5.8-3.2-11.9,0-17.6,41.3-74.2,119.7-120.3,204.5-120.3s163.1,46.1,204.4,120.3c3.2,5.8,3.2,11.8,0,17.6h0ZM486.9,232.5c-46.6-83.8-135.1-135.8-230.8-135.8S71.8,148.7,25.1,232.5c-8.3,14.9-8.3,32.1,0,47,46.6,83.8,135.1,135.8,230.9,135.8s184.2-52,230.8-135.8c8.3-14.9,8.3-32.1,0-47h.1ZM256,318c34.2,0,62-27.8,62-62s-27.8-62-62-62-62.1,27.8-62.1,62,27.8,62,62.1,62ZM256,163.7c-50.9,0-92.3,41.4-92.3,92.2s41.4,92.2,92.3,92.2,92.2-41.4,92.2-92.2-41.4-92.2-92.2-92.2h0Z"/>
</svg>