<svg width="17" height="15" viewBox="0 0 17 15" fill="none" xmlns="http://www.w3.org/2000/svg">
<g clip-path="url(#clip0_270_1659)">
<path d="M7.02934 4.51917C7.32462 4.51917 7.59519 4.51917 7.86577 4.51917C8.10325 4.51917 8.34115 4.52899 8.57738 4.51603C8.75665 4.50662 8.81487 4.57176 8.79644 4.73031C8.78596 4.81979 8.79476 4.91123 8.79476 5.0164H6.50201C6.49866 4.94733 6.4928 4.87826 6.49238 4.80919C6.49154 4.39045 6.49489 3.97211 6.49112 3.55337C6.48694 3.10638 6.16359 2.80498 5.68443 2.80419C4.25366 2.80223 2.82248 2.80262 1.39171 2.80419C0.849728 2.80459 0.538109 3.09813 0.538109 3.61106C0.537271 6.74355 0.53769 9.87643 0.538109 13.0089C0.538109 13.0576 0.543972 13.1062 0.583762 13.162C0.611406 13.0992 0.641982 13.0372 0.666693 12.9732C1.18061 11.6479 1.69328 10.3226 2.20678 8.99735C2.50206 8.23523 3.15797 7.80511 4.02833 7.80511C7.41342 7.80472 10.7989 7.80511 14.184 7.80511C14.2799 7.80511 14.3754 7.80511 14.4826 7.80511C14.4881 7.72701 14.4952 7.66972 14.4956 7.61281C14.4965 7.00452 14.4981 6.39623 14.4956 5.78834C14.494 5.31898 14.1895 5.03642 13.6848 5.03171C13.5034 5.03014 13.3212 5.02425 13.1403 5.03367C12.9991 5.04113 12.9497 4.98579 12.9622 4.86256C12.9643 4.84294 12.9622 4.82332 12.9622 4.8037C12.9606 4.52192 12.9606 4.52114 13.2538 4.52114C13.4422 4.52114 13.6311 4.51486 13.8188 4.52702C14.5166 4.57255 15.0242 5.06781 15.0343 5.72202C15.0439 6.34993 15.041 6.97784 15.0343 7.60535C15.0326 7.75409 15.072 7.81178 15.2437 7.80864C15.5637 7.80275 15.8879 7.79648 16.2041 7.83572C16.7787 7.90714 17.126 8.38907 16.9572 8.91219C16.7578 9.5299 16.5119 10.1347 16.2774 10.7422C15.8652 11.8104 15.4481 12.8767 15.0297 13.9425C14.7574 14.636 14.2096 14.9978 13.4179 14.9982C9.4046 15.0002 5.39124 14.9998 1.37789 14.9982C0.553187 14.9986 0.000732975 14.4755 0.000314132 13.7035C-0.000104711 10.3289 -0.000104711 6.95429 0.000314132 3.57927C0.000314132 2.81675 0.55193 2.30147 1.36742 2.30069C2.79819 2.29951 4.22937 2.29951 5.66014 2.30069C6.48065 2.30147 7.02515 2.8093 7.02892 3.57574C7.03018 3.88145 7.02892 4.18677 7.02892 4.51878L7.02934 4.51917ZM7.40001 14.4904C9.37486 14.4904 11.3493 14.4904 13.3241 14.4904C14.0056 14.4904 14.3206 14.2859 14.5513 13.6918C15.1482 12.1526 15.73 10.6079 16.3461 9.07545C16.5882 8.47383 16.3498 8.30783 15.7677 8.31058C13.3463 8.32196 10.925 8.31529 8.50408 8.31529C7.00379 8.31529 5.50349 8.3145 4.00362 8.31568C3.43189 8.31607 2.97452 8.54565 2.77431 9.04288C2.09411 10.7343 1.45077 12.4383 0.790252 14.1364C0.748368 14.2439 0.771823 14.3271 0.876953 14.3581C1.06585 14.4143 1.26187 14.4833 1.45537 14.4845C3.43692 14.4935 5.41847 14.49 7.40043 14.4904H7.40001Z" fill="#727272"/>
<path d="M12.3419 5.10173C12.3419 5.4353 12.349 5.76888 12.3402 6.10207C12.3281 6.56868 11.9993 6.8693 11.5042 6.87361C11.1063 6.87714 10.7088 6.87675 10.3109 6.87479C9.74759 6.87243 9.40121 6.54985 9.39828 6.01926C9.39493 5.35878 9.39241 4.69829 9.40121 4.0382C9.4033 3.86945 9.35178 3.79646 9.1654 3.81019C9.02676 3.8204 8.88645 3.81333 8.74697 3.81137C8.25777 3.80431 8.0341 3.43305 8.29672 3.04336C8.50865 2.72862 8.74279 2.42683 8.96854 2.12033C9.40498 1.52892 9.85858 0.948491 10.2741 0.344519C10.5899 -0.11464 11.167 -0.115425 11.4971 0.353545C12.1266 1.24793 12.793 2.11994 13.4414 3.00294C13.5641 3.17012 13.6441 3.35103 13.5272 3.55236C13.4104 3.75407 13.2173 3.82079 12.9832 3.81333C12.8646 3.80941 12.7461 3.81255 12.6271 3.81333C12.3612 3.81451 12.3457 3.82785 12.3444 4.08255C12.3427 4.42241 12.3444 4.76265 12.3444 5.10251C12.3436 5.10251 12.3427 5.10251 12.3423 5.10251L12.3419 5.10173ZM8.6854 3.34279C8.79724 3.35496 8.86928 3.3683 8.94132 3.36948C9.17838 3.37262 9.41629 3.38086 9.65293 3.36791C9.84225 3.35771 9.90759 3.41226 9.90508 3.59788C9.89502 4.402 9.90005 5.20612 9.90089 6.01023C9.90089 6.30771 10.0244 6.42858 10.3403 6.4325C10.6892 6.43682 11.038 6.43564 11.3869 6.4329C11.7371 6.43054 11.8657 6.30889 11.8665 5.98159C11.8678 5.28853 11.8669 4.59547 11.8665 3.90242C11.8662 3.54686 12.0572 3.36948 12.4395 3.37026C12.6372 3.37066 12.8349 3.37026 13.0862 3.37026C13.0229 3.26077 12.997 3.20347 12.9597 3.15324C12.3339 2.3036 11.7069 1.45435 11.0795 0.605887C10.9162 0.384941 10.8471 0.383371 10.6858 0.601963C10.0617 1.44493 9.4389 2.28869 8.81692 3.13283C8.77546 3.18895 8.74237 3.25057 8.6854 3.34279Z" fill="#727272"/>
</g>
<defs>
<clipPath id="clip0_270_1659">
<rect width="17" height="15" fill="white"/>
</clipPath>
</defs>
</svg>
