<?xml version="1.0" encoding="UTF-8"?>
<svg id="Group" xmlns="http://www.w3.org/2000/svg" version="1.1" xmlns:xlink="http://www.w3.org/1999/xlink" viewBox="0 0 64 64">
  <defs>
    <style>
      .cls-1 {
        fill: url(#linear-gradient);
        stroke-width: 0px;
      }
    </style>
    <linearGradient id="linear-gradient" x1="0" y1="32" x2="64" y2="32" gradientUnits="userSpaceOnUse">
      <stop offset="0" stop-color="#249adf" stop-opacity=".7"/>
      <stop offset="1" stop-color="#14c7a3" stop-opacity=".7"/>
    </linearGradient>
  </defs>
  <path class="cls-1" d="M64,43.4c0,.6-.5,1.1-1,1.1h-12.4c-.8-4.4-2.8-8.2-5.5-11.2.2-.2.4-.4.6-.6,1.7,1.7,4,2.7,6.6,2.7s4.9-1,6.6-2.7c2.9,2.4,4.9,6.2,5.1,10.7ZM52.3,19.3c-3.8,0-6.8,3-6.8,6.8s3,6.8,6.8,6.8,6.8-3,6.8-6.8-3-6.8-6.8-6.8ZM18.4,32.8c-1.7,1.7-4,2.7-6.6,2.7s-4.9-1-6.6-2.7C2.3,35.1.3,39,0,43.4c0,.6.5,1.1,1,1.1h12.4c.9-4.4,2.8-8.2,5.6-11.2-.2-.2-.4-.4-.6-.5ZM11.8,19.3c-3.8,0-6.8,3-6.8,6.8s3,6.8,6.8,6.8,6.8-3,6.8-6.8-3-6.8-6.8-6.8ZM40.4,32.6c-2.2,2.1-5.1,3.4-8.4,3.4s-6.2-1.3-8.4-3.4c-4.6,3.2-7.7,9-8.1,15.6,0,.8.6,1.5,1.5,1.5h30.1c.8,0,1.5-.7,1.5-1.5-.4-6.7-3.6-12.4-8.1-15.6ZM32,14.3c-5.3,0-9.6,4.3-9.6,9.6s4.3,9.6,9.6,9.6,9.6-4.3,9.6-9.6-4.3-9.6-9.6-9.6Z"/>
</svg>