<?xml version="1.0" encoding="UTF-8"?>
<svg id="Layer_1" data-name="Layer 1" xmlns="http://www.w3.org/2000/svg" version="1.1" viewBox="0 0 512 512">
  <defs>
    <style>
      .cls-1 {
        fill: #757984;
      }

      .cls-1, .cls-2, .cls-3 {
        stroke-width: 0px;
      }

      .cls-2 {
        fill: #fff;
      }

      .cls-3 {
        fill: #2ad352;
      }
    </style>
  </defs>
  <g id="Line">
    <path class="cls-1" d="M484.5,155.5L356.5,27.5c-4-4-9.5-6.2-15.1-6.2h-128c-58.9,0-106.7,47.8-106.7,106.7v44.4C25.1,219.7-2.6,324.1,44.7,405.6c30.5,52.5,86.6,84.9,147.3,85h192c58.9,0,106.7-47.8,106.7-106.7v-213.3c0-5.7-2.2-11.1-6.2-15.1ZM362.7,94.1l55.3,55.3h-55.3v-55.3ZM64,320c0-70.7,57.3-128,128-128s128,57.3,128,128-57.3,128-128,128-128-57.3-128-128ZM384,448h-79.6c70.7-62.3,77.5-170.2,15.1-240.9-32.3-36.6-78.7-57.7-127.5-57.8-14.4,0-28.7,2-42.7,5.5v-26.9c0-35.3,28.7-64,64-64h106.7v85.3c0,23.6,19.1,42.7,42.7,42.7h85.3v192c0,35.3-28.7,64-64,64Z"/>
  </g>
  <circle class="cls-3" cx="192.6" cy="319.3" r="171.2"/>
  <path class="cls-2" d="M184.9,395.2c-5.8,5.6-13.5,8.7-21.5,8.6-8,0-15.7-3-21.5-8.6l-52.5-51.6c-11.9-12-11.9-31.3,0-43.3,11.9-12,31.4-12.1,43.5-.2,0,0,.1.1.2.2l30.7,30.7,88.5-87.3c12.1-12,31.7-11.8,43.6.3,12,12.1,11.8,31.7-.3,43.6l-110.6,107.5Z"/>
</svg>