<?xml version="1.0" encoding="UTF-8"?>
<svg id="Layer_1" data-name="Layer 1" xmlns="http://www.w3.org/2000/svg" version="1.1" viewBox="0 0 512 512">
  <defs>
    <style>
      .cls-1 {
        fill: #757984;
      }

      .cls-1, .cls-2 {
        stroke-width: 0px;
      }

      .cls-2 {
        fill: #00adcc;
      }
    </style>
  </defs>
  <g id="Layer_2" data-name="Layer 2">
    <path class="cls-1" d="M313,488.3c-15.2,0-29.6-6.7-39.5-18.1-6.8-6.5-9.9-9.2-17.3-9.2s-10.5,2.6-17.4,9.2c-18.9,21.8-51.9,24.3-73.7,5.4-1.9-1.7-3.7-3.5-5.4-5.4-6.8-6.6-9.9-9.2-17.4-9.2-4.4-.2-8.6,1.4-11.9,4.3-11.3,9.2-26.9,11.1-40.1,4.7-12.9-6.1-21.1-19.2-21-33.5V64c0-20.6,16.7-37.3,37.3-37.3h320c8.8,0,16,7.2,16,16s-7.2,16-16,16H106.7c-2.9,0-5.3,2.4-5.3,5.3v372.4c-.1,2,1,3.8,2.8,4.7,2.1,1,4.5.6,6.2-.8,9-7.5,20.3-11.5,32-11.2,15.2,0,29.6,6.7,39.6,18.1,6.8,6.6,9.9,9.2,17.4,9.2s10.5-2.6,17.3-9.2c18.8-21.8,51.8-24.3,73.6-5.4,1.9,1.7,3.8,3.5,5.4,5.4,6.8,6.5,9.9,9.2,17.4,9.2s10.5-2.6,17.3-9.2c10-11.4,24.4-18,39.5-18.1,11.5-.2,22.8,3.7,31.7,11.1,1.7,1.5,4.2,1.9,6.3.9,1.8-.8,2.9-2.6,2.8-4.6V106.7c0-8.8,7.2-16,16-16s16,7.2,16,16v329.7c0,14.3-8.1,27.3-20.9,33.5-13.1,6.4-28.8,4.5-40.1-4.7-3.2-2.8-7.4-4.3-11.7-4.1-7.5,0-10.5,2.6-17.4,9.2-10,11.4-24.4,18-39.6,18.1h0Z"/>
  </g>
  <g id="c">
    <g>
      <path class="cls-2" d="M249.7,178.8l6.3-6.3-27.3-16.4-2.7,8c-1.7,5.1-.4,10.8,3.5,14.7,5.6,5.6,14.7,5.6,20.3,0Z"/>
      <path class="cls-2" d="M282.5,178.8c3.8-3.8,5.2-9.5,3.5-14.7l-2.7-8-27.3,16.4,6.3,6.3c5.6,5.6,14.7,5.6,20.3,0Z"/>
      <path class="cls-2" d="M383.6,338.8l-9.3-44.4c-4.1-19.3-17.2-35.8-35.2-44.1l-38-17.5c5.8-5.9,10.8-12.7,14.5-20.3l.3-.7c5.5-10.9,8.4-23.2,8.4-35.4v-18.4c0-32.1-19.1-60.8-48.8-73.2l-18.5-7.7c-.7-.3-1.4-.3-2.1,0l-18.5,7.7c-29.6,12.3-48.8,41.1-48.8,73.2v18.4c0,12.2,2.9,24.5,8.4,35.4l.3.7c3.8,7.6,8.7,14.4,14.6,20.3l-38,17.5c-17.9,8.3-31.1,24.8-35.2,44.1l-9.3,44.4c-4,19,4.4,38.7,20.8,49l12.5,7.8c3.9,2.4,8.4,3.7,13,3.7h162.4c4.6,0,9.1-1.3,13-3.7l12.5-7.8c16.5-10.3,24.8-30,20.8-49ZM209.5,164.4v-16.7l92.9-10.3v27c0,24.7-12.3,47.7-32.9,61.4l-13.6,9.1-13.6-9.1c-20.6-13.7-32.9-36.7-32.9-61.4ZM145.5,344.4l2.4-4.9,15.7,7.8.3,6.3-18.4-9.2ZM341.2,386.1c-.2,4.4-3.8,7.8-8.2,7.8h-154c-4.4,0-8-3.4-8.2-7.8l-4.5-98.4c-.1-2.3.7-4.4,2.3-6s3.7-2.5,5.9-2.5h163c2.3,0,4.4.9,5.9,2.5,1.6,1.6,2.4,3.8,2.3,6l-4.5,98.4ZM348.1,353.6l.3-6.3,15.7-7.8,2.4,4.9-18.4,9.2Z"/>
      <path class="cls-2" d="M245,311.9c-13.6,0-24.6,11-24.6,24.6s11,24.6,24.6,24.6h16.4c13.6,0,24.6-11,24.6-24.6s-11-24.6-24.6-24.6h-16.4ZM261.4,355.6h-1c2.5-2.1,4.7-4.6,6.2-7.5h9.9c-3.5,4.6-9,7.5-15.2,7.5ZM279.9,331.7c.4,1.5.6,3.1.6,4.8s-.4,4.2-1,6.1h-10.7c.5-2,.8-4,.8-6.1s-.2-3.2-.5-4.8h10.8ZM277.5,326.3h-10.2c-1.6-3.5-4-6.5-6.9-8.9h1c6.8,0,12.7,3.5,16.1,8.9Z"/>
      <path class="cls-2" d="M207.9,322.6c.9-.5,1.5-1.4,1.5-2.4v-8.2h21.4v-5.5h-24.2c-1.5,0-2.7,1.2-2.7,2.7v5.5l-14.6-10.9,14.6-10.9v5.5c0,1.5,1.2,2.7,2.7,2.7h54.7c19.6,0,35.5,15.9,35.5,35.5v8.4h5.5v-8.4c0-22.6-18.4-41-41-41h-51.9v-8.2c0-1-.6-2-1.5-2.4-.9-.5-2-.4-2.9.3l-21.9,16.4c-.7.5-1.1,1.3-1.1,2.2s.4,1.7,1.1,2.2l21.9,16.4c.8.6,1.9.7,2.9.3Z"/>
      <path class="cls-2" d="M323.1,367.1l-21.9-16.4c-.8-.6-1.9-.7-2.9-.3-.9.5-1.5,1.4-1.5,2.4v8.2h-21.5v5.5h24.2c1.5,0,2.7-1.2,2.7-2.7v-5.5l14.6,10.9-14.6,10.9v-5.5c0-1.5-1.2-2.7-2.7-2.7h-54.7c-19.6,0-35.5-15.9-35.5-35.5v-8.8h-5.5v8.8c0,22.6,18.4,41,41,41h51.9v8.2c0,1,.6,2,1.5,2.4s.8.3,1.2.3,1.2-.2,1.6-.5l21.9-16.4c.7-.5,1.1-1.3,1.1-2.2s-.4-1.7-1.1-2.2Z"/>
      <path class="cls-2" d="M265.5,198.9c-5.8,7.7-16.5,9.5-24.5,4.2l-3,4.5c4,2.7,8.5,4,13,4,7.2,0,14.3-3.3,18.9-9.4l4.6-6.1-4.4-3.3-4.6,6.1Z"/>
    </g>
  </g>
</svg>