<?xml version="1.0" encoding="UTF-8"?>
<svg id="Layer_1" data-name="Layer 1" xmlns="http://www.w3.org/2000/svg" version="1.1" viewBox="0 0 64 64">
  <defs>
    <style>
      .cls-1 {
        fill: #00adcc;
        stroke: #00adcc;
        stroke-miterlimit: 10;
        stroke-width: .8px;
      }
    </style>
  </defs>
  <path class="cls-1" d="M58.6,63.8H5.4c-2.8,0-5.1-2.3-5.1-5.1v-5.7h1.5v5.6c0,2,1.6,3.6,3.6,3.6h53.2c2,0,3.6-1.6,3.6-3.6V14.5h1.5v44.1c0,2.8-2.3,5.2-5.1,5.2Z"/>
  <path class="cls-1" d="M1.8,49.5H.3V5.4C.3,2.6,2.6.3,5.4.3h53.2c2.8,0,5.1,2.3,5.1,5.1v5.6h-1.5v-5.6c0-2-1.6-3.6-3.6-3.6H5.4c-2,0-3.6,1.6-3.6,3.6v44.1Z"/>
  <path class="cls-1" d="M11.3,26h4.4v1.5h-4.4v-1.5Z"/>
  <path class="cls-1" d="M32,35.1H9.4c-1.7,0-3.1-1.4-3.1-3.1V9.4c0-1.7,1.4-3.1,3.1-3.1h37.1c1.7,0,3.1,1.4,3.1,3.1v9.5h-1.5v-9.5c0-.9-.7-1.6-1.6-1.6H9.4c-.9,0-1.6.7-1.6,1.6v22.5c0,.9.7,1.6,1.6,1.6h21.1v-12.7l2.7,3,2.2-2.4,2.2,2.4,2.2-2.4,2.2,2.4,2.2-2.4,2.2,2.4,2.2-2.4.9,1-.5.5.2.2-2.7,3-2.2-2.4-2.3,2.4-2.2-2.4-2.2,2.4-2.2-2.4-2.2,2.4-1.2-1.4v10.4Z"/>
  <path class="cls-1" d="M19.8,19.8h-8.6v-8.6h8.6v8.6ZM12.8,18.3h5.6v-5.6h-5.6v5.6Z"/>
  <path class="cls-1" d="M41,19.7c-1,0-2-.4-2.7-1l-.6-.6.6-.6c.6-.5.9-1.2.9-2s-.3-1.5-.9-2l-.6-.5.6-.6c.8-.7,1.7-1,2.7-1,2.3,0,4.1,1.9,4.1,4.1,0,2.3-1.8,4.2-4.1,4.2ZM39.9,17.9c.3.2.7.2,1.1.2,1.5,0,2.6-1.2,2.6-2.6s-1.2-2.6-2.6-2.6-.7.1-1.1.2c.5.7.8,1.5.8,2.4s-.3,1.7-.8,2.4Z"/>
  <path class="cls-1" d="M36.6,19.7c-2.3,0-4.1-1.9-4.1-4.1s1.9-4.1,4.1-4.1,2,.4,2.7,1c.9.8,1.4,1.9,1.4,3.1s-.5,2.3-1.4,3.1c-.8.6-1.7,1-2.7,1ZM36.6,12.9c-1.5,0-2.6,1.2-2.6,2.6s1.2,2.6,2.6,2.6,1.3-.2,1.7-.7c.6-.5.9-1.2.9-2s-.3-1.5-.9-2c-.5-.3-1.1-.5-1.7-.5Z"/>
  <path class="cls-1" d="M11.3,29.4h20.6v1.5H11.3v-1.5Z"/>
  <path class="cls-1" d="M17.9,26h4.4v1.5h-4.4v-1.5Z"/>
  <path class="cls-1" d="M24.6,26h4.4v1.5h-4.4v-1.5Z"/>
  <path class="cls-1" d="M57.7,58.7l-2.7-3-2.2,2.4-2.7-3,1.1-1,1.6,1.8,2.2-2.4,1.2,1.3v-30.1l-1.2,1.4-2.1-2.4-2.2,2.4-2.2-2.4-2.2,2.4-2.2-2.4-2.1,2.4-2.2-2.4-2.2,2.4-2.2-2.4-2.1,2.4-1.3-1.4v13.8h-1.5v-17.7l2.8,3,2.1-2.4,2.2,2.4,2.2-2.4,2.2,2.4,2.2-2.4,2.1,2.4,2.2-2.4,2.2,2.4,2.1-2.4,2.2,2.4,2.7-3v37.9Z"/>
  <path class="cls-1" d="M30.5,58.7v-16.8h1.5v12.9l1.2-1.3,2.2,2.4,2.2-2.4,2.2,2.4,2.1-2.4,2.2,2.4,2.2-2.4,2.7,3-1.1,1-1.6-1.8-2.2,2.4-2.1-2.4-2.2,2.4-2.2-2.4-2.2,2.4-2.2-2.4-2.7,3Z"/>
  <path class="cls-1" d="M38.6,34.3h-2.3c-1,0-1.7-.8-1.7-1.7v-1.1c0-1,.8-1.7,1.7-1.7h2.3c1,0,1.7.8,1.7,1.7v.5h-1.5v-.5c0-.1,0-.2-.2-.2h-2.3c0,0-.2.1-.2.2v1.1c0,0,0,.2.2.2h2.3v1.5Z"/>
  <path class="cls-1" d="M38.6,37.3h-2.3c-1,0-1.7-.8-1.7-1.7v-.5h1.5v.5c0,0,0,.2.2.2h2.3c0,0,.2,0,.2-.2v-1.1c0,0,0-.2-.2-.2h-2.3v-1.5h2.3c1,0,1.7.8,1.7,1.7v1.1c0,.9-.7,1.7-1.7,1.7Z"/>
  <path class="cls-1" d="M36.8,28.7h1.5v1.8h-1.5v-1.8Z"/>
  <path class="cls-1" d="M36.8,36.6h1.5v1.8h-1.5v-1.8Z"/>
  <path class="cls-1" d="M42.7,28.2h10.9v1.5h-10.9v-1.5Z"/>
  <path class="cls-1" d="M42.7,32.5h10.9v1.5h-10.9v-1.5Z"/>
  <path class="cls-1" d="M42.7,36.9h10.9v1.5h-10.9v-1.5Z"/>
  <path class="cls-1" d="M34.6,41.2h19v1.5h-19v-1.5Z"/>
  <path class="cls-1" d="M34.6,45.5h19v1.5h-19v-1.5Z"/>
  <path class="cls-1" d="M34.6,49.9h10.9v1.5h-10.9v-1.5Z"/>
</svg>