<?xml version="1.0" encoding="UTF-8"?>
<svg id="Outline" xmlns="http://www.w3.org/2000/svg" version="1.1" xmlns:svgjs="http://svgjs.dev/svgjs" viewBox="0 0 300 300">
  <defs>
    <style>
      .cls-1 {
        fill: #0887a9;
      }

      .cls-1, .cls-2, .cls-3 {
        stroke-width: 0px;
      }

      .cls-2 {
        fill: #757982;
      }

      .cls-3 {
        fill: #fff;
      }
    </style>
  </defs>
  <circle class="cls-1" cx="112.5" cy="257.8" r="18.8"/>
  <path class="cls-1" d="M42.2,201.6h89.1c2.6,0,4.7-2.1,4.7-4.7v-2.8c0-1.2-.4-2.3-1.2-3.2l-30.7-33.3c-4.5-4.8-10.7-7.5-17.2-7.5h-54c-2.6,0-4.7,2.1-4.7,4.7v32.8c0,7.7,6.3,14.1,14.1,14.1Z"/>
  <path class="cls-1" d="M42.2,201.6h89.1c2.6,0,4.7-2.1,4.7-4.7v-2.8c0-1.2-.4-2.3-1.2-3.2l-30.7-33.3c-4.5-4.8-10.7-7.5-17.2-7.5h-54c-2.6,0-4.7,2.1-4.7,4.7v32.8c0,7.7,6.3,14.1,14.1,14.1Z"/>
  <path class="cls-1" d="M167,105c11.6,0,21.1-9.5,21.1-21.1s-15.8-31.5-17.6-33.6c-1.8-2.1-5.2-2.1-7.1,0-1.8,2.1-17.6,20.4-17.6,33.6s9.5,21.1,21.1,21.1h0Z"/>
  <path class="cls-2" d="M220.3,23.4h-107.8c-2.6,0-4.7,2.1-4.7,4.7v89.1c0,2.6,2.1,4.7,4.7,4.7h107.8c2.6,0,4.7-2.1,4.7-4.7V28.1c0-2.6-2.1-4.7-4.7-4.7ZM215.6,112.5h-98.4V32.8h98.4v79.7ZM270.9,232.5c4.7-6.3,7.9-13.7,9.5-21.6h10.2c2.6,0,4.7-2.1,4.7-4.7v-79.7c0-2.6-2.1-4.7-4.7-4.7h-9.4v-11.7c0-5.9-2.8-11.5-7.5-15l-30-22.5V28.1c0-12.9-10.5-23.4-23.4-23.4h-107.8c-12.9,0-23.4,10.5-23.4,23.4v103.3c-.8,0-1.5-.1-2.3-.1H9.4c-2.6,0-4.7,2.1-4.7,4.7s2.1,4.7,4.7,4.7h77.3c9.1,0,17.9,3.8,24.1,10.5l45.1,48.9c.9,1,2.2,1.5,3.5,1.5h37.5c2.6,0,4.7,2.1,4.7,4.7v4.7h-18.8c-10.4,0-18.8,8.4-18.8,18.8s6.3,14.1,14.1,14.1h23.4v4.7c0,2.6-2.1,4.7-4.7,4.7h-47.2c-2.3-18.5-18.1-32.8-37.2-32.8s-34.9,14.3-37.2,32.8H9.4c-2.6,0-4.7,2.1-4.7,4.7s2.1,4.7,4.7,4.7h66c1.2,9.3,5.8,17.5,12.5,23.4H9.4c-2.6,0-4.7,2.1-4.7,4.7s2.1,4.7,4.7,4.7h281.2c2.6,0,4.7-2.1,4.7-4.7s-2.1-4.7-4.7-4.7h-46.9v-34c7.5-2.5,18.7-7.9,27.2-19.5h0ZM263.4,226.9c-6,8.2-13.6,12.6-19.7,15v-31h27.1c-1.2,4.8-3.4,10.5-7.5,15.9h0ZM285.9,201.6h-42.2v-70.3h42.2v70.3ZM268.1,102.7c2.3,1.8,3.7,4.5,3.7,7.5v11.7h-28.1v-37.5l24.4,18.3ZM178.1,234.4c-2.6,0-4.7-2.1-4.7-4.7,0-5.2,4.2-9.4,9.4-9.4h18.8v14.1h-23.4ZM84.4,257.8c0-15.5,12.6-28.1,28.1-28.1s28.1,12.6,28.1,28.1-12.6,28.1-28.1,28.1-28.1-12.6-28.1-28.1ZM137.2,285.9c6.7-5.9,11.3-14.2,12.5-23.4h47.2c7.7,0,14.1-6.3,14.1-14.1v-42.2c0-7.7-6.3-14.1-14.1-14.1h-35.4l-43.7-47.4c-5.3-5.7-12-9.7-19.3-11.8V28.1c0-7.7,6.3-14.1,14.1-14.1h107.8c7.7,0,14.1,6.3,14.1,14.1v257.8h-97.2ZM262.5,154.7v23.4c0,2.6-2.1,4.7-4.7,4.7s-4.7-2.1-4.7-4.7v-23.4c0-2.6,2.1-4.7,4.7-4.7s4.7,2.1,4.7,4.7Z"/>
  <path class="cls-3" d="M166.4,59c5.5,7.2,11.7,17.2,11.7,23.1s-5.2,11.7-11.7,11.7-11.7-5.3-11.7-11.7,6.2-15.9,11.7-23.1Z"/>
  <path class="cls-1" d="M262.5,154.7v23.4c0,2.6-2.1,4.7-4.7,4.7s-4.7-2.1-4.7-4.7v-23.4c0-2.6,2.1-4.7,4.7-4.7s4.7,2.1,4.7,4.7Z"/>
  <path class="cls-1" d="M225,145.3c0,2.6-2.1,4.7-4.7,4.7h-9.4c-2.6,0-4.7-2.1-4.7-4.7s2.1-4.7,4.7-4.7h9.4c2.6,0,4.7,2.1,4.7,4.7Z"/>
  <path class="cls-1" d="M192.2,145.3c0,2.6-2.1,4.7-4.7,4.7h-9.4c-2.6,0-4.7-2.1-4.7-4.7s2.1-4.7,4.7-4.7h9.4c2.6,0,4.7,2.1,4.7,4.7Z"/>
  <path class="cls-1" d="M159.4,145.3c0,2.6-2.1,4.7-4.7,4.7h-9.4c-2.6,0-4.7-2.1-4.7-4.7s2.1-4.7,4.7-4.7h9.4c2.6,0,4.7,2.1,4.7,4.7Z"/>
  <path class="cls-3" d="M37.5,159.4h49.2c3.9,0,7.7,1.6,10.4,4.5l26.1,28.3H42.2c-2.6,0-4.7-2.1-4.7-4.7v-28.1Z"/>
  <path class="cls-1" d="M28.1,215.6c0-2.6,2.1-4.7,4.7-4.7h28.1c2.6,0,4.7,2.1,4.7,4.7s-2.1,4.7-4.7,4.7h-28.1c-2.6,0-4.7-2.1-4.7-4.7Z"/>
  <path class="cls-3" d="M112.5,267.2c-5.2,0-9.4-4.2-9.4-9.4s4.2-9.4,9.4-9.4,9.4,4.2,9.4,9.4-4.2,9.4-9.4,9.4Z"/>
</svg>