<svg height="300" viewBox="0 0 64 64" width="300" xmlns="http://www.w3.org/2000/svg" version="1.1" xmlns:xlink="http://www.w3.org/1999/xlink" xmlns:svgjs="http://svgjs.dev/svgjs"><g transform="matrix(1,0,0,1,0,0)"><g id="ad"><g><path d="m37 6h-28c-.552 0-1 .448-1 1v15c0 .552.448 1 1 1h28c.552 0 1-.448 1-1v-15c0-.552-.448-1-1-1zm-1 15h-26v-13h26z" fill="#757984" fill-opacity="1" data-original-color="#000000ff" stroke="none" stroke-opacity="1"/><path d="m12 15h4c.552 0 1-.448 1-1s-.448-1-1-1h-4c-.552 0-1 .448-1 1s.448 1 1 1z" fill="#757984" fill-opacity="1" data-original-color="#000000ff" stroke="none" stroke-opacity="1"/><path d="m19 15h15c.552 0 1-.448 1-1s-.448-1-1-1h-15c-.552 0-1 .448-1 1s.448 1 1 1z" fill="#757984" fill-opacity="1" data-original-color="#000000ff" stroke="none" stroke-opacity="1"/><path d="m22 31v-6c0-.552-.448-1-1-1h-12c-.552 0-1 .448-1 1v6c0 .552.448 1 1 1h12c.552 0 1-.448 1-1zm-2-1h-10v-4h10z" fill="#757984" fill-opacity="1" data-original-color="#000000ff" stroke="none" stroke-opacity="1"/><path d="m23 33c-6.065 0-11 4.935-11 11s4.935 11 11 11 11-4.935 11-11-4.935-11-11-11zm0 20c-4.962 0-9-4.038-9-9s4.038-9 9-9 9 4.038 9 9-4.038 9-9 9z" fill="#757984" fill-opacity="1" data-original-color="#000000ff" stroke="none" stroke-opacity="1"/><path d="m23.832 38.445c-.371-.557-1.293-.557-1.664 0l-3.427 5.14c-.484.728-.741 1.575-.741 2.448v.552c0 1.179.459 2.288 1.293 3.121.833.834 1.942 1.293 3.121 1.293h1.172c1.179 0 2.288-.459 3.121-1.293.834-.833 1.293-1.942 1.293-3.121v-.552c0-.874-.256-1.72-.741-2.449l-3.427-5.14zm2.168 8.141c0 .635-.258 1.258-.707 1.707s-1.072.707-1.707.707h-1.172c-.635 0-1.258-.258-1.707-.707s-.707-1.072-.707-1.707v-.552c0-.478.14-.941.405-1.339l2.595-3.892 2.594 3.891c.266.398.406.862.406 1.34z" fill="#757984" fill-opacity="1" data-original-color="#000000ff" stroke="none" stroke-opacity="1"/><path d="m48 53h6c2.757 0 5-2.243 5-5v-24.095c1.713-.379 3-1.905 3-3.731v-8.174c0-.552-.448-1-1-1h-1v-5c0-.265-.105-.52-.293-.707l-4-4c-.391-.391-1.023-.391-1.414 0l-2 2c-.391.391-.391 1.023 0 1.414l2.707 2.707v3.725c-1.72.443-3 1.994-3 3.85v.011h-3c-.552 0-1 .448-1 1v3c0 .265.105.52.293.707l4 4c.181.181.431.293.707.293h1v23c0 .551-.449 1-1 1h-4c-.551 0-1-.449-1-1v-23c0-.552-.448-1-1-1h-5v-18c0-2.206-1.794-4-4-4h-30c-2.206 0-4 1.794-4 4v52h-1c-.552 0-1 .448-1 1v4c0 .552.448 1 1 1h40c.552 0 1-.448 1-1v-4c0-.552-.448-1-1-1h-1v-26h1v17c0 2.757 2.243 5 5 5zm6.414-49 .586-.586 3 3v4.586h-1v-4c0-.265-.105-.52-.293-.707zm-.414 10.989c0-1.097.893-1.989 1.989-1.989h4.011v7.174c0 1.007-.819 1.826-1.826 1.826h-4.174zm-4 2.011h2v3.586l-2-2zm-1 33h4c1.654 0 3-1.346 3-3v-23h1v24c0 1.654-1.346 3-3 3h-6c-1.654 0-3-1.346-3-3v-17h1v16c0 1.654 1.346 3 3 3zm-12 7c-.552 0-1 .448-1 1s.448 1 1 1h5v2h-38v-2h29c.552 0 1-.448 1-1s-.448-1-1-1h-27v-52c0-1.103.897-2 2-2h30c1.103 0 2 .897 2 2v52zm5-32h4v4h-4z" fill="#757984" fill-opacity="1" data-original-color="#000000ff" stroke="none" stroke-opacity="1"/></g></g></g></svg>