<?xml version="1.0" encoding="UTF-8"?>
<svg id="Layer_1" data-name="Layer 1" xmlns="http://www.w3.org/2000/svg" version="1.1" xmlns:svgjs="http://svgjs.dev/svgjs" viewBox="0 0 300 300">
  <defs>
    <style>
      .cls-1 {
        fill: #757984;
      }

      .cls-1, .cls-2 {
        stroke-width: 0px;
      }

      .cls-2 {
        fill: #00adcc;
      }
    </style>
  </defs>
  <g>
    <path class="cls-1" d="M187.5,241.2H30c-3.7,0-6.2-2.5-6.2-6.2V42.5c1.3-16.2,13.7-30,30-30h110c16.3,0,30,13.7,30,30v193.8c0,2.5-3.8,5-6.2,5ZM36.2,230h146.2V42.5c0-10-8.7-17.5-18.8-17.5H53.7c-10,0-18.8,7.5-18.8,17.5v187.5h1.3Z"/>
    <path class="cls-1" d="M156.2,108.7H62.5c-2.5,0-5-2.5-5-6.2v-50c-1.2-2.5,1.2-5,5-5h93.8c3.8,0,6.2,2.5,6.2,6.2v51.2c-1.3,1.3-3.8,3.8-6.2,3.8ZM67.5,97.5h82.5v-38.7h-82.5v38.7Z"/>
    <path class="cls-1" d="M187.5,282.5H30c-3.7,0-6.2-2.5-6.2-6.2v-41.2c0-3.7,2.5-6.2,6.2-6.2h157.5c3.8,0,6.2,2.5,6.2,6.2v41.2c0,3.7-3.8,6.2-6.2,6.2ZM36.2,270h146.2v-30H36.2v30Z"/>
    <path class="cls-1" d="M233.8,261.2c-13.8,0-25-11.2-25-25v-93.8c0-2.5,2.5-5,6.2-5s6.2,2.5,6.2,5v93.8c0,7.5,6.2,13.8,13.8,13.8s13.8-6.2,13.8-13.8V77.5c0-7.5-6.2-13.7-13.8-13.7h-26.3c-2.5,0-5-2.5-5-6.2s2.5-6.2,5-6.2h26.3c13.8,0,25,11.3,25,25v157.5c0,16.2-11.2,27.5-26.3,27.5h0Z"/>
    <path class="cls-1" d="M253.7,138.8c-1.3,0-2.5,0-3.7-2.5l-22.5-27.5c-1.3,0-2.5-1.3-2.5-2.5v-28.8c0-2.5,2.5-5,5-5,3.7,0,6.2,2.5,6.2,5v26.3l21.3,25c2.5,2.5,1.3,6.2-1.3,7.5,0,2.5-1.3,2.5-2.5,2.5h0Z"/>
  </g>
  <g>
    <path class="cls-2" d="M133.7,175h-43.8c-3.8,0-6.2-2.5-6.2-5v-38.8c0-3.8,2.5-6.2,6.2-6.2h43.8v11.2h-38.7v27.5h38.7v11.3Z"/>
    <path class="cls-2" d="M95,213.8h-11.3v-43.8c0-3.8,2.5-6.2,6.2-6.2h43.8v11.2h-38.7v38.8Z"/>
    <path class="cls-2" d="M133.5,163.8h11.3v43.8c0,3.8-2.5,6.2-6.3,6.2h-43.8v-11.2h38.7s0-38.8,0-38.8Z"/>
    <path class="cls-2" d="M133.5,136.2h-38.7s0-11.2,0-11.2h43.8c3.8,0,6.3,2.5,6.3,6.2v43.8s-11.3,0-11.3,0v-38.8Z"/>
  </g>
</svg>