<svg xmlns="http://www.w3.org/2000/svg" version="1.1" xmlns:xlink="http://www.w3.org/1999/xlink" width="512" height="512" x="0" y="0" viewBox="0 0 53 53" style="enable-background:new 0 0 512 512" xml:space="preserve" class=""><g><path d="M49.5 48.015h-7.93a2.368 2.368 0 0 0-2.341-2.038h-.708v-4.201h3.998l.009-.001a3.567 3.567 0 0 0 3.553-3.56v-10.2c1.37-.43 2.37-1.71 2.37-3.21v-3.11c0-1.51-1-2.79-2.37-3.22v-.79c0-.93.36-1.8 1.02-2.46l1.8-1.8a.996.996 0 0 0 0-1.41.978.978 0 0 0-1.41 0l-1.8 1.8a5.415 5.415 0 0 0-1.61 3.87v.79a3.386 3.386 0 0 0-2.36 3.22v3.11c0 1.5 1 2.78 2.36 3.21v10.2c0 .86-.7 1.56-1.56 1.56l-.005.001h-3.992l-.003.001V13.585c0-1.1-.9-2-2-2h-19.63a2 2 0 0 0-2 2v32.392h-.702a2.368 2.368 0 0 0-2.341 2.038H9.841V7.075h37.61c.56 0 1.08-.23 1.45-.6.37-.37.6-.87.6-1.44 0-1.13-.92-2.05-2.05-2.05H5.541c-.57 0-1.07.23-1.44.6s-.6.88-.6 1.45c0 1.13.91 2.04 2.04 2.04h.21v40.94H3.5a1 1 0 1 0 0 2h46a1 1 0 1 0 0-2zm-30.619-30.31c0-1.17.95-2.12 2.11-2.12h11.43c1.17 0 2.12.95 2.12 2.12v7.56c0 1.16-.95 2.11-2.12 2.11h-11.43c-1.16 0-2.11-.95-2.11-2.11v-7.56zm.01 20.27h15.63c.56 0 1 .45 1 1s-.44 1-1 1h-15.63c-.55 0-1-.45-1-1s.45-1 1-1z" fill="#0088a5" opacity="1" data-original="#000000" class=""></path></g></svg>