<?xml version="1.0" encoding="UTF-8"?>
<svg id="Layer_1" data-name="Layer 1" xmlns="http://www.w3.org/2000/svg" version="1.1" viewBox="0 0 18 18">
  <defs>
    <style>
      .cls-1 {
        fill: #e2e2e2;
      }

      .cls-1, .cls-2 {
        stroke-width: 0px;
      }

      .cls-2 {
        fill: #66bb6a;
      }
    </style>
  </defs>
  <g id="Layer_2" data-name="Layer 2">
    <path class="cls-2" d="M16.8,1.3c-.3-.3-.8-.6-1.2-.6H2.6c-.8,0-1.5.7-1.5,1.4v.4l.4,1.7c.2.7.8,1.1,1.4,1.1h12.1c.7,0,1.3-.4,1.4-1.1l.4-1.7c0-.4,0-.9-.3-1.3h.2Z"/>
    <path class="cls-1" d="M14,6.6H4.3c-.4,0-.9.3-1.2.6-.3.3-.3.8-.3,1.3l.5,1.7c.2.7.8,1.1,1.4,1.1h8.8c.7,0,1.3-.4,1.4-1.1l.5-1.7c0-.4,0-.9-.3-1.3s-.7-.6-1.2-.6h0Z"/>
    <path class="cls-1" d="M12.3,12.6h-6.4c-.8,0-1.4.7-1.4,1.5v.4l.5,1.7c.2.7.8,1.1,1.4,1.1h5.5c.7,0,1.3-.4,1.4-1.1l.4-1.7c.3-.8-.3-1.6-1-1.9h-.4Z"/>
  </g>
</svg>