<?xml version="1.0" encoding="UTF-8"?>
<svg id="svg2986" xmlns="http://www.w3.org/2000/svg" version="1.1" xmlns:svg="http://www.w3.org/2000/svg" viewBox="0 0 16 16">
  <defs>
    <style>
      .cls-1 {
        fill: #0088a5;
        stroke-width: 0px;
      }
    </style>
  </defs>
  <g id="layer1">
    <path id="circle2865" class="cls-1" d="M7.6.3C5.2.3,3.2,2.3,3.2,4.7s.7,2.8,1.9,3.6c-2.7,1.1-4.5,3.7-4.5,6.7,0,.4.3.7.7.7.4,0,.7-.3.7-.7,0-3.2,2.6-5.8,5.8-5.8s2.2.3,3,.9c.3.2.8.1,1-.2.2-.3.1-.8-.2-1-.4-.2-.8-.4-1.3-.6,1.1-.8,1.8-2.1,1.8-3.6C12.1,2.3,10.1.3,7.6.3h0ZM7.6,1.7c1.7,0,3,1.4,3,3s-1.4,3-3,3-3-1.3-3-3,1.3-3,3-3ZM11.2,10.8c-.4,0-.7.3-.7.7,0,.2,0,.4.2.5l1.3,1.3-1.3,1.3c-.3.3-.3.7,0,1s.7.3,1,0c0,0,0,0,0,0l1.3-1.3,1.3,1.3c.3.3.7.3,1,0,.3-.3.3-.7,0-1l-1.3-1.3,1.3-1.3c.3-.3.3-.7,0-1-.1-.1-.3-.2-.5-.2-.2,0-.4,0-.5.2l-1.3,1.3-1.3-1.3c-.1-.1-.3-.2-.5-.2Z" vector-effect="none"/>
  </g>
</svg>