<?xml version="1.0" encoding="UTF-8"?>
<svg id="Layer_1" data-name="Layer 1" xmlns="http://www.w3.org/2000/svg" version="1.1" viewBox="0 0 50 50">
  <defs>
    <style>
      .cls-1 {
        fill: #757984;
      }

      .cls-1, .cls-2 {
        stroke-width: 0px;
      }

      .cls-2 {
        fill: #00adcc;
      }
    </style>
  </defs>
  <g>
    <path class="cls-1" d="M37.3,7.4h-5c-.4,0-.8-.3-.8-.8V1.8c0-.4.3-.8.8-.8s.8.3.8.8v4.1h4.2c.4,0,.8.3.8.8s-.3.8-.8.8Z"/>
    <path class="cls-1" d="M35.5,49H4.6c-1.4,0-2.5-1.1-2.5-2.5V3.5c0-1.4,1.1-2.5,2.5-2.5h27.7c.2,0,.4,0,.5.2l5,5c.1.1.2.3.2.5v13.1c0,.4-.3.8-.8.8s-.8-.3-.8-.8V7l-4.5-4.6H4.6c-.6,0-1,.5-1,1v42.9c0,.6.5,1,1,1h30.9s0,0,.1,0v1.5s0,0-.1,0Z"/>
  </g>
  <g>
    <path class="cls-1" d="M17.7,8.6H7.4c-.4,0-.8-.3-.8-.8s.3-.8.8-.8h10.3c.4,0,.8.3.8.8s-.3.8-.8.8Z"/>
    <path class="cls-1" d="M32.6,11.7H7.4c-.4,0-.8-.3-.8-.8s.3-.8.8-.8h25.2c.4,0,.8.3.8.8s-.3.8-.8.8Z"/>
    <path class="cls-1" d="M17.7,14.8H7.4c-.4,0-.8-.3-.8-.8s.3-.8.8-.8h10.3c.4,0,.8.3.8.8s-.3.8-.8.8Z"/>
    <path class="cls-1" d="M27.9,18H7.4c-.4,0-.8-.3-.8-.8s.3-.8.8-.8h20.5c.4,0,.8.3.8.8s-.3.8-.8.8Z"/>
    <path class="cls-1" d="M17.7,21.1H7.4c-.4,0-.8-.3-.8-.8s.3-.8.8-.8h10.3c.4,0,.8.3.8.8s-.3.8-.8.8Z"/>
    <path class="cls-1" d="M27.1,24.2H7.4c-.4,0-.8-.3-.8-.8s.3-.8.8-.8h19.7c.4,0,.8.3.8.8s-.3.8-.8.8Z"/>
    <path class="cls-1" d="M17.7,27.3H7.4c-.4,0-.8-.3-.8-.8s.3-.8.8-.8h10.3c.4,0,.8.3.8.8s-.3.8-.8.8Z"/>
    <path class="cls-1" d="M27.1,30.4H7.4c-.4,0-.8-.3-.8-.8s.3-.8.8-.8h19.7c.4,0,.8.3.8.8s-.3.8-.8.8Z"/>
    <path class="cls-1" d="M17.7,33.5H7.4c-.4,0-.8-.3-.8-.8s.3-.8.8-.8h10.3c.4,0,.8.3.8.8s-.3.8-.8.8Z"/>
    <path class="cls-1" d="M27.9,36.7H7.4c-.4,0-.8-.3-.8-.8s.3-.8.8-.8h20.5c.4,0,.8.3.8.8s-.3.8-.8.8Z"/>
    <path class="cls-1" d="M17.7,39.8H7.4c-.4,0-.8-.3-.8-.8s.3-.8.8-.8h10.3c.4,0,.8.3.8.8s-.3.8-.8.8Z"/>
    <path class="cls-1" d="M26.7,42.9H7.4c-.4,0-.8-.3-.8-.8s.3-.8.8-.8h19.3c.4,0,.8.3.8.8s-.3.8-.8.8Z"/>
  </g>
  <g>
    <path class="cls-2" d="M46.3,49h-17c-1,0-1.7-.8-1.7-1.7v-1.2c0-4.7,3.9-8.6,8.6-8.6s.8.3.8.8-.3.8-.8.8c-3.9,0-7.1,3.2-7.1,7.1v1.2c0,.1.1.2.2.2h17c.1,0,.2,0,.2-.2v-1.6c0-3.7-3-6.7-6.7-6.7h-.4c-.4,0-.8-.3-.8-.8s.3-.8.8-.8h.4c4.5,0,8.2,3.7,8.2,8.2v1.6c0,1-.8,1.7-1.7,1.7Z"/>
    <path class="cls-2" d="M37.7,41.5c-1.3,0-2.4-1.1-2.4-2.4v-1.6c0-.4.3-.8.8-.8s.8.3.8.8v1.6c0,.5.4.9.9.9s.9-.4.9-.9v-1.6c0-.4.3-.8.8-.8s.8.3.8.8v1.6c0,1.3-1.1,2.4-2.4,2.4Z"/>
    <path class="cls-2" d="M37.7,38.3h0c-1.8,0-3.4-.8-4.6-2.2-1.6-1.9-2.4-4.9-1.9-7.8,0-1.2.7-3.6,3.3-4.6,1.5-.5,2.5.7,3.3,1.7,1.2,1.5,2.5,3.1,5.5,2.1.2,0,.4,0,.6,0s.3.3.4.5c.6,2.7,0,5.7-1.7,7.8-1.3,1.6-3,2.5-4.8,2.5ZM35.2,25.1c0,0-.1,0-.2,0-2.4.9-2.3,3.2-2.3,3.2,0,0,0,0,0,.1-.4,2.5.2,5.1,1.5,6.7.9,1.1,2.1,1.7,3.5,1.7h0c1.8,0,3-1,3.7-1.9,1.2-1.5,1.8-3.7,1.5-5.8-3.4.7-5.1-1.4-6.3-2.8-.8-.9-1.1-1.3-1.5-1.3Z"/>
    <path class="cls-2" d="M44.1,33.2c-.1,0-.3,0-.4,0-.4,0-.7-.5-.6-.9s.5-.7.9-.6c.5,0,1-.3,1-.8s-.5-.9-1-.8c-.4,0-.8-.2-.9-.6s.2-.8.6-.9c.1,0,.2,0,.4,0,1.3,0,2.3,1,2.3,2.3s-1,2.3-2.3,2.3Z"/>
    <path class="cls-2" d="M31.5,33.2c-1.3,0-2.3-1-2.3-2.3s1-2.3,2.3-2.3.2,0,.4,0c.4,0,.7.5.6.9s-.5.7-.9.6c-.5,0-1,.3-1,.8s.5.9,1,.8c.4,0,.8.2.9.6,0,.4-.2.8-.6.9-.1,0-.3,0-.4,0Z"/>
    <path class="cls-2" d="M37.6,35.5c-.7,0-1.3-.2-1.9-.6-.3-.2-.4-.7-.2-1s.7-.4,1-.2c.4.3,1.2.6,2.5,0,.4-.2.8,0,1,.3s0,.8-.3,1c-.7.4-1.4.5-2.1.5Z"/>
    <path class="cls-2" d="M40.3,31.2h-.3c-.4,0-.8-.3-.8-.8s.3-.8.8-.8h.3c.4,0,.8.3.8.8s-.3.8-.8.8Z"/>
    <path class="cls-2" d="M35.5,31.2h-.3c-.4,0-.8-.3-.8-.8s.3-.8.8-.8h.3c.4,0,.8.3.8.8s-.3.8-.8.8Z"/>
    <path class="cls-2" d="M30.2,30.6c-.4,0-.7-.2-.7-.6-1-5.2.8-7.6,1.9-8.6-.6-1.2-.4-2.8-.3-3,0-.3.3-.5.6-.6s.6,0,.8.3c.6.8,2.7,1,3.8.9,3.7,0,6.5,1.1,8.2,3.2,2.6,3.2,1.7,7.6,1.7,7.8,0,.4-.5.7-.9.6-.4,0-.7-.5-.6-.9,0,0,.8-3.9-1.4-6.5-1.4-1.7-3.7-2.6-6.9-2.7-.2,0-2.2.1-3.8-.5,0,.5.2.9.4,1,.2.2.3.4.3.7s-.2.5-.4.6c-.1,0-3,1.5-1.9,7.4,0,.4-.2.8-.6.9,0,0-.1,0-.2,0Z"/>
    <path class="cls-2" d="M30.9,49c-.4,0-.8-.3-.8-.8v-3.9c0-.4.3-.8.8-.8s.8.3.8.8v3.9c0,.4-.3.8-.8.8Z"/>
    <path class="cls-2" d="M30.9,46.8h-2.6c-.4,0-.8-.3-.8-.8s.3-.8.8-.8h2.6c.4,0,.8.3.8.8s-.3.8-.8.8Z"/>
    <path class="cls-2" d="M44.6,49c-.4,0-.8-.3-.8-.8v-3.9c0-.4.3-.8.8-.8s.8.3.8.8v3.9c0,.4-.3.8-.8.8Z"/>
    <path class="cls-2" d="M47.2,46.8h-2.6c-.4,0-.8-.3-.8-.8s.3-.8.8-.8h2.6c.4,0,.8.3.8.8s-.3.8-.8.8Z"/>
    <path class="cls-2" d="M37.7,49c-.4,0-.8-.3-.8-.8v-1.4c0-.4.3-.8.8-.8s.8.3.8.8v1.4c0,.4-.3.8-.8.8Z"/>
    <path class="cls-2" d="M37.7,45.3c-.4,0-.8-.3-.8-.8v-1.4c0-.4.3-.8.8-.8s.8.3.8.8v1.4c0,.4-.3.8-.8.8Z"/>
  </g>
  <path class="cls-1" d="M205.9-26c-3.1,0-5.7,2.5-5.7,5.7s2.5,5.7,5.7,5.7,5.7-2.5,5.7-5.7-2.5-5.7-5.7-5.7ZM205.9-18.4c-1.1,0-1.9-.9-1.9-1.9s.9-1.9,1.9-1.9,1.9.9,1.9,1.9-.9,1.9-1.9,1.9Z"/>
  <path class="cls-1" d="M205.9-8.9c-3.1,0-5.7,2.5-5.7,5.7s2.5,5.7,5.7,5.7,5.7-2.5,5.7-5.7-2.5-5.7-5.7-5.7ZM205.9-1.3c-1.1,0-1.9-.9-1.9-1.9s.9-1.9,1.9-1.9,1.9.9,1.9,1.9-.9,1.9-1.9,1.9Z"/>
  <path class="cls-1" d="M205.9,8.2c-3.1,0-5.7,2.5-5.7,5.7s2.5,5.7,5.7,5.7,5.7-2.5,5.7-5.7-2.5-5.7-5.7-5.7ZM205.9,15.9c-1.1,0-1.9-.9-1.9-1.9s.9-1.9,1.9-1.9,1.9.9,1.9,1.9-.9,1.9-1.9,1.9Z"/>
  <path class="cls-1" d="M205.9,25.4c-3.1,0-5.7,2.5-5.7,5.7s2.5,5.7,5.7,5.7,5.7-2.5,5.7-5.7-2.5-5.7-5.7-5.7ZM205.9,33c-1.1,0-1.9-.9-1.9-1.9s.9-1.9,1.9-1.9,1.9.9,1.9,1.9-.9,1.9-1.9,1.9Z"/>
  <rect class="cls-1" x="215.4" y="-22" width="4" height="3.7"/>
  <rect class="cls-1" x="215.4" y="-4.8" width="4" height="3.7"/>
  <rect class="cls-1" x="215.4" y="12.2" width="4" height="3.7"/>
  <rect class="cls-1" x="215.4" y="29.6" width="4" height="3.7"/>
  <rect class="cls-1" x="223.1" y="-22" width="30.4" height="3.7"/>
  <rect class="cls-1" x="223.1" y="-4.8" width="30.4" height="3.7"/>
  <rect class="cls-1" x="223.1" y="12.2" width="30.4" height="3.7"/>
  <rect class="cls-1" x="223.1" y="29.6" width="30.4" height="3.7"/>
</svg>