<svg id="Layer_1" enable-background="new 0 0 512 512" viewBox="0 0 512 512" xmlns="http://www.w3.org/2000/svg" width="300" height="300" version="1.1" xmlns:xlink="http://www.w3.org/1999/xlink" xmlns:svgjs="http://svgjs.dev/svgjs"><g transform="matrix(1,0,0,1,0,0)"><path d="m17.889 229.819c-7.295-76.919 40.37-156.212 118.757-174.164l-1.447-13.769c-.479-4.545 4.465-7.878 8.533-5.366l58.169 35.919c3.131 1.933 3.589 6.294.929 8.836l-49.43 47.228c-3.457 3.304-8.987 1.071-9.462-3.476l-1.319-12.555c-63.231 8.404-110.243 75.52-124.73 117.347zm449.082 119.69c52.865-60.598 44.819-152.764-6.294-210.705 12.864 42.354 14.281 124.285-31.934 168.248l-8.447-9.382c-3.056-3.399-8.843-1.955-9.698 2.75l-12.23 67.263c-.658 3.621 2.276 6.88 5.945 6.603l68.173-5.131c4.768-.359 6.809-5.961 3.75-9.357zm-319.208.267c-.325 4.341 3.064 7.993 7.416 7.993h197.781c4.352 0 7.742-3.652 7.416-7.993-4.122-54.937-50.362-98.612-106.307-98.612s-102.185 43.675-106.306 98.612zm-64.87-31.961 12.348 2.625c4.471.953 8.303-3.617 6.229-7.925l-29.642-61.605c-1.596-3.316-5.885-4.228-8.691-1.847l-52.137 44.222c-3.646 3.093-2.005 8.825 2.466 9.774l13.542 2.878c-7.15 80.098 53.533 149.932 128.942 166.765-35.302-26.705-84.606-92.156-73.057-154.887zm273.472-211.993-11.533 5.135c-4.177 1.857-4.592 7.807-.381 10.073l60.191 32.416c3.24 1.745 7.246-.038 8.117-3.614l16.186-66.422c1.132-4.646-3.565-8.318-7.74-6.458l-12.648 5.631c-41.296-69.002-131.437-89.83-202.337-59.124 44.256.854 122.615 24.824 150.145 82.363zm-44.679 77.725c0-31.821-25.796-57.617-57.617-57.617s-57.617 25.796-57.617 57.617 25.796 57.617 57.617 57.617 57.617-25.796 57.617-57.617zm-51.959 254.524 6.312-10.933c2.288-3.957-.874-9.014-5.613-8.374l-67.75 9.154c-3.647.493-5.84 4.29-4.443 7.694l25.947 63.251c1.815 4.424 7.773 4.634 10.057.675l6.922-11.99c73.968 31.552 159.137-4.582 198.448-71.098-36.304 25.323-113.787 51.989-169.88 21.621z" fill="#0088a5ff" data-original-color="#000000ff" stroke="none"/></g></svg>