<svg width="18" height="18" viewBox="0 0 18 18" fill="none" xmlns="http://www.w3.org/2000/svg">
<g clip-path="url(#clip0_1_951)">
<path d="M8.18675 0V1.65054C4.49485 2.32927 2.32777 4.49544 1.64187 8.19032H0.000488281V9.81927H1.64139C2.32489 13.5122 4.49101 15.6789 8.18004 16.3619V18H9.80895V16.3615C13.4941 15.6856 15.6622 13.5209 16.3514 9.81543H18.0005V8.19704H16.3514C15.6627 4.49305 13.4956 2.32831 9.80511 1.65054V0H8.18723H8.18675ZM14.7264 8.99904C14.7388 12.1413 12.1708 14.7186 9.00744 14.7383C5.86954 14.7579 3.29236 12.1922 3.26502 9.02254C3.23816 5.88456 5.83405 3.27949 8.99305 3.27469C12.1391 3.26989 14.7144 5.84091 14.7268 8.99904H14.7264Z" fill="#0088A5"/>
<path d="M8.9998 12.279C10.8081 12.2766 12.273 10.8055 12.2682 8.9976C12.2629 7.18878 10.7908 5.72531 8.98349 5.73299C7.18143 5.74066 5.72423 7.20365 5.72375 9.00528C5.72375 10.8136 7.19198 12.2809 8.9998 12.2785V12.279Z" fill="#0088A5"/>
</g>
<defs>
<clipPath id="clip0_1_951">
<rect width="18" height="18" fill="white" transform="matrix(1 0 0 -1 0.000488281 18)"/>
</clipPath>
</defs>
</svg>
