<?xml version="1.0" encoding="UTF-8"?>
<svg id="Layer_1" data-name="Layer 1" xmlns="http://www.w3.org/2000/svg" version="1.1" viewBox="0 0 18 18">
  <defs>
    <style>
      .cls-1 {
        fill: #e2e2e2;
      }

      .cls-1, .cls-2 {
        stroke-width: 0px;
      }

      .cls-2 {
        fill: #fbc02d;
      }
    </style>
  </defs>
  <g id="Layer_2" data-name="Layer 2">
    <path class="cls-1" d="M16.7,1.5c-.2-.3-.7-.6-1.2-.6H2.7c-.8,0-1.5.7-1.5,1.4v.4l.4,1.7c.2.7.7,1.1,1.4,1.1h11.9c.7,0,1.2-.4,1.4-1.1l.4-1.7c0-.4,0-.9-.2-1.2,0,0,.2,0,.2,0Z"/>
    <path class="cls-2" d="M13.9,6.7H4.4c-.4,0-.9.2-1.2.6-.2.3-.3.8-.2,1.2l.5,1.7c.2.7.7,1.1,1.4,1.1h8.6c.7,0,1.2-.4,1.4-1.1l.5-1.7c0-.4,0-.9-.2-1.2s-.7-.6-1.2-.6c0,0,0,0,0,0Z"/>
    <path class="cls-1" d="M12.3,12.5h-6.3c-.8,0-1.4.7-1.4,1.5v.4l.5,1.7c.2.7.7,1.1,1.4,1.1h5.4c.7,0,1.2-.4,1.4-1.1l.4-1.7c.2-.7-.2-1.6-1-1.8h-.4Z"/>
  </g>
</svg>