<?xml version="1.0" encoding="UTF-8"?>
<svg id="svg2986" xmlns="http://www.w3.org/2000/svg" version="1.1" xmlns:svg="http://www.w3.org/2000/svg" viewBox="0 0 16 16">
  <defs>
    <style>
      .cls-1 {
        fill: none;
        stroke-linecap: round;
        stroke-linejoin: round;
        stroke-width: 1.3px;
      }

      .cls-1, .cls-2 {
        stroke: #0088a5;
      }

      .cls-2 {
        fill: #0088a5;
        stroke-miterlimit: 10;
        stroke-width: .2px;
      }
    </style>
  </defs>
  <g>
    <circle class="cls-1" cx="-21.8" cy="1.2" r="2.8"/>
    <path class="cls-1" d="M-24.6,10.8h8.3s-.7-3-.7-3c-.2-.9-1-1.6-2-1.6h-5.6c-1,0-1.8.6-2,1.6l-.6,3"/>
    <g>
      <path class="cls-1" d="M-12.7,4h-4"/>
      <path class="cls-1" d="M-14.4,5.7l1.7-1.7-1.7-1.7"/>
    </g>
  </g>
  <g id="Out_line" data-name="Out line">
    <path class="cls-2" d="M15.7,7.9l-4-4,3.2-3.2-.4-.4-3.4,3.4c-.1.1-.1.3,0,.4,0,0,0,0,0,0h0c0,0-1,1.1-1,1.1h-1.2c-.4,0-.7,0-1.1.1-.3,0-.7-.1-1.1-.1h-1.2l-1-1h0c.1-.2.1-.3,0-.4,0,0,0,0,0,0L1.4.4l-.4.4,3.2,3.2L.3,7.9c-.1.1-.1.3,0,.4h0s.8.8.8.8c.1.1.3.1.4,0h0s.6-.6.6-.6l.5.5c.2.2.3.4.3.7,0,.4.2.8.4,1.1l.2.2c-.3.3-.3.8,0,1.1l.3.3c.1.1.3.2.5.2,0,.2,0,.4.2.5l.3.3c.1.1.3.2.5.2,0,.2,0,.4.2.5l.3.3c.1.1.3.2.5.2,0,.2,0,.4.2.5l.3.3c.3.3.8.3,1.1,0,.3.3.8.3,1.1,0l.3-.3c.1-.1.2-.3.2-.5.2,0,.4,0,.5-.2l.3-.3c.1-.1.2-.3.2-.5.2,0,.4,0,.5-.2l.3-.3c.1-.1.2-.3.2-.5.2,0,.4,0,.5-.2l.3-.3c.3-.3.3-.8,0-1.1l.2-.2c.3-.3.4-.7.4-1.1,0-.3.1-.5.3-.7l.5-.5.6.6c.1.1.3.1.4,0h0s.8-.8.8-.8c.1-.1.1-.3,0-.4,0,0,0,0,0,0ZM1.3,8.5l-.4-.4,3.5-3.5.4.4-3.5,3.5ZM3.9,11.7c-.1-.1-.1-.3,0-.4l1.1-1.1c.1-.1.3-.1.4,0l.3.3c.1.1.1.3,0,.4l-1.1,1.1c-.1.1-.3.1-.4,0l-.3-.3ZM4.9,12.7c-.1-.1-.1-.3,0-.4l1.3-1.3c.1-.1.3-.1.4,0l.3.3c.1.1.1.3,0,.4l-1.3,1.3c-.1.1-.3.1-.4,0l-.3-.3ZM6,13.7c-.1-.1-.1-.3,0-.4l1.1-1.1c.1-.1.3-.1.4,0l.3.3c.1.1.1.3,0,.4l-1.1,1.1c-.1.1-.3.1-.4,0l-.3-.3ZM7.3,15.1l-.3-.3c-.1-.1-.1-.3,0-.4l1.1-1.1c.1-.1.3-.1.4,0l.3.3c.1.1.1.3,0,.4l-1.1,1.1c-.1.1-.3.1-.4,0h0ZM9,14.8l-.3.3c0,0-.2.1-.3,0l.7-.7c0,.1,0,.2,0,.3h0ZM12.1,11.7l-.3.3c-.1.1-.3.1-.4,0l-.2-.2-1.8-1.8-.4.4,1.8,1.8.2.2c.1.1.1.3,0,.4l-.3.3c-.1.1-.3.1-.4,0l-.2-.2-1.8-1.8-.4.4,1.8,1.8.2.2c.1.1.1.3,0,.4l-.3.3c-.1.1-.3.1-.4,0h0c0-.3,0-.6-.2-.8l-.3-.3c-.1-.1-.3-.2-.5-.2,0-.2,0-.4-.2-.5l-.3-.3c0,0-.2-.1-.3-.2.1-.3,0-.6-.2-.8l-.3-.3c-.2-.2-.5-.3-.8-.2,0-.1-.1-.2-.2-.3l-.3-.3c-.3-.3-.8-.3-1.1,0l-.7.7-.2-.2c-.2-.2-.3-.4-.3-.7,0-.4-.2-.8-.4-1.1l-.5-.5,2.7-2.7.3.3s.1,0,.2,0h1.2c-.4.2-.8.5-1.2.9-.4.4-.4,1,0,1.4.4.4,1,.4,1.4,0l.9-.9,4,4,.2.2c.1.1.1.3,0,.4h0ZM13.1,8.6c-.3.3-.4.7-.4,1.1,0,.3-.1.5-.3.7l-.2.2-4-4c-.1-.1-.3-.1-.4,0l-1,1c-.2.2-.5.2-.7,0s-.2-.5,0-.7c.8-.8,1.8-1.2,2.9-1.2h1.3c0,0,.1,0,.2,0l.3-.3,2.7,2.7-.5.5ZM14.7,8.5l-3.5-3.5.4-.4,3.5,3.5-.4.4Z"/>
  </g>
</svg>