<?xml version="1.0" encoding="UTF-8"?>
<svg id="Layer_1" data-name="Layer 1" xmlns="http://www.w3.org/2000/svg" version="1.1" viewBox="0 0 128 128">
  <defs>
    <style>
      .cls-1 {
        fill: #00adcc;
        fill-rule: evenodd;
      }

      .cls-1, .cls-2 {
        stroke-width: 0px;
      }

      .cls-2 {
        fill: #757984;
      }
    </style>
  </defs>
  <path class="cls-2" d="M76,72c-.1,0-.2,0-.3,0l1.5,4c7.7.6,13.5,7.4,12.8,15.1-.6,7.7-7.4,13.5-15.1,12.8-7.7-.6-13.5-7.4-12.8-15.1.3-3.2,1.6-6.3,3.9-8.6l-1.5-4c-7.6,6.4-8.6,17.7-2.2,25.3,6.4,7.6,17.7,8.6,25.3,2.2,7.6-6.4,8.6-17.7,2.2-25.3-3.4-4.1-8.5-6.4-13.8-6.4Z"/>
  <path class="cls-2" d="M126,27.6h0c-4-7.2-13.1-9.7-20.2-5.7-2.4,1.3-4.4,3.3-5.7,5.7-2.7,4.7-2.7,10.5,0,15.2l9.9,17.4c1,1.7,3.1,2.3,4.8,1.3.6-.3,1-.8,1.3-1.3l9.9-17.4c2.7-4.7,2.7-10.5,0-15.2ZM122.5,40.8l-9.5,16.7-9.5-16.7c-2-3.5-2-7.7,0-11.2,2.9-5.2,9.5-7.1,14.8-4.2,1.8,1,3.2,2.4,4.2,4.2h0c2,3.5,2,7.7,0,11.2Z"/>
  <path class="cls-2" d="M115.1,68c-.5-1-1.8-1.3-2.7-.8-.3.2-.6.4-.8.8l-2.6,4.6c-.5,1-.2,2.2.7,2.7.5.3,1.1.3,1.6.2.6,16.7-11.2,19.4-11.7,19.5-1.1.2-1.8,1.3-1.6,2.3.2,1.1,1.3,1.8,2.3,1.6.2,0,15.6-3.3,15-23.5.5.2,1.1.1,1.6-.1,1-.5,1.3-1.8.8-2.7l-2.6-4.6Z"/>
  <path class="cls-2" d="M18,84c-3.3,0-6,2.7-6,6s2.7,6,6,6c2.5,0,4.8-1.6,5.7-4h15c-.8-1.2-1.3-2.5-1.4-3.9h0c0,0-13.6,0-13.6,0-.2-.5-.4-1-.7-1.4l4.4-7c1.4,1.2,2.5,2.7,3.3,4.4h4.3c-.4-1.2-1-2.4-1.7-3.4.9-.2,1.8-.4,2.8-.7l-.6-4c-1.7.6-3.4.9-5.1,1.1-.3-.3-.6-.5-.9-.8l3.3-5.2c-1.1,0-1.9,0-1.9,0,0,0-.1,0-.2,0-.8,0-1.5-.2-2.3-.4l-2.3,3.5c-2.5-1.3-5.3-2-8.2-2C8.1,72,0,80,0,90c0,9.9,8,18,18,18,7.6,0,14.4-4.8,17-12h-4.3c-3.3,7-11.7,9.9-18.6,6.6-7-3.3-9.9-11.7-6.6-18.6,2.3-4.9,7.2-8,12.6-8,2.1,0,4.1.5,6,1.4l-4.4,6.9c-.5-.2-1.1-.2-1.7-.2ZM18,92c-1.1,0-2-.9-2-2s.9-2,2-2,2,.9,2,2c0,1.1-.9,2-2,2Z"/>
  <path class="cls-2" d="M13,68h11.3c-.4-.3-.7-.7-1-1.1-.7-.9-1.2-1.8-1.6-2.9h-8.7c-1.1,0-2,.9-2,2s.9,2,2,2Z"/>
  <path class="cls-2" d="M55,52.1c0-1.1-.8-2-1.9-2.1l-12.1-.8c0,0-.1,0-.2,0l-1.2-2.1c-.5-1-1.8-1.3-2.7-.8s-1.3,1.8-.8,2.7l1.3,2.4c.8,1.1,2,1.8,3.4,1.8l11.9.8c1.1,0,2-.8,2.1-1.9Z"/>
  <path class="cls-2" d="M40,39c3.9,0,7-3.1,7-7s-3.1-7-7-7-7,3.1-7,7c0,3.9,3.1,7,7,7ZM40,29c1.7,0,3,1.3,3,3s-1.3,3-3,3-3-1.3-3-3c0-1.7,1.3-3,3-3Z"/>
  <path class="cls-2" d="M72.1,85.4c-2.5,2.1-2.9,5.9-.7,8.4,2.1,2.5,5.9,2.9,8.4.7,2.5-2.1,2.9-5.9.7-8.4-1.1-1.4-2.8-2.1-4.6-2.1,0,0,0,0-.1,0l-12.6-33.6,2.8-1.7c.9-.6,1.3-1.8.7-2.7-.6-.9-1.8-1.3-2.7-.7l-5.9,3.5c.7,1.3,1,2.7.8,4.2l.9-.5,4.6,12.3-4,4.8-2.1-2.1c.7-.7,1.3-1.5,2-2.3l-1.7-4.5c-1.3,1.9-2.9,3.8-4.6,5.4,0,.4.2,4.3.2,5.1.4-.3.8-.7,1.2-1l2.3,2.3-3.3,3.8c0,2,.2,4,.3,5.9l11.2-13.2,6.1,16.3ZM78,90c0,1.1-.9,2-2,2s-2-.9-2-2,.9-2,2-2c1.1,0,2,.9,2,2Z"/>
  <path class="cls-2" d="M41.2,42.9c.8.5,1.5,1.3,2,2.1v.3c.1,0,3,.2,3,.2-.2-1.3-.7-2.5-1.5-3.6-1.1.5-2.3.9-3.6,1Z"/>
  <path class="cls-2" d="M46.5,57.7s-5.8-.3-5.8-.3l-.3,1.8c-.2,1.1.6,2.1,1.7,2.3,0,0,.1,0,.2,0l3.5.2c0,1,.8,18,1.2,25.3,0,.5-.3,1-.8,1-.5,0-1-.3-1-.8,0,0,0-.1,0-.2l-3.2-22c-.1-.9-.9-1.7-1.9-1.7-3.4-.2-8.8-.5-8.9-.5-1.4-.2-2.5-1.4-2.3-2.9,0,0,0-.1,0-.2l2.3-13.4c.2-1.5,1.1-2.8,2.3-3.7.6-.4,1.2-.6,1.9-.7-1.5-.7-2.8-1.6-3.8-2.8,0,0-3.6,2.7-4.3,6.5l-2.3,13.5c-.3,1.9.2,3.8,1.3,5.3,1.1,1.4,2.8,2.3,4.7,2.5,0,0,4,.2,7.2.4l2.9,20.3c.2,2.5,2.3,4.5,4.9,4.5,2.8,0,5-2.4,4.9-5.2-.3-7.3-1.1-23.9-1.2-25.3,0-1.9-1.4-3.6-3.3-3.8Z"/>
  <path id="path31555" class="cls-1" d="M107.7,28.4c-.5,0-.8.4-.8.8v11.8c0,.5.4.8.8.8h5.9c.5,0,.8-.4.8-.8v-5.1h.8v1.7c0,1.4,1.1,2.5,2.5,2.5s2.5-1.1,2.5-2.5v-5.1c0-.5-.4-.8-.8-.8s-.8.4-.8.8v5.1c0,.5-.4.8-.8.8s-.8-.4-.8-.8v-2.5c0-.5-.4-.8-.8-.8h-1.7v-5.1c0-.5-.4-.8-.8-.8h-5.9ZM108.5,30.1h4.2v2.5h-4.2v-2.5ZM108.5,34.3h4.2v5.9h-4.2v-5.9Z"/>
</svg>