<?xml version="1.0" encoding="UTF-8"?>
<svg id="Layer_1" data-name="Layer 1" xmlns="http://www.w3.org/2000/svg" version="1.1" viewBox="0 0 35 35">
  <defs>
    <style>
      .cls-1 {
        fill: #004282;
        stroke-width: 0px;
      }
    </style>
  </defs>
  <g id="Cancel">
    <path class="cls-1" d="M29,3.9h-2.8v-.2c0-.5-.4-1-1-1s-1,.4-1,1v.2h-5.7v-.2c0-.5-.4-1-1-1s-1,.4-1,1v.2h-5.7v-.2c0-.5-.4-1-1-1s-1,.4-1,1v.2h-2.8c-2.7,0-4.9,2.2-4.9,4.9v18.5c0,2.7,2.2,4.9,4.9,4.9h22.9c2.7,0,4.9-2.2,4.9-4.9V8.8c0-2.7-2.2-4.9-4.9-4.9ZM31.9,27.3c0,1.6-1.3,2.9-2.9,2.9H6c-1.6,0-2.9-1.3-2.9-2.9V8.8c0-1.6,1.3-2.9,2.9-2.9h2.8v.2c0,.5.4,1,1,1s1-.4,1-1v-.2h5.7v.2c0,.5.4,1,1,1s1-.4,1-1v-.2h5.7v.2c0,.5.4,1,1,1s1-.4,1-1v-.2h2.8c1.6,0,2.9,1.3,2.9,2.9v18.5h0Z"/>
  </g>
  <g>
    <path class="cls-1" d="M16.5,19.5c.6.6,1.4.6,2,0,.6-.6.6-1.4,0-2-.1-.1-.2-.2-.3-.2-.2-2.3-.7-4.1-.7-4.1,0,0-.5,1.7-.7,4.1-.1,0-.2.1-.3.2-.1.1-.2.2-.2.3-2.3.1-4.1.7-4.1.7,0,0,1.7.5,4.1.7,0,.1.1.2.2.3Z"/>
    <path class="cls-1" d="M17.5,28.1c5.3,0,9.6-4.3,9.6-9.6s-4.3-9.6-9.6-9.6-9.6,4.3-9.6,9.6,4.3,9.6,9.6,9.6ZM17.5,10.4c4.5,0,8.1,3.7,8.1,8.1s-3.7,8.1-8.1,8.1-8.1-3.7-8.1-8.1,3.7-8.1,8.1-8.1Z"/>
    <path class="cls-1" d="M17.5,26.3c4.3,0,7.8-3.5,7.8-7.8s-3.5-7.8-7.8-7.8-7.8,3.5-7.8,7.8c0,4.3,3.5,7.8,7.8,7.8ZM17.5,11.4c3.9,0,7.1,3.2,7.1,7.1s-3.2,7.1-7.1,7.1-7.1-3.2-7.1-7.1,3.2-7.1,7.1-7.1Z"/>
  </g>
</svg>