<?xml version="1.0" encoding="UTF-8"?>
<svg id="Layer_1" data-name="Layer 1" xmlns="http://www.w3.org/2000/svg" version="1.1" viewBox="0 0 35 35">
  <defs>
    <style>
      .cls-1, .cls-2, .cls-3 {
        fill-rule: evenodd;
      }

      .cls-1, .cls-2, .cls-3, .cls-4 {
        stroke-width: 0px;
      }

      .cls-1, .cls-4 {
        fill: #fff;
      }

      .cls-2 {
        fill: #757984;
      }

      .cls-3 {
        fill: #ffaf13;
      }
    </style>
  </defs>
  <path class="cls-2" d="M9.3,7.6c.9,0,2.1-.2,3.3-.6,1.4-.4,2.8-1.2,3.8-2.3-.7-.5-1.6-.8-2.6-.8-2.2,0-4.1,1.5-4.6,3.6ZM17.9,6.3c-1.4,1.4-3.1,2.3-4.7,2.8-1.4.4-2.8.6-3.9.7.5,2.1,2.4,3.6,4.6,3.6s4.7-2.1,4.7-4.7-.2-1.7-.6-2.3ZM7,8.7c0-3.8,3.1-6.9,6.9-6.9s3.6.8,4.9,2c1.2,1.2,2,3,2,4.9,0,3.8-3.1,6.9-6.9,6.9s-6.9-3.1-6.9-6.9Z"/>
  <path class="cls-2" d="M3.4,23.4c3.4-2.1,7.3-3,11.2-2.9.6,0,1.1-.4,1.1-1,0-.6-.4-1.1-1-1.1-4.3-.1-8.6.9-12.4,3.2-.7.4-1.1,1.1-1.1,1.9v5.5c0,1.4,1.1,2.5,2.5,2.5h10.8c.6,0,1.1-.5,1.1-1.1s-.5-1.1-1.1-1.1H3.8c-.2,0-.4-.2-.4-.4,0,0,0-5.5,0-5.5Z"/>
  <path class="cls-3" d="M25.5,16.6c-4.6,0-8.4,3.7-8.4,8.3s3.8,8.3,8.4,8.3,8.4-3.7,8.4-8.3-3.8-8.3-8.4-8.3Z"/>
  <path class="cls-1" d="M71,14.8c.4.4.4,1.1,0,1.5l-5.1,5.1c-1.2,1.2-3.2,1.2-4.4,0l-1.4-1.4c-.4-.4-.4-1.1,0-1.5.4-.4,1.1-.4,1.5,0l1.4,1.4c.4.4,1,.4,1.4,0l5.1-5.1c.4-.4,1.1-.4,1.5,0Z"/>
  <path class="cls-4" d="M24.7,20.2c-.5,0-1,.4-1,.9,0,0,0,0,0,0v5.7c0,.4.2.7.5.8l3.8,1.9c.5.2,1,0,1.3-.4,0,0,0,0,0,0,.2-.5,0-1-.4-1.3,0,0,0,0,0,0l-3.3-1.6v-5.1c0-.5-.4-.9-.9-1h0Z"/>
</svg>