<?xml version="1.0" encoding="UTF-8"?>
<svg id="Layer_1" data-name="Layer 1" xmlns="http://www.w3.org/2000/svg" version="1.1" viewBox="0 0 35 35">
  <defs>
    <style>
      .cls-1, .cls-2, .cls-3, .cls-4, .cls-5, .cls-6, .cls-7, .cls-8, .cls-9, .cls-10 {
        stroke-width: 0px;
      }

      .cls-1, .cls-7 {
        fill-rule: evenodd;
      }

      .cls-1, .cls-8 {
        fill: #fff;
      }

      .cls-2 {
        fill: #4d4d80;
      }

      .cls-3 {
        fill: #000;
      }

      .cls-4 {
        fill: #443d66;
      }

      .cls-5 {
        fill: #ffdf40;
      }

      .cls-6 {
        fill: #757984;
      }

      .cls-7 {
        fill: #f44336;
      }

      .cls-9 {
        fill: #ffbe40;
      }

      .cls-10 {
        fill: #8bf759;
      }
    </style>
  </defs>
  <path class="cls-7" d="M68.2-4.8c-4.6,0-8.4,3.7-8.4,8.3s3.8,8.3,8.4,8.3,8.4-3.7,8.4-8.3-3.8-8.3-8.4-8.3Z"/>
  <path class="cls-1" d="M71,14.8c.4.4.4,1.1,0,1.5l-5.1,5.1c-1.2,1.2-3.2,1.2-4.4,0l-1.4-1.4c-.4-.4-.4-1.1,0-1.5.4-.4,1.1-.4,1.5,0l1.4,1.4c.4.4,1,.4,1.4,0l5.1-5.1c.4-.4,1.1-.4,1.5,0Z"/>
  <path class="cls-8" d="M43.9,17.2c-.5,0-1,.4-1,.9,0,0,0,0,0,0v5.7c0,.4.2.7.5.8l3.8,1.9c.5.2,1,0,1.3-.4,0,0,0,0,0,0,.2-.5,0-1-.4-1.3,0,0,0,0,0,0l-3.3-1.6v-5.1c0-.5-.4-.9-.9-1h0Z"/>
  <circle class="cls-10" cx="62.9" cy="38.2" r="6.8"/>
  <path class="cls-3" d="M75.3-1.8c-.3-.3-.8-.3-1.1,0l-6.9,6.9c-.1.1-.3.1-.4,0h0s-2.3-2.3-2.3-2.3c-.3-.3-.8-.3-1.1,0-.3.3-.3.8,0,1.1l3.4,3.4c.1.1.3.1.4,0h0S75.3-.7,75.3-.7c.3-.3.3-.8,0-1.1h0s0,0,0,0Z"/>
  <g>
    <path class="cls-6" d="M29.4,15.9h-1.5c-.5,0-.9.4-.9.9s.4.9.9.9h2.4c.5,0,.9-.4.9-1,0-8.3-6.8-15-15.1-15C7.8,1.8,1,8.6,1,16.9s6.8,15.1,15.1,15.1c.4,0,.8-.3.9-.6,0,0,0-.2,0-.2v-2.6c0-.5-.4-.9-.9-.9-.5,0-.9.4-.9.9v1.6c-6.6-.5-12-5.8-12.4-12.5h1.5c.5,0,.9-.4.9-.9s-.4-.9-.9-.9h-1.5c.5-6.6,5.8-11.8,12.3-12.2v1.4c0,.5.4.9.9.9.5,0,.9-.4.9-.9v-1.4c6.5.4,11.8,5.7,12.3,12.2h0Z"/>
    <path class="cls-6" d="M16.1,10.7c-.5,0-.9.4-.9.9h0v4.8l-6.2,3.6c-.4.2-.6.8-.3,1.2.2.4.8.6,1.2.3,0,0,0,0,0,0l6.6-3.8s0,0,0,0c.3-.2.4-.5.4-.8v-5.3c0-.5-.4-.9-.9-.9h0,0Z"/>
    <g>
      <path class="cls-9" d="M22.6,33.2c-.2,0-.4-.1-.5-.3-.4-.9-1.3-1.6-2.3-1.9-.2,0-.3-.2-.4-.3,0-.2,0-.4,0-.5l5.5-9.9c.3-.6.9-.9,1.5-.9s1.2.3,1.5.9l5.8,10.4c.2.3.2.5.2.8,0,1-.8,1.7-1.7,1.7h-9.6s0,0,0,0Z"/>
      <path class="cls-5" d="M30.4,33.2h-9.6c-1,0-1.7-.8-1.7-1.7s0-.6.2-.8l5.8-10.4c.3-.6.9-.9,1.5-.9s1.2.3,1.5.9l5.5,9.9c0,.2,0,.3,0,.5,0,.2-.2.3-.4.3-1,.2-1.8.9-2.3,1.9,0,.2-.3.3-.5.3h0Z"/>
      <path class="cls-9" d="M30.4,33.2c.2,0,.4-.1.5-.3.4-.9,1.3-1.6,2.3-1.9.2,0,.3-.2.4-.3,0-.2,0-.4,0-.5l-5.5-9.9c-.3-.6-.9-.9-1.5-.9v13.9h3.9Z"/>
      <g>
        <path class="cls-2" d="M26.5,27.4c-.3,0-.6-.3-.6-.6v-2.3c0-.3.3-.6.6-.6s.6.3.6.6v2.3c0,.3-.3.6-.6.6Z"/>
        <circle class="cls-2" cx="26.5" cy="29.1" r=".6"/>
      </g>
      <g>
        <path class="cls-4" d="M27.1,29.1c0-.3-.3-.6-.6-.6v1.2c.3,0,.6-.3.6-.6Z"/>
        <path class="cls-4" d="M27.1,26.8v-2.3c0-.3-.3-.6-.6-.6v3.5c.3,0,.6-.3.6-.6Z"/>
      </g>
    </g>
  </g>
</svg>