<?xml version="1.0" encoding="UTF-8"?>
<svg id="Layer_1" data-name="Layer 1" xmlns="http://www.w3.org/2000/svg" version="1.1" viewBox="0 0 18 19.9">
  <defs>
    <style>
      .cls-1 {
        fill: #0088a5;
        fill-rule: evenodd;
        stroke-width: 0px;
      }
    </style>
  </defs>
  <path class="cls-1" d="M15.9,3.4s0,0,.1,0c0,0,0,0,0,0,.5.4.9.8,1.2,1.3.4.5.6,1.2.4,1.9,0,.3-.2.6-.4.8-.1.2-.3.3-.5.5,0,.2,0,.5,0,.7,0,.3,0,.6,0,.9,0,.7.2,1.5.3,2.3.1.8.2,1.6.3,2.4,0,1.1,0,1.9-.4,2.6-.4.7-1,1.1-2,1h0c-1.1,0-1.8-.7-2.1-1.8-.3-1-.2-2.5,0-4.3,0-1.4-.2-2.5-.6-3.3-.2-.5-.6-.8-1-1v9.5c.1,0,.3.2.4.3.2.2.4.6.4.9v.9c0,.2-.2.4-.4.4H.7c-.2,0-.4-.2-.4-.4v-.9c0-.4.2-.7.4-.9,0,0,.2-.1.2-.2V2.5c0-.6.3-1.2.7-1.6.4-.4,1-.7,1.6-.7h6c.6,0,1.2.3,1.6.7.4.4.7,1,.7,1.6v4.2c.8.2,1.4.7,1.8,1.5.4.9.7,2.1.7,3.7,0,0,0,0,0,0h0c-.3,1.7-.3,3.1,0,4,.2.8.6,1.2,1.3,1.2h0c.6,0,1-.2,1.2-.6.3-.5.4-1.2.3-2.1,0-.8-.1-1.6-.3-2.3-.1-.8-.2-1.5-.3-2.3,0-.3,0-.6,0-1,0-.3,0-.5,0-.8-.8-.7-1.3-1.4-1.5-2.1-.1-.7,0-1.3.5-1.9-.4-.2-.7-.4-1.1-.6-.5-.2-.5-.2-1-.3-.2,0-.4-.3-.4-.5,0-.2.3-.4.5-.4.6,0,.7.1,1.2.4.5.2,1.1.5,1.6.9h0ZM15.8,4.4c-.3.4-.4.8-.3,1.2.1.5.5,1,1.1,1.6,0,0,.1-.1.2-.2,0-.1.2-.3.2-.4,0-.5,0-.9-.3-1.3-.2-.3-.5-.6-.8-.9h0ZM3.7,2.2h5c.3,0,.5.1.7.3,0,0,0,0,0,0,.2.2.2.4.2.6v3.2c0,.3-.1.5-.3.7-.2.2-.4.3-.7.3H3.7c-.3,0-.5-.1-.7-.3h0c-.2-.2-.3-.4-.3-.7v-3.2c0-.3.1-.5.3-.7,0,0,0,0,0,0,.2-.2.4-.2.6-.2h0ZM11.1,17.9s0,0,0,0H1.4c0,0-.1,0-.1,0,0,0-.1.2-.1.3v.5h10.2v-.5c0-.1,0-.2-.1-.3,0,0,0,0-.1,0h0Z"/>
</svg>