<?xml version="1.0" encoding="UTF-8"?>
<svg id="svg5" xmlns="http://www.w3.org/2000/svg" version="1.1" xmlns:svg="http://www.w3.org/2000/svg" viewBox="0 0 64 64">
  <defs>
    <style>
      .cls-1 {
        fill: #00adcc;
      }

      .cls-1, .cls-2 {
        fill-rule: evenodd;
        stroke-width: 0px;
      }

      .cls-2 {
        fill: #757984;
      }
    </style>
  </defs>
  <g id="layer1">
    <path id="path45190-0" class="cls-2" d="M24.2,46.9c-.9.3-1.7.6-2.5.9-1.4.6-2.5,1.4-3.3,2.3-.5.6-.9,1.2-1.1,1.9h-.8c-.6,0-1.1.5-1.1,1.1s.5,1.1,1.1,1.1h.6c.2.9.7,1.7,1.3,2.4.8.9,2,1.7,3.3,2.3,2.5,1.1,5.6,1.8,9.2,2v1.1c0,.6.5,1.1,1.1,1.1s1.1-.5,1.1-1.1v-1.1c3.5-.1,6.7-.8,9.2-2,1.4-.6,2.5-1.4,3.3-2.3.6-.7,1.1-1.5,1.3-2.4h.6c.6,0,1.1-.5,1.1-1.1s-.5-1.1-1.1-1.1h-.8c-.5-1.5-1.8-2.7-3.4-3.6-.5-.3-1.2-.1-1.5.4-.3.5-.1,1.2.4,1.5,1,.5,1.6,1.1,2,1.7h0c-.6,0-1.1.5-1.1,1.1s.5,1.1,1.1,1.1h.4c-.1.3-.3.6-.6.9-.6.6-1.5,1.2-2.6,1.8-2.1,1-5,1.6-8.2,1.7,0-.6-.5-1.1-1.1-1.1-.6,0-1.1.5-1.1,1.1-3.3-.1-6.2-.8-8.2-1.7-1.2-.5-2.1-1.2-2.6-1.8-.3-.3-.5-.6-.6-.9h.4c.6,0,1.1-.5,1.1-1.1s-.5-1.1-1.1-1.1h0c0-.1.2-.2.3-.4.6-.6,1.5-1.2,2.6-1.8.9-.4,2-.8,3.1-1.1-.5-.6-1-1.2-1.5-1.9h0Z"/>
    <g>
      <path id="path45188-7" class="cls-2" d="M32,6.5c-2.6,0-5,.6-7.2,1.7-.5.3-.8,1-.5,1.5,0,0,0,0,0,0,.3.5,1,.8,1.5.5,1.8-1,3.9-1.5,6.1-1.5,7.4,0,13.3,6,13.3,13.3s-.3,3.2-.9,4.7c-.2.6,0,1.2.6,1.4.6.2,1.2,0,1.4-.6,0,0,0,0,0,0,.6-1.7,1-3.6,1-5.5,0-8.6-7-15.5-15.5-15.5ZM19.1,13.9c-.3,0-.5.3-.7.5-1.2,2.2-2,4.8-2,7.6,0,8.6,7,15.5,15.5,15.5s5.1-.6,7.2-1.8c.5-.3.8-1,.5-1.5-.3-.5-1-.8-1.5-.5,0,0,0,0,0,0-1.8,1-3.9,1.5-6.2,1.5-7.4,0-13.3-6-13.3-13.3s.6-4.6,1.7-6.5c.3-.5.1-1.2-.4-1.5-.3-.1-.6-.2-.8,0h0Z"/>
      <path id="path45194-3" class="cls-2" d="M32,.9c11.6,0,21.1,9.5,21.1,21.1s-5.2,14.2-10.2,20.9c-5,6.7-10.1,12.1-10.1,12.1-.4.4-1.1.5-1.6,0,0,0,0,0,0,0,0,0-13-13.6-18.2-25.1-.3-.6,0-1.2.5-1.5,0,0,0,0,0,0,.6-.3,1.2,0,1.5.5,0,0,0,0,0,0,4.6,10.2,15.7,22.2,17,23.6,1.1-1.2,4.8-5.2,9.1-10.9,5-6.6,9.8-14.7,9.8-19.6,0-10.4-8.4-18.9-18.9-18.9S13.1,11.6,13.1,22s-.5,1.1-1.1,1.1c-.6,0-1.1-.5-1.1-1.1C10.9,10.4,20.4.9,32,.9Z"/>
      <path id="path45196-6" class="cls-2" d="M12.5,24.9c.6,0,1.1.5,1.1,1.1s-.5,1.1-1.1,1.1-1.1-.5-1.1-1.1.5-1.1,1.1-1.1Z"/>
      <path id="path31555" class="cls-1" d="M24.2,13.1c-.6,0-1.1.5-1.1,1.1v15.5c0,.6.5,1.1,1.1,1.1h7.8c.6,0,1.1-.5,1.1-1.1v-6.7h1.1v2.2c0,1.8,1.5,3.3,3.3,3.3s3.3-1.5,3.3-3.3v-6.7c0-.6-.5-1.1-1.1-1.1s-1.1.5-1.1,1.1v6.7c0,.6-.5,1.1-1.1,1.1s-1.1-.5-1.1-1.1v-3.3c0-.6-.5-1.1-1.1-1.1h-2.2v-6.7c0-.6-.5-1.1-1.1-1.1h-7.8ZM25.3,15.3h5.6v3.3h-5.6v-3.3ZM25.3,20.9h5.6v7.8h-5.6v-7.8Z"/>
    </g>
  </g>
</svg>