<?xml version="1.0" encoding="UTF-8"?>
<svg id="Layer_1" data-name="Layer 1" xmlns="http://www.w3.org/2000/svg" version="1.1" viewBox="0 0 512 512">
  <defs>
    <style>
      .cls-1 {
        fill: #fff;
        stroke-width: 0px;
      }
    </style>
  </defs>
  <path class="cls-1" d="M27.6,240.9c-8.3,8.3-8.3,21.8,0,30.2l149.3,149.3c.2.2.3.4.5.5,8.5,8.2,22,8,30.2-.5,8.2-8.5,8-22-.5-30.2l-112.9-112.9h375.2c11.8,0,21.3-9.6,21.3-21.3,0-11.8-9.6-21.3-21.3-21.3H94.2s112.9-112.9,112.9-112.9c8-8.3,8-21.4,0-29.6-8.2-8.5-21.7-8.7-30.2-.5L27.6,240.9h0Z"/>
</svg>