<?xml version="1.0" encoding="UTF-8"?>
<svg id="Layer_1" data-name="Layer 1" xmlns="http://www.w3.org/2000/svg" version="1.1" viewBox="0 0 18 18">
  <defs>
    <style>
      .cls-1 {
        fill: #004282;
        stroke-width: 0px;
      }
    </style>
  </defs>
  <g id="_73" data-name="73">
    <path class="cls-1" d="M3.3,13.6c.2,0,.3-.1.3-.3v-.3c.5-.1.8-.6.8-1.1s-.5-1.1-1.1-1.1-.6-.2-.6-.6.3-.6.6-.6.5.2.5.4c0,.1.2.2.4.2.1,0,.2-.2.2-.4-.1-.4-.4-.7-.8-.7v-.3c0-.2-.1-.3-.3-.3s-.3.1-.3.3v.3c-.5.1-.8.6-.8,1.1s.5,1.1,1.1,1.1.6.2.6.6-.3.6-.6.6-.5-.2-.5-.4c0-.1-.2-.2-.4-.2-.1,0-.2.2-.2.4.1.4.4.7.8.7v.3c0,.1.1.3.3.3h0Z"/>
    <path class="cls-1" d="M11.4,1c-3.4,0-6.3,2.5-6.4,5.6h-2.6c-1.2,0-2.2,1-2.2,2.2v4c0,.8.4,1.5,1.1,1.9v2c0,.1,0,.2.1.2,0,0,.1,0,.1,0,0,0,.1,0,.1,0l3-2h4.5c.8,0,1.5-.4,1.9-1.1,0-.1,0-.3-.1-.4s-.3,0-.4.1c-.3.5-.8.8-1.4.8h-4.5c0,0-.1,0-.1,0l-2.7,1.7v-1.7c0-.1,0-.2-.2-.2-.6-.2-1-.8-1-1.4v-4c0-.9.7-1.6,1.6-1.6h2.6c.2,2.9,2.8,5.2,6.1,5.3.1,0,.3-.1.3-.3s-.1-.3-.3-.3c-3.1-.1-5.6-2.4-5.6-5.2S8.2,1.6,11.4,1.6s5.8,2.3,5.8,5.2-.7,2.8-1.8,3.8c0,0-.1.2,0,.3l.4,1.7-2.1-.9c0,0-.1,0-.2,0-.3,0-.5.1-.8.2-.1,0-.2.2-.2.3,0,.1.2.2.3.2.3,0,.5-.1.8-.2l2.5,1c.2,0,.4,0,.4-.3l-.5-2.1c1.2-1.1,1.9-2.5,1.9-4.1,0-3.2-2.8-5.7-6.4-5.7h0Z"/>
    <path class="cls-1" d="M7.9,5.8h3.4c.2,0,.3-.1.3-.3s-.1-.3-.3-.3h-3.4c-.2,0-.3.1-.3.3s.1.3.3.3Z"/>
    <path class="cls-1" d="M7.9,8.5h3.4c.2,0,.3-.1.3-.3s-.1-.3-.3-.3h-3.4c-.2,0-.3.1-.3.3s.1.3.3.3Z"/>
    <path class="cls-1" d="M7.9,7.2h3.4c.2,0,.3-.1.3-.3s-.1-.3-.3-.3h-3.4c-.2,0-.3.1-.3.3s.1.3.3.3Z"/>
    <path class="cls-1" d="M14.1,7.3c0,0,0,0,0,0,.7-.2,1.1-.9,1-1.6-.1-.5-.5-.9-1-1-.9-.2-1.7.5-1.7,1.3s.1.3.3.3.3-.1.3-.3c0-.5.5-.9,1-.8.3,0,.5.3.6.6.1.5-.2.9-.6,1-.3,0-.5.3-.5.6v.4c0,.2.1.3.3.3s.3-.1.3-.3v-.4Z"/>
    <path class="cls-1" d="M13.6,8.9c0,.2.1.3.3.3s.3-.1.3-.3-.1-.3-.3-.3-.3.1-.3.3Z"/>
  </g>
</svg>