<?xml version="1.0" encoding="UTF-8"?>
<svg id="Layer_1" data-name="Layer 1" xmlns="http://www.w3.org/2000/svg" version="1.1" viewBox="0 0 16 13.2">
  <defs>
    <style>
      .cls-1 {
        fill: #fff;
        stroke-width: 0px;
      }
    </style>
  </defs>
  <path class="cls-1" d="M.9,8.2c.2,0,.4,0,.5-.2l.3-.3c.4,2.3,2,4.2,4.2,5,.7.2,1.4.4,2.1.4,2.1,0,4.1-1,5.4-2.9.2-.3.1-.6-.2-.8-.3-.2-.6-.1-.8.2-1.3,2-3.8,2.8-6.1,2.1-1.9-.7-3.2-2.3-3.5-4.2l.5.4c.3.2.6.2.8-.1.2-.3.2-.6-.1-.8,0,0-1.4-1.1-1.4-1.1-.3-.2-.7-.4-1,0l-1.2,1.5c-.2.3-.2.6.1.8.1,0,.2.1.4.1h0Z"/>
  <path class="cls-1" d="M2.8,3.8c.3.2.6.1.8-.2,1.3-2,3.8-2.8,6.1-2.1,1.9.7,3.2,2.3,3.5,4.2l-.5-.4c-.3-.2-.6-.2-.8.1-.2.3-.2.6.1.8,0,0,1.4,1.1,1.4,1.1.3.2.7.4,1,0l1.2-1.5c.2-.3.2-.6-.1-.8s-.6-.2-.8.1l-.3.3c-.4-2.3-2-4.2-4.2-5-2.8-1-5.9,0-7.5,2.5-.2.3-.1.6.2.8Z"/>
</svg>