<svg width="40" height="27" viewBox="0 0 40 27" fill="none" xmlns="http://www.w3.org/2000/svg">
<g clip-path="url(#clip0_202_1831)">
<path d="M30.2102 17.1816C27.4297 17.1816 25.168 19.3837 25.168 22.0909C25.168 24.798 27.4297 27.0001 30.2102 27.0001C32.9906 27.0001 35.2523 24.798 35.2523 22.0909C35.2523 19.3837 32.9906 17.1816 30.2102 17.1816ZM30.2102 24.5455C28.8195 24.5455 27.6891 23.4448 27.6891 22.0909C27.6891 20.7369 28.8195 19.6363 30.2102 19.6363C31.6008 19.6363 32.7312 20.7369 32.7312 22.0909C32.7312 23.4448 31.6008 24.5455 30.2102 24.5455Z" fill="#757984"/>
<path d="M12.9826 17.1816C10.2021 17.1816 7.94043 19.3837 7.94043 22.0909C7.94043 24.798 10.2021 27.0001 12.9826 27.0001C15.7631 27.0001 18.0248 24.798 18.0248 22.0909C18.0248 19.3837 15.7631 17.1816 12.9826 17.1816ZM12.9826 24.5455C11.592 24.5455 10.4615 23.4448 10.4615 22.0909C10.4615 20.7369 11.592 19.6363 12.9826 19.6363C14.3732 19.6363 15.5037 20.7369 15.5037 22.0909C15.5037 23.4448 14.3732 24.5455 12.9826 24.5455Z" fill="#757984"/>
<path d="M33.6055 3.13032C33.3914 2.71577 32.9555 2.4541 32.4789 2.4541H25.8398V4.90872H31.7008L35.1328 11.5553L37.3859 10.4523L33.6047 3.12956L33.6055 3.13032Z" fill="#757984"/>
<path d="M26.4281 20.9043H16.8906V23.3589H26.4281V20.9043Z" fill="#757984"/>
<path d="M9.20195 20.9043H4.83242C4.13633 20.9043 3.57227 21.4535 3.57227 22.1312C3.57227 22.809 4.13633 23.3581 4.83242 23.3581H9.20195C9.89805 23.3581 10.4621 22.809 10.4621 22.1312C10.4621 21.4535 9.89805 20.9043 9.20117 20.9043H9.20195Z" fill="#757984"/>
<path d="M39.7355 13.4019L37.2559 10.2931C37.0176 9.99341 36.6496 9.81846 36.2606 9.81846H27.1012V1.22693C27.1012 0.549189 26.5371 0 25.841 0H4.83242C4.13633 0 3.57227 0.549189 3.57227 1.22693C3.57227 1.90467 4.13633 2.45385 4.83242 2.45385H24.5801V11.0446C24.5801 11.7224 25.1441 12.2716 25.8402 12.2716H35.6434L37.4793 14.574V20.9034H33.9918C33.2957 20.9034 32.7316 21.4526 32.7316 22.1303C32.7316 22.8081 33.2957 23.3573 33.9918 23.3573H38.7395C39.4356 23.3573 39.9996 22.8081 39.9996 22.1303V14.1534C39.9996 13.8811 39.9066 13.6156 39.7348 13.4004L39.7355 13.4019Z" fill="#757984"/>
<path d="M9.11816 14.6865H3.31973C2.62363 14.6865 2.05957 15.2357 2.05957 15.9135C2.05957 16.5912 2.62363 17.1404 3.31973 17.1404H9.11816C9.81426 17.1404 10.3783 16.5912 10.3783 15.9135C10.3783 15.2357 9.81426 14.6865 9.11816 14.6865Z" fill="#757984"/>
<path d="M12.0172 9.8584H1.26016C0.564062 9.8584 0 10.4076 0 11.0853C0 11.7631 0.564062 12.3123 1.26016 12.3123H12.0164C12.7125 12.3123 13.2766 11.7631 13.2766 11.0853C13.2766 10.4076 12.7125 9.8584 12.0164 9.8584H12.0172Z" fill="#757984"/>
<path d="M14.076 5.03125H3.31973C2.62363 5.03125 2.05957 5.58044 2.05957 6.25818C2.05957 6.93591 2.62363 7.4851 3.31973 7.4851H14.076C14.7721 7.4851 15.3361 6.93591 15.3361 6.25818C15.3361 5.58044 14.7721 5.03125 14.076 5.03125Z" fill="#757984"/>
</g>
<path d="M20.6894 20.5887C24.5979 20.5887 27.7664 17.4875 27.7664 13.662C27.7664 9.83652 24.5979 6.73535 20.6894 6.73535C16.7808 6.73535 13.6123 9.83652 13.6123 13.662C13.6123 17.4875 16.7808 20.5887 20.6894 20.5887Z" fill="#FE646F"/>
<path fill-rule="evenodd" clip-rule="evenodd" d="M20.0605 6.76238C23.6744 7.07393 26.5085 10.044 26.5085 13.662C26.5085 17.28 23.6744 20.2501 20.0605 20.5617C20.2678 20.5796 20.4776 20.5887 20.6896 20.5887C24.5982 20.5887 27.7667 17.4875 27.7667 13.662C27.7667 9.83652 24.5982 6.73535 20.6897 6.73535C20.4776 6.73535 20.2678 6.74453 20.0605 6.76238Z" fill="#FD4755"/>
<path fill-rule="evenodd" clip-rule="evenodd" d="M18.9452 13.6621L17.285 12.0372C16.8047 11.5671 16.8047 10.8001 17.285 10.3301C17.7652 9.86003 18.5489 9.86003 19.0291 10.3301L20.6893 11.955L22.3495 10.3301C22.8297 9.86003 23.6134 9.86003 24.0937 10.3301C24.5739 10.8001 24.5739 11.5671 24.0937 12.0372L22.4335 13.6621L24.0937 15.287C24.574 15.757 24.574 16.524 24.0937 16.9941C23.6135 17.4641 22.8298 17.4641 22.3496 16.9941L20.6894 15.3692L19.0292 16.9941C18.549 17.4641 17.7653 17.4641 17.285 16.9941C16.8048 16.5241 16.8048 15.7571 17.285 15.287L18.9452 13.6621Z" fill="#ECEFF1"/>
<defs>
<clipPath id="clip0_202_1831">
<rect width="40" height="27" fill="white"/>
</clipPath>
</defs>
</svg>
