<?xml version="1.0" encoding="UTF-8"?>
<svg id="Group" xmlns="http://www.w3.org/2000/svg" version="1.1" viewBox="0 0 64 64">
  <defs>
    <style>
      .cls-1 {
        fill: #fff;
        fill-rule: evenodd;
        stroke-width: 0px;
      }
    </style>
  </defs>
  <path class="cls-1" d="M49.1,30.9c7.2,0,13.1,5.8,13.1,13.1s-5.8,13.1-13.1,13.1-13.1-5.8-13.1-13.1c0-7.2,5.8-13.1,13.1-13.1h0ZM7,27.8v-4.8c0-.3.2-.5.5-.5h4.7c.3,0,.5.2.5.5v4.8c0,.3-.2.5-.5.5h-4.7c-.3,0-.5-.2-.5-.5ZM49.1,19.6H1.8v29.9c0,.8.7,1.5,1.5,1.5h32.3c-1.1-2.1-1.8-4.6-1.8-7.1,0-8.4,6.8-15.3,15.3-15.3v-9.1h0ZM7.5,41.3h4.7c.3,0,.5.2.5.5v4.8c0,.3-.2.5-.5.5h-4.7c-.3,0-.5-.2-.5-.5v-4.8c0-.3.2-.5.5-.5ZM28.4,41.3h4.7c.3,0,.5.2.5.5v4.8c0,.3-.2.5-.5.5h-4.7c-.3,0-.5-.2-.5-.5v-4.8c0-.3.2-.5.5-.5ZM17.9,41.3h4.7c.3,0,.5.2.5.5v4.8c0,.3-.2.5-.5.5h-4.7c-.3,0-.5-.2-.5-.5v-4.8c0-.3.2-.5.5-.5ZM7,37.2v-4.8c0-.3.2-.5.5-.5h4.7c.3,0,.5.2.5.5v4.8c0,.3-.2.5-.5.5h-4.7c-.3,0-.5-.2-.5-.5ZM17.5,37.2v-4.8c0-.3.2-.5.5-.5h4.7c.3,0,.5.2.5.5v4.8c0,.3-.2.5-.5.5h-4.7c-.3,0-.5-.2-.5-.5h0ZM27.9,37.2v-4.8c0-.3.2-.5.5-.5h4.7c.3,0,.5.2.5.5v4.8c0,.3-.2.5-.5.5h-4.7c-.3,0-.5-.2-.5-.5h0ZM33,28.3h-4.7c-.3,0-.5-.2-.5-.5v-4.8c0-.3.2-.5.5-.5h4.7c.3,0,.5.2.5.5v4.8c0,.3-.2.5-.5.5ZM38.3,27.8v-4.8c0-.3.2-.5.5-.5h4.7c.3,0,.5.2.5.5v4.8c0,.3-.2.5-.5.5h-4.7c-.3,0-.5-.2-.5-.5ZM17.5,27.8v-4.8c0-.3.2-.5.5-.5h4.7c.3,0,.5.2.5.5v4.8c0,.3-.2.5-.5.5h-4.7c-.3,0-.5-.2-.5-.5h0ZM10.3,13.4c0,.5-.4.9-.9.9h-2c-.5,0-.9-.4-.9-.9v-2.7h-3.1c-.8,0-1.5.7-1.5,1.5v5.2h47.3v-5.2c0-.8-.7-1.5-1.5-1.5h-3.1v2.7c0,.5-.4.9-.9.9h-2c-.5,0-.9-.4-.9-.9v-2.7h-7.5v2.7c0,.5-.4.9-.9.9h-2c-.5,0-.9-.4-.9-.9v-2.7h-7.5v2.7c0,.5-.4.9-.9.9h-2c-.5,0-.9-.4-.9-.9v-2.7h-7.5v2.7ZM7.4,7h2c.5,0,.9.4.9.9v2.6h-3.9v-2.6c0-.5.4-.9.9-.9ZM41.6,7h2c.5,0,.9.4.9.9v2.6h-3.9v-2.6c0-.5.4-.9.9-.9h0ZM30.2,7h2c.5,0,.9.4.9.9v2.6h-3.9v-2.6c0-.5.4-.9.9-.9h0ZM18.8,7h2c.5,0,.9.4.9.9v2.6h-3.9v-2.6c0-.5.4-.9.9-.9h0ZM50.2,42.1v-7.8c0-.6-.5-1.1-1.1-1.1s-1.1.5-1.1,1.1v9l-5.3,3.1c-.5.3-.7,1-.4,1.5.3.5,1,.7,1.5.4l4.3-2.5c.2.4.6.6,1,.6s1.1-.5,1.1-1.1v-.7l.6-.4c.5-.3.7-1,.4-1.5-.2-.4-.6-.6-1-.6Z"/>
</svg>