<?xml version="1.0" encoding="UTF-8"?>
<svg id="Layer_1" data-name="Layer 1" xmlns="http://www.w3.org/2000/svg" version="1.1" viewBox="0 0 512 512">
  <defs>
    <style>
      .cls-1 {
        fill: #00adcc;
        stroke-width: 0px;
      }
    </style>
  </defs>
  <g id="_06_List" data-name="06 List">
    <g>
      <path class="cls-1" d="M464.7,117.6c4,0,7.3-3.3,7.3-7.3V42.3c0-20-16.3-36.3-36.3-36.3H153.6c-20,0-36.3,16.3-36.3,36.3v31.2h-40.7c-20.2,0-36.7,16.5-36.7,36.7v359.1c0,20.2,16.5,36.7,36.7,36.7h286.2c20.2,0,36.7-16.5,36.7-36.7v-21.5h36.2c20,0,36.3-16.3,36.3-36.3V147.7c0-4-3.3-7.3-7.3-7.3s-7.3,3.3-7.3,7.3v263.8c0,12-9.8,21.7-21.7,21.7H153.6c-12,0-21.7-9.7-21.7-21.7V42.3c0-12,9.7-21.7,21.7-21.7h282.1c12,0,21.7,9.7,21.7,21.7v68c0,4,3.3,7.3,7.3,7.3h0ZM153.6,447.7h231.4v21.5c0,12.2-9.9,22.1-22.1,22.1H76.7c-12.2,0-22.1-9.9-22.1-22.1V110.2c0-12.2,9.9-22.1,22.1-22.1h40.7v323.4c0,20,16.3,36.3,36.3,36.3h0Z"/>
      <path class="cls-1" d="M239.5,161.4c0-9-7.3-16.4-16.4-16.4h-34.2c-9,0-16.4,7.3-16.4,16.4v34.2c0,9,7.3,16.4,16.4,16.4h34.2c9,0,16.4-7.3,16.4-16.4v-34.2ZM225,195.6c0,1-.8,1.8-1.8,1.8h-34.2c-1,0-1.8-.8-1.8-1.8v-34.2c0-1,.8-1.8,1.8-1.8h34.2c1,0,1.8.8,1.8,1.8v34.2Z"/>
      <path class="cls-1" d="M409.5,154.4h-141.9c-4,0-7.3,3.3-7.3,7.3s3.3,7.3,7.3,7.3h141.9c4,0,7.3-3.3,7.3-7.3s-3.3-7.3-7.3-7.3Z"/>
      <path class="cls-1" d="M267.6,202.6h70.9c4,0,7.3-3.3,7.3-7.3s-3.3-7.3-7.3-7.3h-70.9c-4,0-7.3,3.3-7.3,7.3s3.3,7.3,7.3,7.3Z"/>
      <path class="cls-1" d="M239.5,67.1c0-9-7.3-16.4-16.4-16.4h-34.2c-9,0-16.4,7.3-16.4,16.4v34.2c0,9,7.3,16.4,16.4,16.4h34.2c9,0,16.4-7.3,16.4-16.4v-34.2ZM225,101.3c0,1-.8,1.8-1.8,1.8h-34.2c-1,0-1.8-.8-1.8-1.8v-34.2c0-1,.8-1.8,1.8-1.8h34.2c1,0,1.8.8,1.8,1.8v34.2Z"/>
      <path class="cls-1" d="M409.5,60h-141.9c-4,0-7.3,3.3-7.3,7.3s3.3,7.3,7.3,7.3h141.9c4,0,7.3-3.3,7.3-7.3s-3.3-7.3-7.3-7.3Z"/>
      <path class="cls-1" d="M267.6,108.3h70.9c4,0,7.3-3.3,7.3-7.3s-3.3-7.3-7.3-7.3h-70.9c-4,0-7.3,3.3-7.3,7.3s3.3,7.3,7.3,7.3Z"/>
      <path class="cls-1" d="M239.5,255.8c0-9-7.3-16.4-16.4-16.4h-34.2c-9,0-16.4,7.3-16.4,16.4v34.2c0,9,7.3,16.4,16.4,16.4h34.2c9,0,16.4-7.3,16.4-16.4v-34.2ZM225,290c0,1-.8,1.8-1.8,1.8h-34.2c-1,0-1.8-.8-1.8-1.8v-34.2c0-1,.8-1.8,1.8-1.8h34.2c1,0,1.8.8,1.8,1.8v34.2Z"/>
      <path class="cls-1" d="M409.5,248.7h-141.9c-4,0-7.3,3.3-7.3,7.3s3.3,7.3,7.3,7.3h141.9c4,0,7.3-3.3,7.3-7.3,0-4-3.3-7.3-7.3-7.3h0Z"/>
      <path class="cls-1" d="M267.6,297h70.9c4,0,7.3-3.3,7.3-7.3s-3.3-7.3-7.3-7.3h-70.9c-4,0-7.3,3.3-7.3,7.3s3.3,7.3,7.3,7.3Z"/>
      <path class="cls-1" d="M223.2,336.1h-34.2c-9,0-16.4,7.3-16.4,16.4v34.2c0,9,7.3,16.4,16.4,16.4h34.2c9,0,16.4-7.3,16.4-16.4v-34.2c0-9-7.3-16.4-16.4-16.4ZM225,386.7c0,1-.8,1.8-1.8,1.8h-34.2c-1,0-1.8-.8-1.8-1.8v-34.2c0-1,.8-1.8,1.8-1.8h34.2c1,0,1.8.8,1.8,1.8v34.2Z"/>
      <path class="cls-1" d="M416.7,352.8c0-4-3.3-7.3-7.3-7.3h-141.9c-4,0-7.3,3.3-7.3,7.3s3.3,7.3,7.3,7.3h141.9c4,0,7.3-3.3,7.3-7.3h0Z"/>
      <path class="cls-1" d="M267.6,379.2c-4,0-7.3,3.3-7.3,7.3s3.3,7.3,7.3,7.3h70.9c4,0,7.3-3.3,7.3-7.3s-3.3-7.3-7.3-7.3h-70.9Z"/>
    </g>
  </g>
</svg>