<?xml version="1.0" encoding="UTF-8"?>
<svg id="Layer_1" data-name="Layer 1" xmlns="http://www.w3.org/2000/svg" version="1.1" viewBox="0 0 512 512">
  <defs>
    <style>
      .cls-1 {
        fill: #757984;
      }

      .cls-1, .cls-2 {
        stroke-width: 0px;
      }

      .cls-2 {
        fill: #00adcc;
      }
    </style>
  </defs>
  <g id="Layer_2" data-name="Layer 2">
    <path class="cls-1" d="M313,488.3c-15.2,0-29.6-6.7-39.5-18.1-6.8-6.5-9.9-9.2-17.3-9.2s-10.5,2.6-17.4,9.2c-18.9,21.8-51.9,24.3-73.7,5.4-1.9-1.7-3.7-3.5-5.4-5.4-6.8-6.6-9.9-9.2-17.4-9.2-4.4-.2-8.6,1.4-11.9,4.3-11.3,9.2-26.9,11.1-40.1,4.7-12.9-6.1-21.1-19.2-21-33.5V64c0-20.6,16.7-37.3,37.3-37.3h320c8.8,0,16,7.2,16,16s-7.2,16-16,16H106.7c-2.9,0-5.3,2.4-5.3,5.3v372.4c-.1,2,1,3.8,2.8,4.7,2.1,1,4.5.6,6.2-.8,9-7.5,20.3-11.5,32-11.2,15.2,0,29.6,6.7,39.6,18.1,6.8,6.6,9.9,9.2,17.4,9.2s10.5-2.6,17.3-9.2c18.8-21.8,51.8-24.3,73.6-5.4,1.9,1.7,3.8,3.5,5.4,5.4,6.8,6.5,9.9,9.2,17.4,9.2s10.5-2.6,17.3-9.2c10-11.4,24.4-18,39.5-18.1,11.5-.2,22.8,3.7,31.7,11.1,1.7,1.5,4.2,1.9,6.3.9,1.8-.8,2.9-2.6,2.8-4.6V106.7c0-8.8,7.2-16,16-16s16,7.2,16,16v329.7c0,14.3-8.1,27.3-20.9,33.5-13.1,6.4-28.8,4.5-40.1-4.7-3.2-2.8-7.4-4.3-11.7-4.1-7.5,0-10.5,2.6-17.4,9.2-10,11.4-24.4,18-39.6,18.1h0Z"/>
    <g>
      <path class="cls-2" d="M341.3,144h-117.3c-8.8,0-16-7.2-16-16s7.2-16,16-16h117.3c8.8,0,16,7.2,16,16s-7.2,16-16,16Z"/>
      <path class="cls-2" d="M341.3,250.7h-117.3c-8.8,0-16-7.2-16-16s7.2-16,16-16h117.3c8.8,0,16,7.2,16,16s-7.2,16-16,16Z"/>
      <path class="cls-2" d="M341.3,357.3h-117.3c-8.8,0-16-7.2-16-16s7.2-16,16-16h117.3c8.8,0,16,7.2,16,16s-7.2,16-16,16Z"/>
      <circle class="cls-2" cx="170.7" cy="234.7" r="21.3"/>
      <circle class="cls-2" cx="170.7" cy="128" r="21.3"/>
      <circle class="cls-2" cx="170.7" cy="341.3" r="21.3"/>
    </g>
  </g>
</svg>