<svg id="Layer_1" data-name="Layer 1" xmlns="http://www.w3.org/2000/svg" version="1.1" xmlns:svgjs="http://svgjs.dev/svgjs" viewBox="0 0 300 300">
  <defs>
    <style>
      .cls-1 {
        fill: #3cc;
      }
      .cls-1, .cls-2 {
        stroke-width: 0px;
      }
      .cls-2 {
        fill: #757984;
      }
    </style>
  </defs>
  <path class="cls-1" d="M267,125h-27v-15c0-8.5-6.5-15-15-15h-50v10h50c3,0,5,2,5,5v55h-55v10h115v30c0,3-2,5-5,5h-15.5c-3-13.5-16-22-29.5-19.5-9.5,2-17.5,9.5-19.5,19.5h-45.5v10h45.5c2.5,13.5,16,22.5,29.5,19.5,10-2,17.5-9.5,19.5-19.5h15.5c8.5,0,15-6.5,15-15v-47l-33-33ZM245,230c-8.5,0-15-6.5-15-15s6.5-15,15-15,15,6.5,15,15-6.5,15-15,15ZM240,165v-30h23l27,27v3h-50Z"/>
  <path class="cls-1" d="M236.5,216.4l9.9-9.9,7.1,7.1-9.9,9.9-7.1-7.1Z"/>
  <path class="cls-2" d="M205,55c0-14-11-25-25-25H62.5c-15,0-27.5,12.5-27.5,27.5v167.5H0v17.5c0,15,12.5,27.5,27.5,27.5h112.5c14-1.5,25-13,25-27.5V85h40v-30ZM10,242.5v-7.5h100v7.5c0,6.5,2,12.5,6.5,17.5H27.5c-9.5,0-17.5-8-17.5-17.5ZM155,55v187.5c0,9.5-8,17.5-17.5,17.5s-17.5-8-17.5-17.5v-17.5H45V57.5c0-9.5,8-17.5,17.5-17.5h97.5c-3,4.5-5,9.5-5,15ZM195,75h-30v-20c0-8.5,6.5-15,15-15s15,6.5,15,15v20Z"/>
  <path class="cls-2" d="M80,55h40v10h-40v-10Z"/>
  <path class="cls-2" d="M60,75h80v10H60v-10Z"/>
  <path class="cls-2" d="M60,100h80v10H60v-10Z"/>
  <path class="cls-2" d="M60,125h80v10H60v-10Z"/>
  <path class="cls-2" d="M60,150h80v10H60v-10Z"/>
  <path class="cls-2" d="M60,200h20v10h-20v-10Z"/>
  <path class="cls-2" d="M90,200h20v10h-20v-10Z"/>
  <path class="cls-2" d="M120,200h20v10h-20v-10Z"/>
  <path class="cls-2" d="M60,175h80v10H60v-10Z"/>
</svg>
