<?xml version="1.0" encoding="UTF-8"?>
<svg id="Layer_1" data-name="Layer 1" xmlns="http://www.w3.org/2000/svg" version="1.1" viewBox="0 0 32 32">
  <defs>
    <style>
      .cls-1 {
        fill: #0088a5;
      }

      .cls-1, .cls-2 {
        stroke-width: 0px;
      }

      .cls-2 {
        fill: #84d2e2;
      }
    </style>
  </defs>
  <path class="cls-1" d="M29,5.9H3c-.8,0-1.4.6-1.4,1.4s.6,1.4,1.4,1.4h2.9v17.3c0,2.4,1.9,4.3,4.3,4.3h11.5c2.4,0,4.3-1.9,4.3-4.3V8.8h2.9c.8,0,1.4-.6,1.4-1.4s-.6-1.4-1.4-1.4ZM14.6,21.8c0,.8-.6,1.4-1.4,1.4s-1.4-.6-1.4-1.4v-7.2c0-.8.6-1.4,1.4-1.4s1.4.6,1.4,1.4v7.2ZM20.3,21.8c0,.8-.6,1.4-1.4,1.4s-1.4-.6-1.4-1.4v-7.2c0-.8.6-1.4,1.4-1.4s1.4.6,1.4,1.4v7.2Z"/>
  <path class="cls-2" d="M13.1,4.5h5.8c.8,0,1.4-.6,1.4-1.4s-.6-1.4-1.4-1.4h-5.8c-.8,0-1.4.6-1.4,1.4s.6,1.4,1.4,1.4Z"/>
</svg>