<?xml version="1.0" encoding="UTF-8"?>
<svg id="Layer_1" data-name="Layer 1" xmlns="http://www.w3.org/2000/svg" version="1.1" xmlns:xlink="http://www.w3.org/1999/xlink" viewBox="0 0 16 16">
  <defs>
    <style>
      .cls-1 {
        fill: none;
      }

      .cls-1, .cls-2 {
        stroke-width: 0px;
      }

      .cls-3 {
        clip-path: url(#clippath);
      }

      .cls-2 {
        fill: #fff;
      }
    </style>
    <clipPath id="clippath">
      <rect class="cls-1" x=".3" y=".3" width="15.3" height="15.3"/>
    </clipPath>
  </defs>
  <g class="cls-3">
    <path class="cls-2" d="M11.5,6.8l-4,4c-.3.3-.7.3-1,0l-2-2c-.3-.3-.3-.7,0-1s.7-.3,1,0l1.5,1.5,3.5-3.5c.3-.3.7-.3,1,0,.3.3.3.7,0,1ZM2.4,8c0-1.6.7-3.1,1.9-4.2l1.1,1.1c.2.2.6,0,.6-.3V1.6c0-.2-.2-.4-.4-.4h-3c-.3,0-.5.4-.2.6l.9,1C1.8,4.1.9,6,.9,8c0,3.4,2.3,6.2,5.5,6.9.4,0,.9-.2.9-.7s-.2-.6-.6-.7c-2.5-.6-4.4-2.8-4.4-5.5h0ZM15.1,8c0-3.4-2.3-6.2-5.5-6.9-.4,0-.9.2-.9.7s.2.6.6.7c2.5.6,4.4,2.8,4.4,5.5s-.7,3.1-1.9,4.2l-1.1-1.1c-.2-.2-.6,0-.6.3v3c0,.2.2.4.4.4h3c.3,0,.5-.4.2-.6l-.9-1c1.4-1.3,2.3-3.1,2.3-5.2h0Z"/>
  </g>
</svg>