<?xml version="1.0" encoding="UTF-8"?>
<svg id="Layer_1" data-name="Layer 1" xmlns="http://www.w3.org/2000/svg" version="1.1" viewBox="0 0 24 24">
  <defs>
    <style>
      .cls-1 {
        fill: #231f20;
      }

      .cls-1, .cls-2, .cls-3 {
        stroke-width: 0px;
      }

      .cls-2 {
        fill: #00adcc;
      }

      .cls-3 {
        fill: #fff;
      }
    </style>
  </defs>
  <path class="cls-2" d="M5.2,12.4c-2-.4-3.4-1.7-3.4-3.3s2-3.4,4.5-3.4.4,0,.7,0h0c.6-1.5,1.9-2.4,3.5-2.4.5,0,1.1.1,1.6.3,1-1.8,3.3-2.4,5.1-1.4,1.2.7,1.9,1.9,1.9,3.3,0,0,0,0,0,.2h0s0,.2,0,.2c1.8.4,3.2,1.7,3.2,3.3s-1.5,2.9-3.4,3.3H5.2Z"/>
  <path class="cls-3" d="M5.2,10.3h13.6v5.5H5.2v-5.5Z"/>
  <circle class="cls-2" cx="7.9" cy="13.1" r="1"/>
  <path class="cls-3" d="M7,.5h10v7.4H7V.5Z"/>
  <path class="cls-1" d="M14.8,2.1h-5.6c-.1,0-.2.1-.2.2s.1.2.2.2h5.6c.1,0,.2-.1.2-.2s-.1-.2-.2-.2h0Z"/>
  <path class="cls-1" d="M14.8,4h-5.6c-.1,0-.2.1-.2.2s.1.2.2.2h5.6c.1,0,.2-.1.2-.2s-.1-.2-.2-.2h0Z"/>
  <path class="cls-1" d="M14.8,5.8h-5.6c-.1,0-.2.1-.2.2s.1.2.2.2h5.6c.1,0,.2-.1.2-.2s-.1-.2-.2-.2h0Z"/>
  <path class="cls-1" d="M16.1,18.8c.1,0,.2-.1.2-.2v-3.5c0-.1-.1-.2-.2-.2s-.2.1-.2.2v3.5c0,.1.1.3.2.3h0Z"/>
  <path class="cls-1" d="M7.9,11.9c-.7,0-1.3.6-1.3,1.3s.6,1.3,1.3,1.3,1.3-.6,1.3-1.3h0c0-.7-.6-1.3-1.3-1.3ZM7.9,13.9c-.4,0-.8-.4-.8-.8s.4-.8.8-.8.8.4.8.8-.4.8-.8.8Z"/>
  <path class="cls-1" d="M17.8,20.6h-3.4c-.1,0-.2.1-.2.2s.1.2.2.2h3.4c.1,0,.2-.1.2-.2s-.1-.2-.2-.2Z"/>
  <path class="cls-1" d="M19,12.9v-.3c2-.5,3.4-1.9,3.4-3.5s-1.3-2.9-3.2-3.5c0-1.5-.8-2.9-2.1-3.6V.5c0-.1-.1-.2-.2-.2H7c-.1,0-.2.1-.2.2h0v4.9c-.1,0-.3,0-.4,0-2.6,0-4.8,1.7-4.8,3.7s1.4,3.1,3.4,3.5v3.2c0,.1.1.2.2.2h5.4c-1,3.1.6,6.3,3.7,7.4s6.3-.6,7.4-3.7c.9-2.6-.2-5.5-2.6-6.8h0ZM7.3,5.7V.8h9.5v6.9H7.3v-2ZM4.9,10.3v1.8c-1.7-.4-2.9-1.6-2.9-3s1.9-3.2,4.3-3.2.3,0,.4,0v1.7h-.4c-.1,0-.2.1-.2.2s.1.2.2.2h11.2c.1,0,.2-.1.2-.2s-.1-.2-.2-.2h-.4V2.6c1,.7,1.6,1.9,1.6,3.2,0,.1,0,.2.2.2,1.8.4,3,1.6,3,3s-1.2,2.6-2.9,3v-1.8c0-.1-.1-.2-.2-.2H5.2c-.1,0-.2.1-.3.2h0ZM5.4,15.6v-5h13.1v2.1c-2.9-1.4-6.4,0-7.7,2.8,0,0,0,0,0,.1h-5.3ZM16.1,23.2c-2.9,0-5.3-2.4-5.3-5.3,0-2.9,2.4-5.3,5.3-5.3.9,0,1.8.2,2.5.6,0,0,0,0,0,0,2.6,1.4,3.5,4.7,2,7.3-.9,1.7-2.7,2.7-4.6,2.7h0Z"/>
  <path class="cls-1" d="M15.9,20.1c0,.1.2.1.4,0h0s1.7-1.9,1.7-1.9c0-.1,0-.3,0-.4s-.3,0-.4,0l-1.5,1.7-1.5-1.7c0-.1-.2-.1-.4,0s-.1.2,0,.4l1.7,1.9Z"/>
</svg>