<svg width="534" height="237" viewBox="0 0 534 237" fill="none" xmlns="http://www.w3.org/2000/svg">
<path opacity="0.66" d="M244.935 46.1804C244.021 45.5128 243.048 44.925 241.956 44.4766C237.11 42.4838 230.378 43.3407 226.495 40.4013C224.499 38.8868 223.467 36.4755 220.736 35.8279C216.973 34.9311 213.08 38.1993 209.317 37.3025C205.464 36.3858 205.573 32.4003 204.193 29.5705C202.585 26.2724 197.779 24.0006 193.072 24.3294C188.365 24.6583 184.205 27.5478 183.45 31.0053C178.386 30.3178 172.527 29.7897 168.665 32.3106C166.858 33.4963 165.805 35.1802 164.335 36.6051C160.771 40.0426 154.465 41.7764 148.746 40.8995C145.826 40.4511 143.155 39.4049 140.375 38.6178C137.595 37.8306 134.507 37.3025 131.657 37.9303C127.943 38.7573 126.732 41.8062 123.018 42.7927C120.804 43.3805 118.808 43.6994 116.921 44.8353C116.653 44.9947 115.898 45.5427 115.134 46.1705H244.925L244.935 46.1804Z" fill="#97CAFE"/>
<path opacity="0.66" d="M525.387 31.3419C524.078 30.3858 522.684 29.5437 521.12 28.9015C514.18 26.0473 504.537 27.2746 498.976 23.0646C496.118 20.8954 494.638 17.4418 490.727 16.5142C485.337 15.2298 479.762 19.9107 474.372 18.6263C468.854 17.3134 469.01 11.6049 467.033 7.55189C464.729 2.82814 457.846 -0.425703 451.105 0.0452454C444.363 0.516194 438.404 4.65483 437.323 9.60692C430.07 8.62221 421.679 7.86586 416.147 11.4765C413.558 13.1747 412.051 15.5866 409.946 17.6273C404.84 22.5509 395.809 25.0341 387.617 23.7782C383.436 23.136 379.61 21.6375 375.628 20.5101C371.646 19.3827 367.223 18.6263 363.141 19.5254C357.822 20.7099 356.087 25.0769 350.768 26.4897C347.596 27.3317 344.738 27.7884 342.036 29.4153C341.652 29.6436 340.571 30.4286 339.476 31.3276H525.372L525.387 31.3419Z" fill="#97CAFE"/>
<path opacity="0.38" d="M532.919 112.477C532.492 112.168 532.026 111.889 531.509 111.67C529.225 110.723 526.038 111.132 524.211 109.747C523.268 109.03 522.781 107.894 521.49 107.585C519.713 107.166 517.876 108.701 516.098 108.282C514.281 107.844 514.331 105.971 513.676 104.635C512.921 103.081 510.647 102.005 508.423 102.154C506.199 102.304 504.232 103.669 503.875 105.313C501.482 104.994 498.722 104.735 496.894 105.931C496.04 106.489 495.544 107.286 494.849 107.954C493.161 109.578 490.192 110.395 487.481 109.986C486.101 109.777 484.84 109.279 483.529 108.91C482.218 108.541 480.759 108.282 479.408 108.591C477.651 108.98 477.085 110.425 475.327 110.893C474.285 111.172 473.341 111.321 472.448 111.859C472.318 111.939 471.961 112.188 471.604 112.497H532.919V112.477Z" fill="#97CAFE"/>
<path opacity="0.38" d="M528.514 161.533C528.186 161.224 527.839 160.945 527.452 160.726C525.724 159.779 523.321 160.188 521.941 158.803C521.226 158.085 520.858 156.949 519.885 156.641C518.545 156.222 517.155 157.756 515.814 157.338C514.444 156.9 514.484 155.026 513.987 153.691C513.411 152.137 511.703 151.061 510.025 151.21C508.347 151.36 506.867 152.725 506.599 154.369C504.792 154.05 502.707 153.791 501.337 154.986C500.691 155.544 500.314 156.342 499.788 157.009C498.517 158.633 496.273 159.45 494.237 159.042C493.194 158.833 492.241 158.334 491.258 157.966C490.265 157.597 489.163 157.338 488.15 157.647C486.829 158.035 486.392 159.48 485.072 159.949C484.287 160.228 483.572 160.377 482.897 160.915C482.798 160.995 482.53 161.244 482.262 161.553H528.514V161.533Z" fill="#97CAFE"/>
<path opacity="0.66" d="M325.583 20.4334C323.726 19.3772 321.353 18.5602 318.741 18.0919C317.957 17.9524 317.132 17.8328 316.507 17.5538C315.325 17.0058 315.315 16.0692 314.581 15.3418C313.647 14.4251 311.532 13.9269 309.546 13.9967C307.56 14.0664 305.723 14.6444 304.363 15.4016C303.717 15.7603 303.132 16.1788 302.258 16.3581C301.642 16.4877 300.947 16.4877 300.312 16.5973C298.663 16.8962 297.66 17.9624 295.913 18.0122C294.483 18.052 293.381 17.3944 292.527 16.7966C291.673 16.1987 290.61 15.5212 289.18 15.5311C287.88 15.5311 286.847 16.1389 286.341 16.7567C285.834 17.3745 285.675 18.072 285.159 18.6997C284.633 19.3175 283.55 19.8954 282.249 19.8754C280.83 19.8455 279.777 19.1979 278.297 19.2975C277.354 19.3673 276.063 19.7459 275.487 20.1544C275.358 20.2441 275.269 20.3338 275.189 20.4234H325.573L325.583 20.4334Z" fill="#97CAFE"/>
<path opacity="0.66" d="M114.357 77.9055C116.304 77.1482 118.776 76.5703 121.507 76.2415C122.321 76.1419 123.195 76.0622 123.84 75.8529C125.072 75.4643 125.091 74.7967 125.856 74.2786C126.829 73.621 129.034 73.2723 131.119 73.3221C133.194 73.3719 135.11 73.7804 136.54 74.3185C137.216 74.5775 137.831 74.8665 138.745 75.006C139.39 75.0957 140.115 75.0957 140.77 75.1754C142.498 75.3946 143.541 76.1419 145.368 76.1817C146.867 76.2116 148.019 75.7433 148.903 75.3149C149.787 74.8864 150.899 74.4082 152.398 74.4181C153.758 74.4181 154.831 74.8466 155.357 75.2949C155.883 75.7433 156.052 76.2316 156.598 76.6799C157.144 77.1184 158.276 77.5368 159.637 77.5169C161.116 77.497 162.219 77.0287 163.758 77.1084C164.741 77.1582 166.091 77.4272 166.697 77.7162C166.826 77.776 166.925 77.8457 167.015 77.9155H114.367L114.357 77.9055Z" fill="#97CAFE"/>
<path opacity="0.66" d="M98.5301 19.6363C95.293 18.331 91.1722 17.3247 86.6343 16.7567C85.2739 16.5873 83.8242 16.4379 82.7518 16.0891C80.7063 15.4215 80.6765 14.2558 79.3956 13.359C77.777 12.2231 74.103 11.6153 70.6376 11.705C67.182 11.7947 63.9847 12.5021 61.6214 13.4387C60.4994 13.8771 59.4766 14.3952 57.9574 14.6244C56.885 14.7838 55.6735 14.7838 54.5813 14.9233C51.7116 15.292 49.964 16.5973 46.9255 16.667C44.4331 16.7169 42.5167 15.9098 41.0372 15.1625C39.5576 14.4251 37.7107 13.5981 35.2184 13.6081C32.9544 13.6181 31.167 14.3554 30.2833 15.1226C29.3996 15.8898 29.1315 16.7468 28.2179 17.514C27.3044 18.2812 25.4277 18.9886 23.1637 18.9587C20.6912 18.9189 18.8642 18.1218 16.3023 18.2513C14.6639 18.331 12.4198 18.7993 11.4169 19.3075C11.1984 19.4171 11.0396 19.5267 10.8906 19.6463H98.5301V19.6363Z" fill="#97CAFE"/>
<path opacity="0.38" d="M61.6114 93.3992C59.8538 91.4961 56.9842 90.5993 54.5514 89.294C52.4562 88.1781 50.6292 86.7233 49.1993 85.0294C48.1865 83.8338 47.2928 82.4488 45.7239 81.7812C44.2146 81.1435 42.3577 81.3029 40.8186 81.8709C36.3006 83.5249 33.1728 87.3411 28.1781 88.3176C22.9353 89.3438 22.7565 84.0729 18.3179 84.1626C16.9774 84.1925 15.8554 85.0494 15.2397 86.0258C14.0085 87.9887 14.0978 91.6754 10.7912 92.2533C8.78544 92.6021 7.3357 91.0377 5.37956 91.2569C4.2575 91.3865 2.7184 92.1039 2.03325 92.8711C1.88431 93.0405 1.77508 93.2099 1.67578 93.3892H39.1306C46.6275 93.3892 54.1244 93.3892 61.6213 93.3892L61.6114 93.3992Z" fill="#97CAFE"/>
<path opacity="0.66" d="M349.909 69.8044C346.821 67.9013 341.767 67.0046 337.487 65.6993C333.803 64.5833 330.586 63.1286 328.074 61.4347C326.297 60.239 324.718 58.854 321.947 58.1865C319.296 57.5488 316.029 57.7082 313.309 58.2761C305.365 59.9302 299.844 63.7464 291.056 64.7228C281.831 65.7491 281.514 60.4782 273.699 60.5678C271.346 60.5977 269.37 61.4546 268.277 62.4311C266.103 64.394 266.272 68.0807 260.453 68.6586C256.918 69.0073 254.376 67.443 250.93 67.6622C248.954 67.7917 246.243 68.5091 245.032 69.2764C244.774 69.4457 244.575 69.6151 244.396 69.7945H310.32C323.516 69.7945 336.713 69.7945 349.909 69.7945V69.8044Z" fill="#97CAFE"/>
<path opacity="0.66" d="M533.62 190.073C522.217 186.672 484.11 170.318 474.372 177.185C472.3 178.647 470.597 180.749 468.287 181.702C462.861 183.936 456.362 179.033 451.143 181.76C448.557 183.115 446.961 186.072 444.421 187.518C436.747 191.871 429.403 180.339 420.87 178.606C416.242 177.669 410.633 179.476 407.318 175.903C404.785 173.168 404.217 167.788 400.641 167.369C398.692 167.139 397.012 168.692 395.538 170.08C377.689 186.943 348.252 192.643 330.463 175.706C328.361 173.702 326.343 171.361 323.634 170.523C318.63 168.987 313.849 173.094 309.552 176.224C292.915 188.347 269.065 187.69 253.034 174.671C246.572 169.423 241.185 162.342 233.665 159.106C216.936 151.903 199.002 166.466 180.968 166.926C163.878 167.361 148.354 155.048 131.264 154.646C115.095 154.268 100.638 164.445 86.5714 172.996C75.851 179.509 48.3228 201.635 35.5918 201.052L50.0206 223.215H533.62V208.474V190.073Z" fill="#C5DCEF"/>
<path d="M191.51 207.33L191.223 207.891L191.08 208.171L190.959 208.467L190.717 209.05L190.521 209.656L190.422 209.96L190.347 210.27C190.302 210.475 190.241 210.687 190.203 210.892C190.083 211.544 190.022 212.203 190.022 212.87C189.894 212.552 189.773 212.233 189.667 211.907C189.418 211.149 189.229 210.361 189.101 209.566C189.131 210.376 189.222 211.187 189.38 211.983C189.441 212.301 189.516 212.612 189.599 212.923C188.927 212.157 188.179 211.468 187.386 210.846C186.971 210.543 186.563 210.232 186.118 209.967C185.899 209.831 185.687 209.687 185.46 209.566L184.788 209.202C184.569 209.073 184.335 208.967 184.101 208.861L183.406 208.535C182.938 208.338 182.462 208.163 181.986 207.974C182.447 208.194 182.908 208.406 183.353 208.633L184.018 209.005C184.237 209.126 184.464 209.247 184.667 209.391L185.302 209.8C185.513 209.937 185.71 210.096 185.914 210.24C186.329 210.528 186.699 210.861 187.084 211.187C187.824 211.862 188.512 212.589 189.108 213.385C189.259 213.582 189.403 213.787 189.531 213.991C189.667 214.196 189.796 214.408 189.916 214.62C190.09 214.931 190.256 215.257 190.392 215.575C190.438 215.727 190.49 215.886 190.558 216.045L191.359 215.651C191.359 215.651 191.359 215.636 191.351 215.628H191.367C191.291 215.447 191.216 215.287 191.132 215.136C191.064 214.946 190.996 214.757 190.944 214.567C190.838 214.181 190.747 213.787 190.687 213.385C190.574 212.582 190.543 211.763 190.626 210.945C190.642 210.74 190.679 210.536 190.709 210.331L190.755 210.028L190.823 209.725L190.966 209.118L191.155 208.527L191.246 208.232L191.367 207.944L191.601 207.368C191.774 206.989 191.978 206.625 192.16 206.246C191.941 206.602 191.706 206.951 191.503 207.315L191.51 207.33Z" fill="#475D05"/>
<path d="M206.376 203.662C196.671 203.662 188.801 211.559 188.801 221.298H223.95C223.95 211.559 216.081 203.662 206.376 203.662Z" fill="#62820F"/>
<path d="M181.769 210.202C175.659 210.202 170.704 215.174 170.704 221.305H192.833C192.833 215.174 187.879 210.202 181.769 210.202Z" fill="#62820F"/>
<path d="M181.768 210.202C181.179 210.202 180.598 210.248 180.031 210.339C185.318 211.172 189.359 215.765 189.359 221.305H192.833C192.833 215.174 187.878 210.202 181.768 210.202Z" fill="#475D05"/>
<path d="M206.379 203.662C205.843 203.662 205.314 203.692 204.793 203.738C213.758 204.541 220.782 212.097 220.782 221.298H223.961C223.961 211.559 216.092 203.662 206.387 203.662H206.379Z" fill="#475D05"/>
<path d="M200.976 213.242C202.974 213.242 204.594 211.616 204.594 209.612C204.594 207.607 202.974 205.981 200.976 205.981C198.978 205.981 197.358 207.607 197.358 209.612C197.358 211.616 198.978 213.242 200.976 213.242Z" fill="#89A51D"/>
<path d="M194.857 213.864C195.708 213.864 196.398 213.171 196.398 212.318C196.398 211.464 195.708 210.771 194.857 210.771C194.006 210.771 193.316 211.464 193.316 212.318C193.316 213.171 194.006 213.864 194.857 213.864Z" fill="#89A51D"/>
<path d="M178.402 215.333C179.42 215.333 180.245 214.505 180.245 213.484C180.245 212.463 179.42 211.635 178.402 211.635C177.385 211.635 176.56 212.463 176.56 213.484C176.56 214.505 177.385 215.333 178.402 215.333Z" fill="#89A51D"/>
<path d="M175.282 215.652C175.715 215.652 176.067 215.299 176.067 214.863C176.067 214.428 175.715 214.075 175.282 214.075C174.848 214.075 174.496 214.428 174.496 214.863C174.496 215.299 174.848 215.652 175.282 215.652Z" fill="#89A51D"/>
<path d="M27.5364 202.715L27.1588 203.45L26.97 203.821L26.8114 204.2L26.4942 204.966L26.2374 205.754L26.109 206.148L26.0108 206.557C25.9504 206.83 25.8749 207.095 25.8295 207.376C25.6709 208.224 25.5954 209.088 25.5954 209.96C25.4293 209.551 25.2706 209.134 25.1347 208.702C24.8099 207.709 24.5607 206.678 24.387 205.633C24.4248 206.694 24.5456 207.747 24.7571 208.8C24.8326 209.21 24.9383 209.619 25.0441 210.028C24.168 209.02 23.1862 208.126 22.1439 207.315C21.6001 206.921 21.0639 206.512 20.4899 206.171C20.2029 205.996 19.931 205.799 19.6365 205.648L18.7528 205.17C18.4658 205.004 18.1637 204.86 17.8541 204.723L16.9478 204.299C16.336 204.041 15.7092 203.814 15.0898 203.564C15.6865 203.852 16.2907 204.124 16.8798 204.428L17.7483 204.913C18.0353 205.072 18.3299 205.231 18.6018 205.42L19.4325 205.958C19.712 206.133 19.9688 206.345 20.2331 206.534C20.7693 206.913 21.2603 207.353 21.7663 207.77C22.7406 208.649 23.6393 209.604 24.4097 210.65C24.606 210.907 24.7948 211.173 24.9685 211.445C25.1498 211.711 25.316 211.991 25.4746 212.271C25.7011 212.673 25.9202 213.105 26.0939 213.514C26.1543 213.719 26.2223 213.916 26.3053 214.128L27.3551 213.613C27.3551 213.613 27.3476 213.598 27.34 213.582H27.3627C27.2645 213.348 27.1663 213.135 27.0606 212.938C26.97 212.696 26.8869 212.438 26.8114 212.196C26.6754 211.688 26.547 211.18 26.4791 210.65C26.328 209.604 26.2902 208.528 26.396 207.459C26.4186 207.194 26.4715 206.928 26.5017 206.663L26.5621 206.262L26.6528 205.867L26.834 205.079L27.0757 204.306L27.1965 203.92L27.3476 203.541L27.6572 202.783C27.8838 202.283 28.1482 201.805 28.3898 201.32C28.1028 201.783 27.7932 202.245 27.5289 202.722L27.5364 202.715Z" fill="#89A51D"/>
<path d="M46.9782 197.925C34.2824 197.925 23.9883 208.254 23.9883 220.994H69.9756C69.9756 208.254 59.6815 197.925 46.9857 197.925H46.9782Z" fill="#89A51D"/>
<path d="M14.7968 206.474C6.80624 206.474 0.326172 212.976 0.326172 220.994H29.275C29.275 212.976 22.7949 206.474 14.8044 206.474H14.7968Z" fill="#89A51D"/>
<g style="mix-blend-mode:multiply" opacity="0.3">
<path d="M14.7958 206.474C14.0254 206.474 13.2626 206.534 12.5225 206.656C19.433 207.747 24.7198 213.757 24.7198 221.002H29.2664C29.2664 212.984 22.7863 206.481 14.7958 206.481V206.474Z" fill="#89A51D"/>
</g>
<g style="mix-blend-mode:multiply" opacity="0.3">
<path d="M46.9773 197.925C46.275 197.925 45.5877 197.963 44.9004 198.023C56.6219 199.077 65.8133 208.959 65.8133 220.994H69.9672C69.9672 208.254 59.6731 197.925 46.9773 197.925Z" fill="#89A51D"/>
</g>
<path d="M39.9164 210.445C42.5275 210.445 44.6442 208.321 44.6442 205.701C44.6442 203.081 42.5275 200.957 39.9164 200.957C37.3052 200.957 35.1885 203.081 35.1885 205.701C35.1885 208.321 37.3052 210.445 39.9164 210.445Z" fill="#A0BE26"/>
<path d="M31.9189 211.264C33.0326 211.264 33.9354 210.358 33.9354 209.24C33.9354 208.123 33.0326 207.217 31.9189 207.217C30.8052 207.217 29.9023 208.123 29.9023 209.24C29.9023 210.358 30.8052 211.264 31.9189 211.264Z" fill="#A0BE26"/>
<path d="M10.3878 213.188C11.7184 213.188 12.797 212.105 12.797 210.77C12.797 209.435 11.7184 208.353 10.3878 208.353C9.05718 208.353 7.97852 209.435 7.97852 210.77C7.97852 212.105 9.05718 213.188 10.3878 213.188Z" fill="#A0BE26"/>
<path d="M6.30839 213.612C6.87567 213.612 7.33554 213.151 7.33554 212.581C7.33554 212.012 6.87567 211.551 6.30839 211.551C5.74112 211.551 5.28125 212.012 5.28125 212.581C5.28125 213.151 5.74112 213.612 6.30839 213.612Z" fill="#A0BE26"/>
<path d="M407.539 201.889L407.162 202.624L406.973 202.995L406.814 203.374L406.497 204.139L406.24 204.928L406.112 205.322L406.014 205.731C405.953 206.004 405.878 206.269 405.832 206.549C405.674 207.398 405.598 208.262 405.598 209.134C405.432 208.724 405.274 208.308 405.138 207.876C404.813 206.883 404.564 205.852 404.39 204.806C404.428 205.867 404.549 206.921 404.76 207.974C404.836 208.383 404.941 208.793 405.047 209.202C404.171 208.194 403.189 207.3 402.147 206.489C401.603 206.095 401.067 205.685 400.493 205.344C400.206 205.17 399.934 204.973 399.639 204.822L398.756 204.344C398.469 204.177 398.167 204.033 397.857 203.897L396.951 203.473C396.339 203.215 395.712 202.988 395.093 202.737C395.689 203.025 396.294 203.298 396.883 203.601L397.751 204.086C398.038 204.246 398.333 204.405 398.605 204.594L399.435 205.132C399.715 205.307 399.972 205.519 400.236 205.708C400.772 206.087 401.263 206.527 401.769 206.944C402.743 207.823 403.642 208.778 404.413 209.823C404.609 210.081 404.798 210.346 404.971 210.619C405.153 210.884 405.319 211.165 405.477 211.445C405.704 211.847 405.923 212.279 406.097 212.688C406.157 212.893 406.225 213.09 406.308 213.302L407.358 212.787C407.358 212.787 407.351 212.771 407.343 212.756H407.366C407.267 212.521 407.169 212.309 407.064 212.112C406.973 211.87 406.89 211.612 406.814 211.369C406.678 210.862 406.55 210.354 406.482 209.823C406.331 208.778 406.293 207.701 406.399 206.633C406.422 206.368 406.474 206.102 406.505 205.837L406.565 205.435L406.656 205.041L406.837 204.253L407.079 203.48L407.199 203.094L407.351 202.715L407.66 201.957C407.887 201.457 408.151 200.979 408.393 200.494C408.106 200.956 407.796 201.419 407.532 201.896L407.539 201.889Z" fill="#89A51D"/>
<path d="M426.98 197.099C414.284 197.099 403.99 207.428 403.99 220.168H449.978C449.978 207.428 439.683 197.099 426.988 197.099H426.98Z" fill="#89A51D"/>
<path d="M394.791 205.647C386.8 205.647 380.32 212.15 380.32 220.168H409.269C409.269 212.15 402.789 205.647 394.798 205.647H394.791Z" fill="#89A51D"/>
<g style="mix-blend-mode:multiply" opacity="0.3">
<path d="M394.79 205.647C394.02 205.647 393.257 205.708 392.517 205.829C399.427 206.921 404.714 212.93 404.714 220.176H409.261C409.261 212.157 402.78 205.655 394.79 205.655V205.647Z" fill="#89A51D"/>
</g>
<g style="mix-blend-mode:multiply" opacity="0.3">
<path d="M426.98 197.099C426.278 197.099 425.591 197.137 424.903 197.197C436.625 198.251 445.816 208.133 445.816 220.168H449.97C449.97 207.428 439.676 197.099 426.98 197.099Z" fill="#89A51D"/>
</g>
<path d="M419.911 209.618C422.523 209.618 424.639 207.494 424.639 204.874C424.639 202.254 422.523 200.13 419.911 200.13C417.3 200.13 415.184 202.254 415.184 204.874C415.184 207.494 417.3 209.618 419.911 209.618Z" fill="#A0BE26"/>
<path d="M411.921 210.437C413.035 210.437 413.937 209.531 413.937 208.413C413.937 207.296 413.035 206.39 411.921 206.39C410.807 206.39 409.904 207.296 409.904 208.413C409.904 209.531 410.807 210.437 411.921 210.437Z" fill="#A0BE26"/>
<path d="M390.382 212.362C391.713 212.362 392.791 211.28 392.791 209.945C392.791 208.61 391.713 207.527 390.382 207.527C389.051 207.527 387.973 208.61 387.973 209.945C387.973 211.28 389.051 212.362 390.382 212.362Z" fill="#A0BE26"/>
<path d="M386.303 212.787C386.87 212.787 387.33 212.326 387.33 211.756C387.33 211.187 386.87 210.726 386.303 210.726C385.735 210.726 385.275 211.187 385.275 211.756C385.275 212.326 385.735 212.787 386.303 212.787Z" fill="#A0BE26"/>
<path d="M320.692 209.33L320.436 209.823L320.307 210.073L320.201 210.33L319.99 210.846L319.816 211.376L319.733 211.642L319.665 211.914C319.628 212.096 319.575 212.278 319.544 212.468C319.439 213.036 319.386 213.62 319.386 214.203C319.273 213.923 319.167 213.642 319.076 213.362C318.857 212.695 318.691 212.005 318.578 211.301C318.608 212.013 318.683 212.725 318.827 213.43C318.88 213.711 318.948 213.983 319.016 214.256C318.427 213.582 317.77 212.975 317.067 212.43C316.697 212.164 316.342 211.892 315.949 211.657C315.761 211.543 315.572 211.407 315.375 211.301L314.786 210.975C314.59 210.861 314.386 210.77 314.182 210.671L313.57 210.391C313.155 210.217 312.74 210.065 312.324 209.898C312.725 210.096 313.132 210.277 313.533 210.482L314.114 210.808C314.311 210.914 314.507 211.02 314.688 211.149L315.247 211.513C315.436 211.634 315.61 211.77 315.783 211.899C316.146 212.149 316.478 212.445 316.81 212.733C317.46 213.324 318.064 213.968 318.585 214.665C318.714 214.84 318.842 215.014 318.963 215.204C319.084 215.385 319.197 215.567 319.303 215.757C319.454 216.03 319.605 216.318 319.718 216.598C319.756 216.734 319.809 216.871 319.862 217.015L320.564 216.666C320.564 216.666 320.564 216.651 320.556 216.651H320.572C320.504 216.492 320.436 216.355 320.368 216.219C320.307 216.052 320.247 215.886 320.201 215.719C320.111 215.378 320.028 215.037 319.975 214.681C319.869 213.976 319.847 213.256 319.922 212.536C319.937 212.354 319.967 212.18 319.998 211.998L320.035 211.733L320.096 211.467L320.217 210.937L320.383 210.414L320.466 210.156L320.572 209.906L320.783 209.398C320.934 209.065 321.115 208.747 321.274 208.413C321.085 208.724 320.874 209.035 320.692 209.353V209.33Z" fill="#89A51D"/>
<path d="M333.765 206.109C325.231 206.109 318.312 213.051 318.312 221.615H349.225C349.225 213.051 342.307 206.109 333.773 206.109H333.765Z" fill="#89A51D"/>
<path d="M312.127 211.854C306.757 211.854 302.399 216.226 302.399 221.615H321.855C321.855 216.226 317.497 211.854 312.127 211.854Z" fill="#89A51D"/>
<g style="mix-blend-mode:multiply" opacity="0.3">
<path d="M312.126 211.854C311.605 211.854 311.099 211.899 310.601 211.975C315.245 212.71 318.803 216.749 318.803 221.615H321.861C321.861 216.226 317.504 211.854 312.134 211.854H312.126Z" fill="#89A51D"/>
</g>
<g style="mix-blend-mode:multiply" opacity="0.3">
<path d="M333.765 206.109C333.297 206.109 332.829 206.132 332.368 206.178C340.245 206.89 346.423 213.529 346.423 221.623H349.218C349.218 213.059 342.3 206.117 333.765 206.117V206.109Z" fill="#89A51D"/>
</g>
<path d="M329.014 214.522C330.77 214.522 332.193 213.093 332.193 211.331C332.193 209.569 330.77 208.141 329.014 208.141C327.258 208.141 325.834 209.569 325.834 211.331C325.834 213.093 327.258 214.522 329.014 214.522Z" fill="#A0BE26"/>
<path d="M323.637 215.068C324.384 215.068 324.989 214.46 324.989 213.711C324.989 212.962 324.384 212.354 323.637 212.354C322.89 212.354 322.285 212.962 322.285 213.711C322.285 214.46 322.89 215.068 323.637 215.068Z" fill="#A0BE26"/>
<path d="M309.168 216.371C310.065 216.371 310.792 215.642 310.792 214.742C310.792 213.842 310.065 213.112 309.168 213.112C308.271 213.112 307.544 213.842 307.544 214.742C307.544 215.642 308.271 216.371 309.168 216.371Z" fill="#A0BE26"/>
<path d="M306.426 216.644C306.805 216.644 307.113 216.335 307.113 215.954C307.113 215.573 306.805 215.265 306.426 215.265C306.046 215.265 305.738 215.573 305.738 215.954C305.738 216.335 306.046 216.644 306.426 216.644Z" fill="#A0BE26"/>
<path d="M533.622 219.304H0.326172V236.121H533.622V219.304Z" fill="#324E60"/>
<path d="M97.9228 217.606H34.0511C32.7219 217.606 31.6494 218.364 31.6494 219.304C31.6494 220.244 32.7219 221.002 34.0511 221.002H97.9228C99.2521 221.002 100.325 220.244 100.325 219.304C100.325 218.364 99.2521 217.606 97.9228 217.606Z" fill="#D8CBC5"/>
<path d="M416.813 217.606H168.599C167.27 217.606 166.197 218.364 166.197 219.304C166.197 220.244 167.27 221.002 168.599 221.002H416.813C418.142 221.002 419.214 220.244 419.214 219.304C419.214 218.364 418.142 217.606 416.813 217.606Z" fill="#D8CBC5"/>
<path d="M505.186 217.606H488.872C487.543 217.606 486.471 218.364 486.471 219.304C486.471 220.244 487.543 221.002 488.872 221.002H505.186C506.515 221.002 507.588 220.244 507.588 219.304C507.588 218.364 506.515 217.606 505.186 217.606Z" fill="#D8CBC5"/>
<path d="M46.2346 230.938H34.3469C33.9617 230.938 33.6445 231.188 33.6445 231.498C33.6445 231.809 33.9542 232.059 34.3469 232.059H46.2346C46.6198 232.059 46.937 231.809 46.937 231.498C46.937 231.188 46.6273 230.938 46.2346 230.938Z" fill="#D8CBC5"/>
<path d="M124.667 230.938H100.862C100.476 230.938 100.159 231.188 100.159 231.498C100.159 231.809 100.469 232.059 100.862 232.059H124.667C125.052 232.059 125.37 231.809 125.37 231.498C125.37 231.188 125.06 230.938 124.667 230.938Z" fill="#D8CBC5"/>
<path d="M203.092 230.938H179.286C178.901 230.938 178.584 231.188 178.584 231.498C178.584 231.809 178.894 232.059 179.286 232.059H203.092C203.477 232.059 203.794 231.809 203.794 231.498C203.794 231.188 203.485 230.938 203.092 230.938Z" fill="#D8CBC5"/>
<path d="M359.95 230.938H336.145C335.76 230.938 335.442 231.188 335.442 231.498C335.442 231.809 335.752 232.059 336.145 232.059H359.95C360.336 232.059 360.653 231.809 360.653 231.498C360.653 231.188 360.343 230.938 359.95 230.938Z" fill="#D8CBC5"/>
<path d="M281.525 230.938H257.712C257.327 230.938 257.01 231.188 257.01 231.498C257.01 231.809 257.319 232.059 257.712 232.059H281.525C281.91 232.059 282.228 231.809 282.228 231.498C282.228 231.188 281.918 230.938 281.525 230.938Z" fill="#D8CBC5"/>
<path d="M438.376 230.938H414.571C414.185 230.938 413.868 231.188 413.868 231.498C413.868 231.809 414.178 232.059 414.571 232.059H438.376C438.761 232.059 439.079 231.809 439.079 231.498C439.079 231.188 438.769 230.938 438.376 230.938Z" fill="#D8CBC5"/>
<path d="M504.886 230.938H492.998C492.613 230.938 492.296 231.188 492.296 231.498C492.296 231.809 492.606 232.059 492.998 232.059H504.886C505.271 232.059 505.588 231.809 505.588 231.498C505.588 231.188 505.279 230.938 504.886 230.938Z" fill="#D8CBC5"/>
<path d="M385.77 100L431.77 100.996L385.77 102V100Z" fill="#F6C332"/>
<path d="M378.507 194.682L477.74 195.796L378.507 196.909V194.682Z" fill="#11345B"/>
<path d="M378.507 200.984L444.008 203.203L378.507 205.431V200.984Z" fill="#11345B"/>
<path d="M341.574 226.923L407.075 229.151L341.574 231.378V226.923Z" fill="#233A4C"/>
<path d="M343.794 222.113L384.788 224.332L343.794 226.56V222.113Z" fill="#233A4C"/>
<path d="M343.794 214.446L374.324 216.674L343.794 218.902V214.446Z" fill="#233A4C"/>
<path d="M173.52 226.923L239.021 229.151L173.52 231.378V226.923Z" fill="#233A4C"/>
<path d="M175.739 222.113L216.733 224.332L175.739 226.56V222.113Z" fill="#233A4C"/>
<path d="M175.739 214.446L206.27 216.674L175.739 218.902V214.446Z" fill="#233A4C"/>
<path d="M398.366 197.296C398.366 195.559 396.962 194.15 395.231 194.15C393.499 194.15 392.096 195.559 392.096 197.296V209.242C392.096 210.979 393.499 212.387 395.231 212.387C396.962 212.387 398.366 210.979 398.366 209.242V197.296Z" fill="#11345B"/>
<path d="M206.81 119.128V210.464H214.705V119.128H206.81Z" fill="#11345B"/>
<path d="M206.81 212.388H113.845C112.644 212.388 111.673 211.413 111.673 210.208V169.268C111.673 167.398 112.644 165.661 114.225 164.686L120.46 160.849L133.848 124.393C135.508 119.058 140.436 115.416 146.017 115.416H205.017C207.066 115.416 208.717 117.082 208.717 119.129V210.465C208.717 211.519 207.861 212.379 206.81 212.379V212.388Z" fill="#11345B"/>
<path d="M192.716 197.545H208.727V119.129C208.727 117.073 207.067 115.416 205.027 115.416H146.027C140.454 115.416 135.526 119.049 133.857 124.393L120.47 160.849L114.235 164.686C112.645 165.661 111.683 167.398 111.683 169.268V210.208C111.683 211.413 112.654 212.388 113.855 212.388H142.538C142.415 211.351 142.344 210.297 142.344 209.233C142.344 194.532 154.222 182.613 168.873 182.613C179.346 182.613 188.407 188.71 192.716 197.554V197.545Z" fill="url(#paint0_linear_1173_229)"/>
<g style="mix-blend-mode:multiply" opacity="0.5">
<path d="M203.898 197.544V122.07C203.898 119.563 201.867 117.524 199.368 117.524H146.028C141.348 117.524 137.259 120.537 135.882 124.968L121.77 163.72V203.269C121.77 207.141 124.905 210.287 128.764 210.287H142.381C142.364 209.933 142.346 209.587 142.346 209.233C142.346 208.781 142.355 208.329 142.381 207.877H128.764C126.229 207.877 124.163 205.803 124.163 203.26V164.136L138.151 125.73C139.237 122.256 142.399 119.926 146.028 119.926H199.368C200.543 119.926 201.496 120.883 201.496 122.062V197.535H203.898V197.544Z" fill="#F8A71D"/>
</g>
<g style="mix-blend-mode:multiply" opacity="0.5">
<path d="M195.223 119.926H146.026C142.396 119.926 139.235 122.256 138.166 125.703L125.52 159.758C125.149 160.946 125.361 162.213 126.094 163.214C126.827 164.216 127.966 164.801 129.211 164.801H138.864C143.376 164.801 147.774 163.197 151.227 160.281L152.428 159.262C155.669 156.533 159.784 155.026 164.023 155.026H195.223C197.528 155.026 199.401 153.148 199.401 150.835V124.117C199.401 121.804 197.528 119.926 195.223 119.926Z" fill="#F8A71D"/>
</g>
<path d="M199.367 118.119H146.028C141.612 118.119 137.753 120.964 136.446 125.164L122.404 163.712L122.369 163.809V203.252C122.369 206.788 125.239 209.668 128.763 209.668H203.297V122.054C203.297 119.883 201.531 118.11 199.367 118.11V118.119ZM202.096 208.471H128.763C125.893 208.471 123.561 206.132 123.561 203.252V164.022L137.576 125.545C138.742 121.823 142.133 119.316 146.019 119.316H199.358C200.86 119.316 202.087 120.547 202.087 122.054V208.463L202.096 208.471Z" fill="#11345B"/>
<path d="M164.023 154.424H195.223C197.202 154.424 198.8 152.82 198.8 150.835V124.117C198.8 122.132 197.202 120.528 195.223 120.528H146.026C142.661 120.528 139.729 122.691 138.722 125.916L126.085 159.944C125.423 162.054 127.003 164.207 129.202 164.207H138.855C143.235 164.207 147.474 162.656 150.83 159.829L152.031 158.81C155.386 155.983 159.625 154.433 164.006 154.433L164.023 154.424Z" fill="#11345B"/>
<g style="mix-blend-mode:multiply" opacity="0.5">
<path d="M198.014 160.857H188.424C187.541 160.857 186.825 161.575 186.825 162.461C186.825 163.348 187.541 164.065 188.424 164.065H198.014C198.897 164.065 199.613 163.348 199.613 162.461C199.613 161.575 198.897 160.857 198.014 160.857Z" fill="#F8A71D"/>
</g>
<path d="M197.203 160.043H187.612C186.729 160.043 186.014 160.761 186.014 161.647C186.014 162.533 186.729 163.251 187.612 163.251H197.203C198.086 163.251 198.801 162.533 198.801 161.647C198.801 160.761 198.086 160.043 197.203 160.043Z" fill="#FEECCC"/>
<path d="M117.75 204.147H109.511V186.627C109.511 185.006 108.124 183.721 106.482 183.871C105.051 184.004 104 185.298 104 186.743V206.362C104 207.505 104.574 208.515 105.457 209.109C105.987 209.464 106.623 209.676 107.303 209.676H117.874C119.49 209.676 120.77 208.285 120.62 206.637C120.488 205.201 119.198 204.147 117.759 204.147H117.75Z" fill="#11345B"/>
<path d="M192.717 197.545C194.439 201.072 195.401 205.033 195.401 209.224C195.401 210.297 195.331 211.342 195.207 212.379H206.811C207.862 212.379 208.719 211.52 208.719 210.465V197.545H192.708H192.717Z" fill="#11345B"/>
<path d="M129.345 147.273L127.543 146.529C127.419 146.475 126.854 146.529 126.854 146.529C126.43 146.351 126.086 147.308 126.086 148.673V160.964C126.086 162.32 126.43 163.569 126.854 163.746L128.656 164.491C128.779 164.544 129.345 164.491 129.345 164.491C129.768 164.668 130.113 163.711 130.113 162.346V150.055C130.113 148.7 129.768 147.45 129.345 147.273Z" fill="#EACFA4"/>
<path d="M128.656 147.272L126.854 146.528C126.43 146.351 126.086 147.308 126.086 148.672V160.963C126.086 162.319 126.43 163.569 126.854 163.746L128.656 164.49C129.08 164.668 129.424 163.71 129.424 162.346V150.055C129.424 148.699 129.08 147.45 128.656 147.272Z" fill="#FEECCC"/>
<path d="M192.716 197.544C188.407 188.7 179.346 182.604 168.872 182.604C168.501 182.604 168.139 182.612 167.777 182.63C177.765 183.055 186.314 189.019 190.473 197.544C192.195 201.071 193.158 205.032 193.158 209.224C193.158 210.296 193.087 211.342 192.964 212.378H195.215C195.339 211.342 195.41 210.287 195.41 209.224C195.41 205.032 194.438 201.071 192.725 197.544H192.716Z" fill="#FEECCC"/>
<path d="M168.871 232.76C181.825 232.76 192.327 222.222 192.327 209.224C192.327 196.225 181.825 185.688 168.871 185.688C155.917 185.688 145.416 196.225 145.416 209.224C145.416 222.222 155.917 232.76 168.871 232.76Z" fill="#233A4C"/>
<path d="M168.873 231.059C180.891 231.059 190.633 221.284 190.633 209.224C190.633 197.165 180.891 187.39 168.873 187.39C156.855 187.39 147.113 197.165 147.113 209.224C147.113 221.284 156.855 231.059 168.873 231.059Z" fill="#294259"/>
<path d="M168.872 223.864C176.929 223.864 183.461 217.309 183.461 209.224C183.461 201.139 176.929 194.585 168.872 194.585C160.815 194.585 154.283 201.139 154.283 209.224C154.283 217.309 160.815 223.864 168.872 223.864Z" fill="#233A4C"/>
<path d="M168.873 221.87C175.833 221.87 181.475 216.208 181.475 209.225C181.475 202.241 175.833 196.579 168.873 196.579C161.914 196.579 156.271 202.241 156.271 209.225C156.271 216.208 161.914 221.87 168.873 221.87Z" fill="#FEECCC"/>
<path d="M176.661 199.3C178.357 201.453 179.372 204.165 179.372 207.116C179.372 214.099 173.729 219.761 166.77 219.761C163.83 219.761 161.127 218.742 158.981 217.041C161.286 219.974 164.854 221.87 168.872 221.87C175.831 221.87 181.474 216.208 181.474 209.225C181.474 205.193 179.593 201.613 176.661 199.3Z" fill="#D8BF98"/>
<path d="M383.637 96H220.483C215.406 96 211.29 100.13 211.29 105.225V203.154C211.29 208.248 215.406 212.379 220.483 212.379H383.637C388.714 212.379 392.83 208.248 392.83 203.154V105.225C392.83 100.13 388.714 96 383.637 96Z" fill="url(#paint1_linear_1173_229)"/>
<path d="M380.009 212.388H290.798C289.65 212.388 288.714 211.449 288.714 210.297V171.014C288.714 169.223 289.641 167.558 291.169 166.618L297.156 162.932L310.006 127.946C311.604 122.824 316.329 119.333 321.68 119.333H378.296C380.257 119.333 381.846 120.928 381.846 122.895V210.545C381.846 211.564 381.025 212.388 380.009 212.388Z" fill="#11345B"/>
<path d="M380.097 115.416H321.097C315.525 115.416 310.597 119.049 308.928 124.393L295.54 160.849L289.305 164.686C287.716 165.661 286.753 167.398 286.753 169.268V210.208C286.753 211.413 287.724 212.388 288.925 212.388H317.609C317.485 211.351 317.414 210.297 317.414 209.233C317.414 194.532 329.292 182.613 343.943 182.613C354.416 182.613 363.477 188.71 367.787 197.554C369.509 201.081 370.471 205.042 370.471 209.233C370.471 210.305 370.401 211.351 370.277 212.388H381.881C382.932 212.388 383.789 211.528 383.789 210.474V119.138C383.789 117.082 382.128 115.425 380.088 115.425L380.097 115.416Z" fill="url(#paint2_linear_1173_229)"/>
<path d="M392.829 133.972H211.289V160.042H392.829V133.972Z" fill="#FEECCC"/>
<g style="mix-blend-mode:multiply" opacity="0.5">
<path d="M385.976 101.796H218.142C217.674 101.796 217.303 102.177 217.303 102.638V205.742C217.303 206.211 217.682 206.584 218.142 206.584H385.976C386.444 206.584 386.815 206.203 386.815 205.742V102.638C386.815 102.168 386.435 101.796 385.976 101.796ZM385.632 102.992V205.396H218.495V102.992H385.632Z" fill="#F8A71D"/>
</g>
<path d="M386.585 101.716H217.532C217.232 101.716 216.984 101.964 216.984 102.265V206.114C216.984 206.415 217.232 206.663 217.532 206.663H386.585C386.885 206.663 387.132 206.415 387.132 206.114V102.265C387.132 101.964 386.885 101.716 386.585 101.716ZM386.532 206.06H217.585V102.31H386.532V206.06Z" fill="#11345B"/>
<path d="M343.941 232.76C356.895 232.76 367.396 222.222 367.396 209.224C367.396 196.225 356.895 185.688 343.941 185.688C330.987 185.688 320.485 196.225 320.485 209.224C320.485 222.222 330.987 232.76 343.941 232.76Z" fill="#233A4C"/>
<path d="M343.943 231.058C355.961 231.058 365.703 221.283 365.703 209.223C365.703 197.164 355.961 187.389 343.943 187.389C331.926 187.389 322.184 197.164 322.184 209.223C322.184 221.283 331.926 231.058 343.943 231.058Z" fill="#294259"/>
<path d="M343.941 223.863C351.999 223.863 358.53 217.308 358.53 209.223C358.53 201.138 351.999 194.584 343.941 194.584C335.884 194.584 329.353 201.138 329.353 209.223C329.353 217.308 335.884 223.863 343.941 223.863Z" fill="#233A4C"/>
<path d="M343.942 221.869C350.902 221.869 356.544 216.207 356.544 209.224C356.544 202.24 350.902 196.578 343.942 196.578C336.982 196.578 331.34 202.24 331.34 209.224C331.34 216.207 336.982 221.869 343.942 221.869Z" fill="#FEECCC"/>
<path d="M351.739 199.299C353.435 201.452 354.45 204.164 354.45 207.115C354.45 214.098 348.807 219.76 341.849 219.76C338.908 219.76 336.206 218.741 334.06 217.04C336.364 219.973 339.932 221.869 343.95 221.869C350.909 221.869 356.552 216.207 356.552 209.224C356.552 205.192 354.671 201.612 351.739 199.299Z" fill="#D8BF98"/>
<path d="M367.785 197.544C363.475 188.7 354.414 182.604 343.941 182.604C343.57 182.604 343.208 182.612 342.846 182.63C352.834 183.055 361.382 189.019 365.542 197.544C367.264 201.071 368.226 205.032 368.226 209.224C368.226 210.296 368.156 211.342 368.032 212.378H370.284C370.407 211.342 370.478 210.287 370.478 209.224C370.478 205.032 369.507 201.071 367.793 197.544H367.785Z" fill="#FEECCC"/>
<path opacity="0.25" d="M386.758 179.582H217.078V180.442H386.758V179.582Z" fill="#11345B"/>
<path d="M358 164L460 168.005L358 172V164Z" fill="#F8B124"/>
<path d="M352 134L451.233 137.333L352 140.675V134Z" fill="#FEECCC"/>
<path d="M352 144L384.751 147.333L352 150.666V144Z" fill="#FEECCC"/>
<path d="M358 105L421 106.995L358 109V105Z" fill="#F6C22F"/>
<path d="M358 113L460 115.996L358 119V113Z" fill="#F6C02E"/>
<path d="M358 175L421 177L358 179V175Z" fill="#F8AF22"/>
<defs>
<linearGradient id="paint0_linear_1173_229" x1="160.2" y1="212.388" x2="160.2" y2="115.416" gradientUnits="userSpaceOnUse">
<stop stop-color="#FE9F0F"/>
<stop offset="1" stop-color="#FDBF2C"/>
</linearGradient>
<linearGradient id="paint1_linear_1173_229" x1="302.065" y1="-100.593" x2="302.065" y2="96" gradientUnits="userSpaceOnUse">
<stop stop-color="#FE9F0F"/>
<stop offset="1" stop-color="#FDBF2C"/>
</linearGradient>
<linearGradient id="paint2_linear_1173_229" x1="335.271" y1="211.138" x2="335.271" y2="96.0181" gradientUnits="userSpaceOnUse">
<stop stop-color="#FE9F0F"/>
<stop offset="1" stop-color="#FDBF2C"/>
</linearGradient>
</defs>
</svg>
