<svg width="25" height="25" viewBox="0 0 25 25" fill="none" xmlns="http://www.w3.org/2000/svg">
<g clip-path="url(#clip0_218_3023)">
<path d="M12.1094 17.5781C12.6488 17.5781 13.0859 18.0153 13.0859 18.5547C13.0859 19.0941 12.6488 19.5312 12.1094 19.5312H10.7422C10.2028 19.5312 9.76561 19.0941 9.76561 18.5547C9.76561 18.0153 10.2028 17.5781 10.7422 17.5781H12.1094ZM20.1172 12.3535C20.1172 11.8141 19.68 11.3769 19.1406 11.3769H10.7422C10.2028 11.3769 9.76561 11.8141 9.76561 12.3535C9.76561 12.8929 10.2028 13.3301 10.7422 13.3301H19.1406C19.68 13.3301 20.1172 12.8929 20.1172 12.3535ZM10.7422 7.4707H19.1406C19.68 7.4707 20.1172 7.03353 20.1172 6.49413C20.1172 5.95474 19.68 5.51757 19.1406 5.51757H10.7422C10.2028 5.51757 9.76561 5.95474 9.76561 6.49413C9.76561 7.03353 10.2028 7.4707 10.7422 7.4707ZM6.83593 17.5781H5.85937C5.31997 17.5781 4.88281 18.0153 4.88281 18.5547C4.88281 19.0941 5.31997 19.5312 5.85937 19.5312H6.83593C7.37533 19.5312 7.81249 19.0941 7.81249 18.5547C7.81249 18.0153 7.37533 17.5781 6.83593 17.5781ZM6.83593 11.3769H5.85937C5.31997 11.3769 4.88281 11.8141 4.88281 12.3535C4.88281 12.8929 5.31997 13.3301 5.85937 13.3301H6.83593C7.37533 13.3301 7.81249 12.8929 7.81249 12.3535C7.81249 11.8141 7.37533 11.3769 6.83593 11.3769ZM6.83593 5.51757H5.85937C5.31997 5.51757 4.88281 5.95474 4.88281 6.49413C4.88281 7.03353 5.31997 7.4707 5.85937 7.4707H6.83593C7.37533 7.4707 7.81249 7.03353 7.81249 6.49413C7.81249 5.95474 7.37533 5.51757 6.83593 5.51757ZM24.7141 23.3328C25.0953 23.7142 25.0953 24.3326 24.7141 24.7139C24.5233 24.9046 24.2733 25 24.0234 25C23.7735 25 23.5235 24.9046 23.3328 24.7141L21.6808 23.0621C21.023 23.4552 20.2543 23.6816 19.4336 23.6816C17.0105 23.6816 15.039 21.7102 15.039 19.2871C15.039 16.864 17.0105 14.8926 19.4336 14.8926C21.8567 14.8926 23.8281 16.864 23.8281 19.2871C23.8281 20.1837 23.558 21.0182 23.0951 21.7142L24.7141 23.3328ZM19.4336 21.7285C20.7798 21.7285 21.875 20.6333 21.875 19.2871C21.875 17.9409 20.7798 16.8457 19.4336 16.8457C18.0874 16.8457 16.9922 17.9409 16.9922 19.2871C16.9922 20.6333 18.0874 21.7285 19.4336 21.7285ZM21.0937 0H3.90625C1.75228 0 0 1.75228 0 3.90625V21.0937C0 23.2477 1.75228 25 3.90625 25H13.9648C14.5042 25 14.9414 24.5628 14.9414 24.0234C14.9414 23.484 14.5042 23.0469 13.9648 23.0469H3.90625C2.82936 23.0469 1.95312 22.1706 1.95312 21.0937V3.90625C1.95312 2.82936 2.82936 1.95312 3.90625 1.95312H21.0937C22.1706 1.95312 23.0468 2.82936 23.0468 3.90625V13.5742C23.0468 14.1136 23.484 14.5508 24.0234 14.5508C24.5628 14.5508 25 14.1136 25 13.5742V3.90625C25 1.75228 23.2477 0 21.0937 0Z" fill="#0088A5"/>
</g>
<defs>
<clipPath id="clip0_218_3023">
<rect width="25" height="25" fill="white"/>
</clipPath>
</defs>
</svg>
